<svg width="211" height="45" viewBox="0 0 211 45" fill="none" xmlns="http://www.w3.org/2000/svg">
<path d="M0.75 37.342C1.13138 36.8922 1.54262 36.4605 1.89872 35.9927C8.68843 26.6079 15.4712 17.2178 22.2472 7.82247C22.6906 7.20631 23.1294 6.9432 23.9128 6.95445C27.081 6.99942 30.2515 6.97244 33.4908 6.97244C35.0991 17.1886 36.7073 27.3102 38.3155 37.5061H26.9523C26.2034 32.0686 25.4498 26.5996 24.6549 20.8653C24.2781 21.3533 24.0392 21.6501 23.814 21.9582C20.207 26.892 16.5886 31.8213 13.016 36.773C12.5956 37.3555 12.1798 37.6006 11.4331 37.5916C7.87207 37.5534 4.31104 37.5669 0.75 37.5669V37.342Z" fill="white"/>
<path d="M173.059 -0.000244141C173.769 0.696872 174.564 1.33552 175.15 2.12259C175.38 2.41942 175.265 3.14802 175.042 3.52806C174.015 5.27985 172.892 6.97767 171.81 8.70022C171.414 9.32762 171.042 9.96852 170.569 10.7511L189.004 8.47534L189.077 8.87787C186.497 9.3681 183.908 9.84934 181.33 10.3441C178.151 10.9647 174.973 11.6079 171.794 12.2353C171.46 12.3027 171.118 12.3365 170.778 12.3747C169.666 12.4961 168.809 12.8694 168.177 13.9173C166.845 16.1279 165.363 18.253 163.902 20.3848C163.53 20.9267 162.928 21.3203 162.558 21.8645C161.368 23.6185 160.18 25.3838 159.093 27.2008C157.945 29.1302 156.945 31.1451 155.806 33.0813C155.055 34.3064 154.228 35.4847 153.329 36.6096C156.047 28.5815 160.125 21.1809 164.511 13.9218L164.249 13.6295L156.01 16.0514C155.902 16.0829 155.799 16.1661 155.691 16.1684C154.884 16.1908 153.605 16.5034 153.368 16.1504C152.856 15.3858 152.856 14.2816 152.697 13.3057C152.667 13.1258 152.842 12.8784 152.984 12.712C153.63 11.9497 156.573 11.3043 157.763 11.772L156.483 12.8694C156.701 12.887 156.92 12.887 157.138 12.8694C159.872 12.3567 162.608 11.8417 165.34 11.2953C165.615 11.2467 165.861 11.099 166.029 10.8815C167.853 7.86218 169.661 4.8346 171.451 1.79877C171.764 1.23882 171.911 0.597927 172.14 -0.000244141H173.059Z" fill="white"/>
<path d="M131.507 22.9028L121.327 33.4293C119.884 29.8313 118.501 26.3682 117.12 22.9141H116.875C116.459 24.3578 116.044 25.8022 115.629 27.2474C114.729 30.4204 113.847 33.5957 112.914 36.7575C112.824 37.0678 112.454 37.5288 112.204 37.5333C108.923 37.585 105.642 37.567 102.249 37.567C105.125 27.3936 107.967 17.3439 110.835 7.20871C114.214 7.20871 117.573 7.19072 120.932 7.24244C121.191 7.24244 121.559 7.70344 121.678 8.02276C122.744 10.8562 123.758 13.7166 124.789 16.5726C124.913 16.9211 125.049 17.2629 125.233 17.7509C125.543 17.4676 125.789 17.2697 126 17.0403C128.858 13.9617 131.705 10.8742 134.576 7.80913C134.834 7.53253 135.243 7.2267 135.585 7.2222C139.286 7.17947 143.006 7.19522 146.868 7.19522L138.289 37.522H127.65C129.028 32.6467 130.367 27.8366 131.718 23.0288L131.507 22.9028Z" fill="white"/>
<path d="M105.847 7.19551C105.08 9.89402 104.398 12.4306 103.616 14.9268C103.529 15.2101 102.893 15.4934 102.509 15.4957C97.6845 15.5339 92.8598 15.5204 88.0352 15.5204H86.705C86.4224 16.5121 86.1513 17.4679 85.8343 18.5877H101.457C100.781 21.0119 100.175 23.2787 99.4834 25.5184C99.4167 25.7433 98.8125 25.8962 98.4564 25.8962C94.0177 25.9232 89.5768 25.9592 85.1312 25.8827C84.0308 25.8625 83.5368 26.1728 83.3852 27.2117C83.2887 27.8639 83.0452 28.4935 82.8361 29.2559H99.7935C99.0537 31.9229 98.3576 34.482 97.6109 37.0299C97.545 37.1649 97.4466 37.2823 97.3241 37.372C97.2017 37.4616 97.0589 37.521 96.9079 37.5448C87.9938 37.5696 79.0821 37.5651 70.0049 37.5651C70.2346 36.6925 70.4138 35.91 70.6321 35.1364C73.1593 26.1998 75.6865 17.2677 78.1907 8.32214C78.4342 7.45186 78.7811 7.16402 79.7345 7.17077C88.0053 7.21575 96.2761 7.19551 104.533 7.19551H105.847Z" fill="white"/>
<path d="M68.3779 28.8351L65.9242 37.4995H40.6523C43.5104 27.3846 46.3623 17.2952 49.208 7.2312H59.9049L53.8167 28.8351H68.3779Z" fill="white"/>
<path d="M188.324 28.8872L191.094 21.6642L190.823 21.5202C187.643 24.0861 185.08 27.2051 182.585 30.4231C181.142 30.214 180.554 29.3527 180.963 27.9989C181.1 27.5492 181.192 27.0679 181.351 26.6137C181.509 26.1594 181.702 25.7502 181.666 25.1408C180.662 25.8873 179.628 26.6002 178.66 27.3895C177.149 28.6286 175.674 29.9239 174.194 31.1922C173.965 31.3856 173.71 31.552 173.473 31.7386C172.765 32.2941 172.094 32.2941 171.426 31.6622C170.757 31.0303 170.966 30.2994 171.403 29.726C173.278 27.2793 175.143 24.8214 177.146 22.4782C179.15 20.135 181.298 17.893 183.432 15.651C184.168 14.9224 184.994 14.287 185.891 13.7598C184.053 17.6524 180.836 20.533 178.217 23.8387L178.424 24.0636C179.035 23.6138 179.635 23.1641 180.262 22.7301C181.479 21.9003 182.704 21.0772 183.938 20.2789C185.215 19.4581 186.465 19.3187 187.57 20.5488C188.528 19.8224 189.38 19.0893 190.327 18.5002C190.815 18.227 191.373 18.0945 191.935 18.1179C192.997 18.1471 193.38 19.0511 192.939 19.9641C192.16 21.5697 191.517 23.2383 190.766 24.8597C190.111 26.2719 189.387 27.6549 188.698 29.0491L188.324 28.8872ZM178.049 24.0344L177.746 24.4234L178.169 24.3402L178.355 24.0321L178.049 24.0344Z" fill="white"/>
<path d="M186.885 38.2715C190.331 37.9252 193.777 37.5541 197.224 37.2415C199.696 37.0167 202.172 36.8795 204.647 36.6839C205.29 36.6344 205.926 36.477 206.57 36.459C207.011 36.4387 207.737 36.4252 207.849 36.6434C208.113 37.1673 208.327 37.9184 208.132 38.4176C207.578 39.8524 206.576 40.9295 204.915 41.2196C204.467 41.3054 204.034 41.457 203.631 41.6694C202.942 42.0224 202.503 41.928 202.023 41.2871C201.773 40.9374 201.422 40.6694 201.015 40.5178C200.608 40.3662 200.163 40.3381 199.739 40.437C198.603 40.6422 197.444 40.6944 196.293 40.5922L197.097 40.3831L197.076 40.129L188.909 40.7024L187.531 40.2526L186.841 40.3089L184.562 40.5337L183.855 40.7586L182.476 40.934H182.017L181.084 41.0959L180.363 41.377L178.341 41.6491L178.056 41.8493H176.342L177.227 42.3597C175.566 42.841 173.893 42.8455 172.158 42.8095C169.889 42.7758 167.616 43.3042 165.335 43.4594C161.719 43.709 158.126 44.0575 154.606 44.9638C154.443 44.9953 154.275 44.9889 154.116 44.9452C153.956 44.9014 153.809 44.8215 153.687 44.7119C156.345 43.9856 158.971 43.1243 161.668 42.5644C166.183 41.6289 170.732 40.8531 175.278 40.075C177.925 39.6252 180.592 39.2834 183.257 38.9349C184.213 38.8112 185.19 38.8112 186.154 38.755C186.821 39.198 186.867 38.755 186.885 38.2715Z" fill="white"/>
<path d="M210.735 23.8363C208.778 24.9786 206.853 26.1817 204.854 27.2499C202.003 28.7723 199.14 30.2857 196.181 31.5832C195.618 31.8284 194.548 31.12 193.792 30.7107C193.443 30.5218 193.284 29.9911 192.942 29.8C192.54 29.6538 191.984 29.6156 191.77 29.3322C191.412 28.8555 191.327 28.327 192 27.8121C195.581 25.0888 198.458 21.5155 202.568 19.4354C203.59 18.9205 204.59 18.3628 205.628 17.8096C206.088 18.2931 206.547 18.8148 207.046 19.3185C207.703 19.9931 207.779 20.6677 207.082 21.3604C205.526 22.8923 203.723 24.164 201.745 25.1248C199.76 26.1098 197.732 27.0273 195.841 28.1629C195.246 28.5227 195.03 29.4874 194.639 30.1733C194.699 30.2947 194.761 30.4139 194.821 30.5353C196.176 30.1215 197.557 29.773 198.883 29.2805C202.536 27.9241 206.026 26.1799 209.29 24.0791C209.754 23.8268 210.237 23.6102 210.735 23.4315C210.747 23.5687 210.735 23.7036 210.735 23.8363Z" fill="white"/>
<path d="M168.968 19.6624C170.016 19.6869 171.062 19.7673 172.102 19.903C172.297 19.9345 172.398 20.6271 172.492 21.0274C172.513 21.1173 172.338 21.2657 172.235 21.3669C171.58 22.0078 170.836 22.5812 170.282 23.2941C169.729 24.007 169.088 24.8255 168.973 25.6621C168.78 27.0855 167.824 27.7669 166.905 28.6304C165.823 29.6356 164.95 30.8589 163.976 31.9766C163.594 32.4128 163.185 32.8266 162.788 33.2494L162.521 33.0807C162.633 32.7188 162.775 32.3667 162.947 32.0283C164.281 29.8268 164.909 27.2767 166.763 25.3022C167.629 24.3803 167.893 22.9163 168.417 21.7042C168.646 21.151 168.876 20.5798 169.09 20.0267C169.044 19.8985 169.007 19.7883 168.968 19.6624Z" fill="white"/>
<path d="M173.748 16.2068L174.973 17.9473C173.976 18.1924 173.075 18.3971 172.179 18.6377C171.014 18.9458 170.47 18.532 170.369 17.1468C170.948 17.0388 171.552 16.9646 172.131 16.805C172.71 16.6453 173.217 16.4024 173.748 16.2068Z" fill="white"/>
</svg>
