<svg width="181" height="40" viewBox="0 0 181 40" fill="none" xmlns="http://www.w3.org/2000/svg">
<path d="M0.5 32.875C0.826908 32.4851 1.17942 32.1108 1.48466 31.7053C7.30468 23.5688 13.1188 15.4277 18.927 7.28214C19.3071 6.74794 19.6832 6.51983 20.3547 6.52958C23.0704 6.56857 25.7881 6.54518 28.5649 6.54518C29.9434 15.4024 31.3219 24.1777 32.7004 33.0174H22.9602C22.3182 28.3031 21.6722 23.5616 20.9908 18.59C20.6679 19.0131 20.4631 19.2705 20.2701 19.5376C17.1782 23.8151 14.0765 28.0887 11.0142 32.3818C10.6538 32.8867 10.2974 33.0992 9.65737 33.0914C6.60491 33.0583 3.55246 33.07 0.5 33.07V32.875Z" fill="#275EFC"/>
<path d="M148.201 0.499939C148.809 1.10433 149.491 1.65802 149.993 2.3404C150.19 2.59775 150.091 3.22943 149.9 3.55892C149.02 5.07769 148.057 6.54966 147.129 8.04309C146.791 8.58704 146.472 9.14268 146.066 9.82116L161.868 7.84812L161.931 8.19711C159.719 8.62213 157.5 9.03935 155.29 9.46827C152.565 10.0064 149.841 10.564 147.116 11.1079C146.83 11.1664 146.537 11.1957 146.245 11.2288C145.292 11.3341 144.557 11.6577 144.016 12.5662C142.874 14.4827 141.603 16.3251 140.351 18.1734C140.032 18.6433 139.516 18.9845 139.199 19.4563C138.179 20.977 137.161 22.5075 136.229 24.0828C135.244 25.7555 134.388 27.5024 133.411 29.1811C132.768 30.2432 132.059 31.2648 131.288 32.24C133.618 25.2798 137.113 18.8636 140.873 12.5701L140.648 12.3167L133.586 14.4165C133.494 14.4437 133.405 14.5159 133.313 14.5178C132.621 14.5373 131.524 14.8083 131.322 14.5022C130.882 13.8394 130.882 12.8821 130.747 12.0359C130.721 11.88 130.871 11.6655 130.993 11.5212C131.546 10.8603 134.069 10.3008 135.089 10.7063L133.992 11.6577C134.179 11.673 134.366 11.673 134.553 11.6577C136.897 11.2132 139.242 10.7667 141.584 10.293C141.819 10.2508 142.03 10.1228 142.175 9.93424C143.738 7.31652 145.287 4.69166 146.822 2.05965C147.09 1.57419 147.216 1.01854 147.413 0.499939H148.201Z" fill="#275EFC"/>
<path d="M112.582 20.3563L103.856 29.4826C102.619 26.3632 101.434 23.3607 100.25 20.3661H100.04C99.6839 21.6178 99.3281 22.8701 98.9723 24.123C98.2003 26.874 97.4441 29.6269 96.6445 32.3681C96.5677 32.6371 96.2507 33.0368 96.036 33.0407C93.2238 33.0855 90.4116 33.0699 87.5029 33.0699C89.9685 24.2498 92.4046 15.5368 94.8623 6.74983C97.7592 6.74983 100.638 6.73423 103.517 6.77907C103.74 6.77907 104.055 7.17875 104.158 7.4556C105.071 9.91214 105.94 12.3921 106.824 14.8681C106.93 15.1703 107.047 15.4667 107.204 15.8897C107.47 15.6441 107.681 15.4725 107.862 15.2736C110.312 12.6046 112.752 9.92774 115.213 7.27038C115.434 7.03057 115.784 6.76542 116.078 6.76152C119.25 6.72448 122.439 6.73813 125.749 6.73813L118.396 33.0309H109.276C110.457 28.8041 111.606 24.6339 112.763 20.4655L112.582 20.3563Z" fill="#275EFC"/>
<path d="M90.5877 6.73816C89.9299 9.07773 89.3451 11.2769 88.6755 13.441C88.6006 13.6867 88.0551 13.9323 87.7263 13.9343C83.5907 13.9674 79.4551 13.9557 75.3195 13.9557H74.1793C73.9371 14.8155 73.7047 15.6441 73.4329 16.615H86.8243C86.2453 18.7167 85.7254 20.682 85.1327 22.6238C85.0756 22.8188 84.5576 22.9514 84.2524 22.9514C80.4476 22.9747 76.6409 23.0059 72.8303 22.9397C71.887 22.9221 71.4636 23.1912 71.3336 24.0919C71.2509 24.6573 71.0421 25.2032 70.8629 25.8641H85.3985C84.7644 28.1764 84.1677 30.3951 83.5277 32.604C83.4711 32.7211 83.3868 32.8229 83.2818 32.9006C83.1769 32.9784 83.0545 33.0298 82.9251 33.0505C75.2841 33.0719 67.6451 33.068 59.8643 33.068C60.0612 32.3116 60.2148 31.6331 60.4019 30.9624C62.5681 23.2146 64.7344 15.4706 66.881 7.71493C67.0897 6.96042 67.3871 6.71086 68.2043 6.71671C75.2939 6.75571 82.3835 6.73816 89.4612 6.73816H90.5877Z" fill="#275EFC"/>
<path d="M58.4699 25.4995L56.3667 33.0115H34.7041C37.1539 24.242 39.5985 15.4947 42.0379 6.76938H51.2071L45.9883 25.4995H58.4699Z" fill="#275EFC"/>
<path d="M161.284 25.5446L163.659 19.2824L163.427 19.1576C160.701 21.3822 158.503 24.0863 156.365 26.8762C155.128 26.6949 154.624 25.9482 154.974 24.7745C155.093 24.3846 155.171 23.9674 155.307 23.5735C155.443 23.1797 155.608 22.8249 155.577 22.2965C154.716 22.9438 153.83 23.5618 153.001 24.2462C151.705 25.3204 150.441 26.4434 149.173 27.543C148.976 27.7107 148.757 27.8549 148.554 28.0168C147.948 28.4983 147.373 28.4983 146.8 27.9505C146.227 27.4026 146.406 26.769 146.78 26.2718C148.387 24.1506 149.986 22.0197 151.703 19.9882C153.421 17.9566 155.262 16.0128 157.091 14.0691C157.722 13.4374 158.43 12.8865 159.199 12.4294C157.623 15.8042 154.866 18.3017 152.621 21.1677L152.798 21.3627C153.322 20.9727 153.836 20.5828 154.374 20.2065C155.417 19.4871 156.467 18.7735 157.525 18.0814C158.62 17.3698 159.691 17.2489 160.638 18.3154C161.459 17.6856 162.19 17.0501 163.001 16.5392C163.42 16.3024 163.898 16.1875 164.38 16.2078C165.29 16.2332 165.619 17.0169 165.24 17.8085C164.573 19.2005 164.021 20.6471 163.377 22.0528C162.816 23.2772 162.196 24.4762 161.605 25.685L161.284 25.5446ZM152.477 21.3373L152.217 21.6746L152.58 21.6025L152.739 21.3354L152.477 21.3373Z" fill="#275EFC"/>
<path d="M160.051 33.6806C163.005 33.3804 165.959 33.0587 168.913 32.7877C171.032 32.5927 173.155 32.4738 175.276 32.3042C175.828 32.2613 176.373 32.1248 176.925 32.1092C177.303 32.0917 177.925 32.08 178.022 32.2691C178.248 32.7234 178.431 33.3745 178.264 33.8074C177.789 35.0512 176.931 35.9851 175.507 36.2366C175.122 36.311 174.751 36.4424 174.406 36.6265C173.815 36.9326 173.439 36.8507 173.027 36.2951C172.813 35.992 172.512 35.7596 172.163 35.6281C171.814 35.4967 171.433 35.4723 171.07 35.5581C170.096 35.736 169.102 35.7812 168.116 35.6927L168.805 35.5113L168.787 35.291L161.786 35.7882L160.605 35.3983L160.014 35.447L158.06 35.642L157.454 35.8369L156.272 35.989H155.878L155.079 36.1294L154.461 36.3731L152.728 36.609L152.483 36.7825H151.014L151.772 37.2251C150.349 37.6423 148.915 37.6462 147.428 37.615C145.482 37.5858 143.535 38.0439 141.579 38.1784C138.479 38.3949 135.399 38.697 132.382 39.4828C132.243 39.5101 132.099 39.5045 131.962 39.4666C131.825 39.4287 131.7 39.3594 131.595 39.2644C133.873 38.6347 136.124 37.888 138.436 37.4025C142.306 36.5914 146.205 35.9188 150.102 35.2442C152.371 34.8543 154.657 34.558 156.942 34.2558C157.761 34.1485 158.598 34.1485 159.425 34.0998C159.996 34.4839 160.036 34.0998 160.051 33.6806Z" fill="#275EFC"/>
<path d="M180.496 21.1659C178.818 22.1563 177.168 23.1994 175.454 24.1255C173.011 25.4454 170.557 26.7575 168.02 27.8824C167.538 28.0949 166.62 27.4808 165.972 27.1259C165.673 26.9622 165.537 26.5021 165.244 26.3363C164.899 26.2096 164.422 26.1765 164.239 25.9308C163.932 25.5175 163.859 25.0593 164.436 24.6129C167.506 22.2519 169.972 19.1539 173.495 17.3505C174.371 16.904 175.228 16.4205 176.118 15.9409C176.512 16.36 176.906 16.8124 177.333 17.2491C177.896 17.834 177.961 18.4189 177.365 19.0194C176.03 20.3475 174.485 21.4501 172.79 22.283C171.088 23.137 169.35 23.9324 167.729 24.917C167.219 25.2289 167.034 26.0653 166.699 26.66C166.75 26.7653 166.803 26.8686 166.854 26.9739C168.016 26.6151 169.2 26.3129 170.336 25.886C173.467 24.71 176.459 23.1978 179.257 21.3765C179.655 21.1577 180.069 20.9699 180.496 20.815C180.506 20.9339 180.496 21.0509 180.496 21.1659Z" fill="#275EFC"/>
<path d="M144.694 17.547C145.592 17.5683 146.489 17.638 147.38 17.7556C147.547 17.7829 147.634 18.3834 147.715 18.7304C147.733 18.8084 147.583 18.9371 147.494 19.0248C146.933 19.5805 146.295 20.0776 145.82 20.6957C145.346 21.3137 144.796 22.0234 144.698 22.7486C144.532 23.9828 143.713 24.5735 142.925 25.3222C141.998 26.1937 141.25 27.2543 140.415 28.2232C140.088 28.6015 139.737 28.9602 139.396 29.3267L139.168 29.1805C139.263 28.8667 139.385 28.5615 139.532 28.2681C140.676 26.3594 141.214 24.1485 142.803 22.4367C143.546 21.6374 143.772 20.3681 144.221 19.3173C144.418 18.8377 144.615 18.3425 144.798 17.8629C144.759 17.7517 144.727 17.6562 144.694 17.547Z" fill="#275EFC"/>
<path d="M148.791 14.5511L149.841 16.0602C148.986 16.2727 148.214 16.4501 147.446 16.6587C146.448 16.9258 145.981 16.5671 145.895 15.3661C146.391 15.2725 146.909 15.2082 147.405 15.0698C147.901 14.9313 148.336 14.7208 148.791 14.5511Z" fill="#275EFC"/>
</svg>
