<svg width="61" height="83" viewBox="0 0 61 83" fill="none" xmlns="http://www.w3.org/2000/svg">
<path d="M28.0015 18.866L18.9567 23.3883L9.91199 27.9108H0.867188V36.9556V50.5227V59.5675L5.38959 68.6123H14.4344L23.4791 73.1346L28.0015 68.6123L37.0463 73.1346L46.0911 77.6571L55.1359 82.1794L59.6583 77.6571V68.6123L50.6135 59.5675V50.5227L50.1502 1.23962L41.5687 9.82117L28.0015 18.866Z" fill="#00A1E1"/>
<path d="M50.6135 0.776367L50.1502 1.23962M50.1502 1.23962L41.5687 9.82117L28.0015 18.866L18.9567 23.3883L9.91199 27.9108H0.867188V36.9556V50.5227V59.5675L5.38959 68.6123H14.4344L23.4791 73.1346L28.0015 68.6123L37.0463 73.1346L46.0911 77.6571L55.1359 82.1794L59.6583 77.6571V68.6123L50.6135 59.5675V50.5227L50.1502 1.23962Z" stroke="white" stroke-linecap="round" stroke-linejoin="round"/>
<rect x="24.5" y="50.5" width="6" height="6" rx="3" fill="#FFFFFF"/>
<rect x="26.3008" y="52.2998" width="2.4" height="2.4" rx="1.2" fill="#00A1E1"/>
<path d="M15.4598 47C15.3574 47 15.2789 46.9561 15.224 46.8684C15.1692 46.7807 15.1637 46.6875 15.2076 46.5888L16.7482 42.9101C16.803 42.7822 16.8925 42.7182 17.0168 42.7182C17.1484 42.7182 17.2379 42.7822 17.2854 42.9101L18.8315 46.5998C18.8717 46.7021 18.8644 46.7953 18.8096 46.8794C18.7584 46.9598 18.6798 47 18.5738 47C18.519 47 18.466 46.9854 18.4148 46.9561C18.3673 46.9232 18.3326 46.8794 18.3107 46.8246L16.951 43.4474H17.1045L15.7229 46.8246C15.6973 46.883 15.659 46.9269 15.6078 46.9561C15.5603 46.9854 15.5109 47 15.4598 47ZM15.7503 46.057L15.9696 45.5855H18.1188L18.3381 46.057H15.7503ZM20.5537 44.0066C20.6085 44.0066 20.6578 44.0212 20.7017 44.0504C20.7455 44.0797 20.7803 44.1254 20.8059 44.1875L21.9352 46.6382C21.9681 46.7113 21.9718 46.777 21.9462 46.8355C21.9206 46.8904 21.8768 46.9324 21.8146 46.9616C21.7342 46.9982 21.6648 47.0073 21.6063 46.989C21.5478 46.9708 21.4985 46.9251 21.4583 46.852L20.4276 44.511H20.7072L19.6436 46.852C19.6107 46.9214 19.5613 46.9671 19.4955 46.989C19.4334 47.0073 19.364 46.9982 19.2872 46.9616C19.2178 46.9287 19.1684 46.8849 19.1392 46.83C19.1136 46.7752 19.1191 46.7113 19.1556 46.6382L20.2905 44.1875C20.3453 44.0669 20.433 44.0066 20.5537 44.0066ZM22.9271 47C22.8467 47 22.7791 46.9744 22.7242 46.9232C22.6731 46.8684 22.6475 46.8008 22.6475 46.7204V44.2807C22.6475 44.1966 22.6731 44.129 22.7242 44.0779C22.7791 44.0267 22.8467 44.0011 22.9271 44.0011C23.0441 44.0011 23.1427 44.0577 23.2231 44.1711L24.358 45.8103L25.4929 44.1711C25.5733 44.0577 25.672 44.0011 25.7889 44.0011C25.873 44.0011 25.9406 44.0267 25.9918 44.0779C26.043 44.129 26.0685 44.1966 26.0685 44.2807V46.7204C26.0685 46.8008 26.043 46.8684 25.9918 46.9232C25.9406 46.9744 25.873 47 25.7889 47C25.7085 47 25.6409 46.9744 25.5861 46.9232C25.5349 46.8684 25.5093 46.8008 25.5093 46.7204V44.7248L25.6519 44.7686L24.6431 46.1941C24.5517 46.322 24.453 46.386 24.3471 46.386C24.2411 46.3823 24.1442 46.3183 24.0565 46.1941L23.0642 44.7686L23.2067 44.7248V46.7204C23.2067 46.8008 23.1811 46.8684 23.1299 46.9232C23.0788 46.9744 23.0112 47 22.9271 47ZM28.3038 47.0219C28.037 47.0219 27.7976 46.9561 27.5856 46.8246C27.3736 46.6893 27.2055 46.5084 27.0812 46.2818C26.9606 46.0515 26.9003 45.792 26.9003 45.5033C26.9003 45.2145 26.9661 44.955 27.0977 44.7248C27.2329 44.4945 27.4138 44.3136 27.6404 44.182C27.8707 44.0468 28.1284 43.9792 28.4135 43.9792C28.6985 43.9792 28.9544 44.0468 29.181 44.182C29.4076 44.3136 29.5867 44.4945 29.7183 44.7248C29.8535 44.955 29.9211 45.2145 29.9211 45.5033H29.7073C29.7073 45.792 29.6452 46.0515 29.5209 46.2818C29.4003 46.5084 29.234 46.6893 29.022 46.8246C28.81 46.9561 28.5706 47.0219 28.3038 47.0219ZM28.4135 46.5285C28.5999 46.5285 28.7662 46.4846 28.9124 46.3969C29.0586 46.3056 29.1737 46.1831 29.2577 46.0296C29.3418 45.8724 29.3838 45.697 29.3838 45.5033C29.3838 45.3059 29.3418 45.1305 29.2577 44.977C29.1737 44.8198 29.0586 44.6974 28.9124 44.6096C28.7662 44.5183 28.5999 44.4726 28.4135 44.4726C28.2307 44.4726 28.0644 44.5183 27.9145 44.6096C27.7683 44.6974 27.6514 44.8198 27.5637 44.977C27.4796 45.1305 27.4376 45.3059 27.4376 45.5033C27.4376 45.697 27.4796 45.8724 27.5637 46.0296C27.6514 46.1831 27.7683 46.3056 27.9145 46.3969C28.0644 46.4846 28.2307 46.5285 28.4135 46.5285ZM29.6415 47.0055C29.5611 47.0055 29.4935 46.9799 29.4387 46.9287C29.3875 46.8739 29.3619 46.8063 29.3619 46.7259V45.8871L29.4661 45.3059L29.9211 45.5033V46.7259C29.9211 46.8063 29.8937 46.8739 29.8389 46.9287C29.7877 46.9799 29.7219 47.0055 29.6415 47.0055ZM34.6898 47.0055C34.6094 47.0055 34.5418 46.9799 34.4869 46.9287C34.4358 46.8739 34.4102 46.8063 34.4102 46.7259V45.1579C34.4102 44.9276 34.3535 44.7577 34.2402 44.648C34.1269 44.5347 33.9789 44.4781 33.7962 44.4781C33.6061 44.4781 33.4489 44.5439 33.3247 44.6754C33.204 44.807 33.1437 44.9751 33.1437 45.1798H32.6887C32.6887 44.9423 32.7399 44.7339 32.8422 44.5548C32.9445 44.3721 33.0871 44.2295 33.2698 44.1272C33.4562 44.0249 33.6682 43.9737 33.9058 43.9737C34.1141 43.9737 34.2987 44.0194 34.4595 44.1107C34.6203 44.2021 34.7446 44.3374 34.8323 44.5164C34.9237 44.6919 34.9694 44.9057 34.9694 45.1579V46.7259C34.9694 46.8063 34.9438 46.8739 34.8926 46.9287C34.8415 46.9799 34.7739 47.0055 34.6898 47.0055ZM31.033 47.0055C30.9526 47.0055 30.885 46.9799 30.8301 46.9287C30.779 46.8739 30.7534 46.8063 30.7534 46.7259V44.2862C30.7534 44.2021 30.779 44.1345 30.8301 44.0833C30.885 44.0322 30.9526 44.0066 31.033 44.0066C31.1171 44.0066 31.1847 44.0322 31.2358 44.0833C31.287 44.1345 31.3126 44.2021 31.3126 44.2862V46.7259C31.3126 46.8063 31.287 46.8739 31.2358 46.9287C31.1847 46.9799 31.1171 47.0055 31.033 47.0055ZM32.8641 47.0055C32.7837 47.0055 32.7161 46.9799 32.6613 46.9287C32.6101 46.8739 32.5845 46.8063 32.5845 46.7259V45.1579C32.5845 44.9276 32.5279 44.7577 32.4146 44.648C32.3013 44.5347 32.1532 44.4781 31.9705 44.4781C31.7804 44.4781 31.6233 44.5439 31.499 44.6754C31.3747 44.807 31.3126 44.9751 31.3126 45.1798H30.9672C30.9672 44.9423 31.0147 44.7339 31.1097 44.5548C31.2048 44.3721 31.3364 44.2295 31.5045 44.1272C31.6726 44.0249 31.8645 43.9737 32.0801 43.9737C32.2885 43.9737 32.4731 44.0194 32.6339 44.1107C32.7947 44.2021 32.919 44.3374 33.0067 44.5164C33.0981 44.6919 33.1437 44.9057 33.1437 45.1579V46.7259C33.1437 46.8063 33.1182 46.8739 33.067 46.9287C33.0158 46.9799 32.9482 47.0055 32.8641 47.0055ZM37.154 47.0548C36.9091 47.0548 36.6917 47.0037 36.5016 46.9013C36.3116 46.7953 36.1635 46.651 36.0575 46.4682C35.9515 46.2855 35.8985 46.0771 35.8985 45.8432V44.2752C35.9059 44.1948 35.9351 44.129 35.9863 44.0779C36.0374 44.0267 36.1014 44.0011 36.1782 44.0011C36.2622 44.0011 36.3298 44.0267 36.381 44.0779C36.4322 44.129 36.4578 44.1966 36.4578 44.2807V44.8947H37.2089C37.4391 44.8947 37.642 44.9349 37.8174 45.0154C37.9965 45.0958 38.1354 45.2127 38.2341 45.3662C38.3364 45.5197 38.3876 45.708 38.3876 45.9309C38.3876 46.1685 38.3346 46.3713 38.2286 46.5395C38.1263 46.7076 37.9819 46.8355 37.7955 46.9232C37.6091 47.011 37.3953 47.0548 37.154 47.0548ZM37.154 46.534C37.3587 46.534 37.525 46.4846 37.6529 46.386C37.7845 46.2836 37.8503 46.1319 37.8503 45.9309C37.8503 45.7372 37.79 45.5947 37.6694 45.5033C37.5488 45.4119 37.3953 45.3662 37.2089 45.3662H36.4578V45.8322C36.4578 46.0369 36.5217 46.205 36.6496 46.3366C36.7812 46.4682 36.9493 46.534 37.154 46.534ZM39.1442 47C39.0638 47 38.9961 46.9744 38.9413 46.9232C38.8901 46.8684 38.8646 46.8008 38.8646 46.7204V44.2807C38.8646 44.1966 38.8901 44.129 38.9413 44.0779C38.9961 44.0267 39.0638 44.0011 39.1442 44.0011C39.2282 44.0011 39.2958 44.0267 39.347 44.0779C39.3982 44.129 39.4238 44.1966 39.4238 44.2807V46.7204C39.4238 46.8008 39.3982 46.8684 39.347 46.9232C39.2958 46.9744 39.2282 47 39.1442 47Z" fill="#FFFFFF"/>
</svg>
