<svg viewBox="0 0 662 635" fill="none" xmlns="http://www.w3.org/2000/svg">
<path d="M57.9537 469.692L66.3621 487.446L79.6878 499.738L105.015 487.446L123.105 489.824H143.073L209.03 499.738L274.756 510.175L313.754 487.446H340.179L349.224 510.175L426.105 521.075L453.239 530.12L493.94 502.985L521.075 525.597L557.254 548.209L575.344 584.794L579.866 611.523L575.344 619.77V634.135L588.911 625.09H616.045L661.269 620.973L643.179 598.361V589.316L638.657 584.794H634.135L625.09 575.749V566.704L616.045 530.525L609.261 510.175L602.478 489.824L588.911 453.645L579.866 399.376L575.344 354.152L570.821 299.883V286.316V277.271L557.254 272.749L543.687 268.227L534.642 263.704L525.597 254.66L516.552 250.137L502.985 245.615L493.94 241.092L484.896 236.57H480.373L471.329 232.048L462.284 223.003L448.717 218.48L444.194 209.436L439.672 200.391V195.868V186.824V173.256L430.627 155.167V146.122L426.105 137.077L421.582 128.033V118.988V109.943V91.8534L408.015 64.7191V46.6295V29.5424L398.599 1L349.001 6.55234L304.45 3.90768L182.102 81.3489L71.8519 203.263L47.4268 252.183L42.4747 317.771L46.7946 362.518L50.1454 377.122L54.6235 389.976L7.40694 392.947L1 416.211L17.5331 441.698L36.1732 442.182L54.7187 446.471L57.9537 469.692Z" fill="#00A1E1" stroke="white" stroke-linecap="round" stroke-linejoin="round"/>
<rect x="260" y="321" width="30" height="30" rx="15" fill="#FFFFFF"/>
<rect x="269" y="330" width="12" height="12" rx="6" fill="#00A1E1"/>
<path d="M172.817 309C172.467 309 172.176 308.892 171.942 308.675C171.709 308.442 171.592 308.158 171.592 307.825V290.65C171.592 290.317 171.701 290.042 171.917 289.825C172.151 289.592 172.434 289.475 172.767 289.475H183.392C183.692 289.475 183.942 289.583 184.142 289.8C184.359 290 184.467 290.267 184.467 290.6C184.467 290.917 184.359 291.175 184.142 291.375C183.942 291.575 183.692 291.675 183.392 291.675H173.942V297.5H179.817C181.034 297.5 182.117 297.742 183.067 298.225C184.017 298.692 184.759 299.35 185.292 300.2C185.826 301.05 186.092 302.033 186.092 303.15C186.092 304.283 185.826 305.292 185.292 306.175C184.759 307.058 184.017 307.75 183.067 308.25C182.117 308.75 181.034 309 179.817 309H172.817ZM173.942 306.8H179.817C180.601 306.8 181.292 306.658 181.892 306.375C182.492 306.075 182.959 305.65 183.292 305.1C183.626 304.55 183.792 303.883 183.792 303.1C183.792 302.333 183.626 301.683 183.292 301.15C182.959 300.617 182.492 300.217 181.892 299.95C181.292 299.683 180.601 299.55 179.817 299.55H173.942V306.8ZM195.551 309.1C194.301 309.1 193.184 308.8 192.201 308.2C191.218 307.6 190.443 306.775 189.876 305.725C189.309 304.675 189.026 303.492 189.026 302.175C189.026 300.842 189.326 299.658 189.926 298.625C190.543 297.575 191.368 296.75 192.401 296.15C193.451 295.533 194.626 295.225 195.926 295.225C197.243 295.225 198.418 295.533 199.451 296.15C200.484 296.75 201.301 297.575 201.901 298.625C202.518 299.675 202.834 300.858 202.851 302.175L201.951 302.4C201.951 303.667 201.668 304.808 201.101 305.825C200.534 306.842 199.768 307.642 198.801 308.225C197.851 308.808 196.768 309.1 195.551 309.1ZM195.926 307.05C196.826 307.05 197.626 306.842 198.326 306.425C199.026 305.992 199.576 305.408 199.976 304.675C200.393 303.925 200.601 303.092 200.601 302.175C200.601 301.242 200.393 300.408 199.976 299.675C199.576 298.925 199.026 298.342 198.326 297.925C197.626 297.492 196.826 297.275 195.926 297.275C195.059 297.275 194.268 297.492 193.551 297.925C192.834 298.342 192.268 298.925 191.851 299.675C191.451 300.408 191.251 301.242 191.251 302.175C191.251 303.092 191.451 303.925 191.851 304.675C192.268 305.408 192.834 305.992 193.551 306.425C194.268 306.842 195.059 307.05 195.926 307.05ZM201.676 309.025C201.343 309.025 201.068 308.917 200.851 308.7C200.634 308.483 200.526 308.208 200.526 307.875V303.875L201.001 301.475L202.851 302.175V307.875C202.851 308.208 202.734 308.483 202.501 308.7C202.284 308.917 202.009 309.025 201.676 309.025ZM211.746 295.35C211.962 295.35 212.162 295.408 212.346 295.525C212.546 295.642 212.704 295.833 212.821 296.1L218.071 307.525C218.204 307.808 218.212 308.075 218.096 308.325C217.996 308.558 217.812 308.742 217.546 308.875C217.229 309.008 216.946 309.042 216.696 308.975C216.446 308.892 216.237 308.7 216.071 308.4L211.196 297.4H212.396L207.396 308.375C207.262 308.675 207.054 308.867 206.771 308.95C206.504 309.033 206.212 309 205.896 308.85C205.612 308.717 205.412 308.533 205.296 308.3C205.196 308.067 205.212 307.8 205.346 307.5L210.646 296.1C210.879 295.6 211.246 295.35 211.746 295.35ZM230.868 309C230.685 309 230.527 308.975 230.393 308.925C230.26 308.858 230.127 308.742 229.993 308.575L225.618 303.225L224.793 302.425L220.443 297.125C220.227 296.892 220.118 296.633 220.118 296.35C220.118 296.067 220.202 295.825 220.368 295.625C220.535 295.425 220.785 295.325 221.118 295.325C221.468 295.325 221.76 295.45 221.993 295.7L226.243 300.9L226.893 301.5L231.568 307.25C231.802 307.533 231.91 307.808 231.893 308.075C231.877 308.342 231.768 308.567 231.568 308.75C231.385 308.917 231.152 309 230.868 309ZM221.193 309C220.877 309 220.627 308.908 220.443 308.725C220.277 308.525 220.193 308.292 220.193 308.025C220.193 307.742 220.293 307.467 220.493 307.2L224.893 301.7L226.143 303.425L221.993 308.65C221.793 308.883 221.527 309 221.193 309ZM227.243 302.55L225.718 301.15L229.843 295.75C229.977 295.583 230.11 295.475 230.243 295.425C230.393 295.358 230.56 295.325 230.743 295.325C231.077 295.325 231.327 295.433 231.493 295.65C231.66 295.85 231.735 296.092 231.718 296.375C231.718 296.658 231.618 296.933 231.418 297.2L227.243 302.55ZM239.716 309.1C238.466 309.1 237.349 308.8 236.366 308.2C235.383 307.6 234.608 306.775 234.041 305.725C233.474 304.675 233.191 303.492 233.191 302.175C233.191 300.842 233.491 299.658 234.091 298.625C234.708 297.575 235.533 296.75 236.566 296.15C237.616 295.533 238.791 295.225 240.091 295.225C241.408 295.225 242.583 295.533 243.616 296.15C244.649 296.75 245.466 297.575 246.066 298.625C246.683 299.675 246.999 300.858 247.016 302.175L246.116 302.4C246.116 303.667 245.833 304.808 245.266 305.825C244.699 306.842 243.933 307.642 242.966 308.225C242.016 308.808 240.933 309.1 239.716 309.1ZM240.091 307.05C240.991 307.05 241.791 306.842 242.491 306.425C243.191 305.992 243.741 305.408 244.141 304.675C244.558 303.925 244.766 303.092 244.766 302.175C244.766 301.242 244.558 300.408 244.141 299.675C243.741 298.925 243.191 298.342 242.491 297.925C241.791 297.492 240.991 297.275 240.091 297.275C239.224 297.275 238.433 297.492 237.716 297.925C236.999 298.342 236.433 298.925 236.016 299.675C235.616 300.408 235.416 301.242 235.416 302.175C235.416 303.092 235.616 303.925 236.016 304.675C236.433 305.408 236.999 305.992 237.716 306.425C238.433 306.842 239.224 307.05 240.091 307.05ZM245.841 309.025C245.508 309.025 245.233 308.917 245.016 308.7C244.799 308.483 244.691 308.208 244.691 307.875V303.875L245.166 301.475L247.016 302.175V307.875C247.016 308.208 246.899 308.483 246.666 308.7C246.449 308.917 246.174 309.025 245.841 309.025ZM263.911 309.15C262.944 309.15 262.086 308.933 261.336 308.5C260.602 308.067 260.027 307.442 259.611 306.625C259.211 305.792 259.011 304.8 259.011 303.65V296.475C259.011 296.125 259.111 295.85 259.311 295.65C259.527 295.433 259.811 295.325 260.161 295.325C260.494 295.325 260.769 295.433 260.986 295.65C261.202 295.85 261.311 296.125 261.311 296.475V303.65C261.311 304.383 261.436 305 261.686 305.5C261.936 306 262.286 306.383 262.736 306.65C263.186 306.9 263.711 307.025 264.311 307.025C265.244 307.025 266.011 306.717 266.611 306.1C267.211 305.467 267.511 304.667 267.511 303.7H268.561C268.561 304.767 268.352 305.708 267.936 306.525C267.536 307.342 266.986 307.983 266.286 308.45C265.602 308.917 264.811 309.15 263.911 309.15ZM255.436 309.15C254.469 309.15 253.619 308.933 252.886 308.5C252.152 308.067 251.569 307.442 251.136 306.625C250.719 305.792 250.511 304.8 250.511 303.65V296.475C250.511 296.125 250.619 295.85 250.836 295.65C251.052 295.433 251.327 295.325 251.661 295.325C252.011 295.325 252.294 295.433 252.511 295.65C252.727 295.85 252.836 296.125 252.836 296.475V303.65C252.836 304.383 252.961 305 253.211 305.5C253.461 306 253.811 306.383 254.261 306.65C254.711 306.9 255.227 307.025 255.811 307.025C256.761 307.025 257.527 306.708 258.111 306.075C258.711 305.442 259.011 304.625 259.011 303.625H260.061C260.044 304.708 259.836 305.667 259.436 306.5C259.052 307.333 258.511 307.983 257.811 308.45C257.127 308.917 256.336 309.15 255.436 309.15ZM268.661 309C268.327 309 268.052 308.892 267.836 308.675C267.619 308.458 267.511 308.183 267.511 307.85V296.475C267.511 296.125 267.619 295.85 267.836 295.65C268.052 295.433 268.327 295.325 268.661 295.325C269.011 295.325 269.286 295.433 269.486 295.65C269.702 295.85 269.811 296.125 269.811 296.475V307.85C269.811 308.183 269.702 308.458 269.486 308.675C269.286 308.892 269.011 309 268.661 309ZM287.47 309.1C286.22 309.1 285.103 308.8 284.12 308.2C283.137 307.6 282.362 306.775 281.795 305.725C281.228 304.675 280.945 303.492 280.945 302.175C280.945 300.842 281.245 299.658 281.845 298.625C282.462 297.575 283.287 296.75 284.32 296.15C285.37 295.533 286.545 295.225 287.845 295.225C289.162 295.225 290.337 295.533 291.37 296.15C292.403 296.75 293.22 297.575 293.82 298.625C294.437 299.675 294.753 300.858 294.77 302.175L293.87 302.4C293.87 303.667 293.587 304.808 293.02 305.825C292.453 306.842 291.687 307.642 290.72 308.225C289.77 308.808 288.687 309.1 287.47 309.1ZM287.845 307.05C288.745 307.05 289.545 306.842 290.245 306.425C290.945 305.992 291.495 305.408 291.895 304.675C292.312 303.925 292.52 303.092 292.52 302.175C292.52 301.242 292.312 300.408 291.895 299.675C291.495 298.925 290.945 298.342 290.245 297.925C289.545 297.492 288.745 297.275 287.845 297.275C286.978 297.275 286.187 297.492 285.47 297.925C284.753 298.342 284.187 298.925 283.77 299.675C283.37 300.408 283.17 301.242 283.17 302.175C283.17 303.092 283.37 303.925 283.77 304.675C284.187 305.408 284.753 305.992 285.47 306.425C286.187 306.842 286.978 307.05 287.845 307.05ZM293.595 309.025C293.262 309.025 292.987 308.917 292.77 308.7C292.553 308.483 292.445 308.208 292.445 307.875V303.875L292.92 301.475L294.77 302.175V307.875C294.77 308.208 294.653 308.483 294.42 308.7C294.203 308.917 293.928 309.025 293.595 309.025ZM297.558 315C297.241 315 296.916 314.95 296.583 314.85C296.249 314.767 295.924 314.633 295.608 314.45C295.274 314.25 295.058 314 294.958 313.7C294.858 313.417 294.916 313.133 295.133 312.85C295.316 312.6 295.541 312.45 295.808 312.4C296.074 312.367 296.358 312.433 296.658 312.6C296.841 312.7 297.016 312.775 297.183 312.825C297.349 312.875 297.524 312.9 297.708 312.9C298.258 312.9 298.783 312.633 299.283 312.1C299.783 311.567 300.258 310.783 300.708 309.75L306.783 295.9C306.916 295.6 307.124 295.4 307.408 295.3C307.691 295.2 307.974 295.217 308.258 295.35C308.524 295.45 308.699 295.642 308.783 295.925C308.866 296.208 308.833 296.508 308.683 296.825L302.558 310.65C301.991 311.95 301.266 313 300.383 313.8C299.499 314.6 298.558 315 297.558 315ZM303.083 308.5C302.783 308.633 302.508 308.65 302.258 308.55C302.008 308.45 301.808 308.258 301.658 307.975L295.983 296.825C295.833 296.542 295.808 296.267 295.908 296C296.024 295.733 296.233 295.542 296.533 295.425C296.816 295.292 297.083 295.275 297.333 295.375C297.599 295.458 297.799 295.65 297.933 295.95L303.433 307C303.583 307.3 303.633 307.592 303.583 307.875C303.533 308.158 303.366 308.367 303.083 308.5ZM316.938 309.1C315.654 309.1 314.521 308.808 313.538 308.225C312.571 307.625 311.804 306.808 311.238 305.775C310.688 304.725 310.413 303.525 310.413 302.175C310.413 300.808 310.704 299.608 311.288 298.575C311.888 297.525 312.704 296.708 313.738 296.125C314.788 295.525 315.979 295.225 317.313 295.225C318.663 295.225 319.854 295.525 320.888 296.125C321.921 296.708 322.729 297.525 323.313 298.575C323.913 299.608 324.221 300.808 324.238 302.175L322.888 302.4C322.888 303.717 322.629 304.883 322.113 305.9C321.613 306.9 320.913 307.683 320.013 308.25C319.113 308.817 318.088 309.1 316.938 309.1ZM317.313 314.575C316.079 314.575 314.946 314.333 313.913 313.85C312.896 313.383 312.046 312.708 311.363 311.825C311.163 311.575 311.079 311.308 311.113 311.025C311.163 310.758 311.313 310.542 311.563 310.375C311.829 310.192 312.113 310.125 312.413 310.175C312.713 310.242 312.954 310.392 313.138 310.625C313.604 311.208 314.188 311.667 314.888 312C315.604 312.333 316.429 312.5 317.363 312.5C318.213 312.5 318.988 312.292 319.688 311.875C320.388 311.475 320.946 310.883 321.363 310.1C321.779 309.333 321.988 308.408 321.988 307.325V303.675L322.763 301.775L324.238 302.175V307.45C324.238 308.783 323.938 309.983 323.338 311.05C322.754 312.133 321.938 312.992 320.888 313.625C319.854 314.258 318.663 314.575 317.313 314.575ZM317.313 307.05C318.229 307.05 319.038 306.842 319.738 306.425C320.438 306.008 320.988 305.433 321.388 304.7C321.788 303.967 321.988 303.125 321.988 302.175C321.988 301.225 321.788 300.383 321.388 299.65C320.988 298.9 320.438 298.317 319.738 297.9C319.038 297.483 318.229 297.275 317.313 297.275C316.413 297.275 315.604 297.483 314.888 297.9C314.188 298.317 313.638 298.9 313.238 299.65C312.838 300.383 312.638 301.225 312.638 302.175C312.638 303.125 312.838 303.967 313.238 304.7C313.638 305.433 314.188 306.008 314.888 306.425C315.604 306.842 316.413 307.05 317.313 307.05ZM333.832 309.1C332.582 309.1 331.466 308.8 330.482 308.2C329.499 307.6 328.724 306.775 328.157 305.725C327.591 304.675 327.307 303.492 327.307 302.175C327.307 300.842 327.607 299.658 328.207 298.625C328.824 297.575 329.649 296.75 330.682 296.15C331.732 295.533 332.907 295.225 334.207 295.225C335.524 295.225 336.699 295.533 337.732 296.15C338.766 296.75 339.582 297.575 340.182 298.625C340.799 299.675 341.116 300.858 341.132 302.175L340.232 302.4C340.232 303.667 339.949 304.808 339.382 305.825C338.816 306.842 338.049 307.642 337.082 308.225C336.132 308.808 335.049 309.1 333.832 309.1ZM334.207 307.05C335.107 307.05 335.907 306.842 336.607 306.425C337.307 305.992 337.857 305.408 338.257 304.675C338.674 303.925 338.882 303.092 338.882 302.175C338.882 301.242 338.674 300.408 338.257 299.675C337.857 298.925 337.307 298.342 336.607 297.925C335.907 297.492 335.107 297.275 334.207 297.275C333.341 297.275 332.549 297.492 331.832 297.925C331.116 298.342 330.549 298.925 330.132 299.675C329.732 300.408 329.532 301.242 329.532 302.175C329.532 303.092 329.732 303.925 330.132 304.675C330.549 305.408 331.116 305.992 331.832 306.425C332.549 306.842 333.341 307.05 334.207 307.05ZM339.957 309.025C339.624 309.025 339.349 308.917 339.132 308.7C338.916 308.483 338.807 308.208 338.807 307.875V303.875L339.282 301.475L341.132 302.175V307.875C341.132 308.208 341.016 308.483 340.782 308.7C340.566 308.917 340.291 309.025 339.957 309.025ZM356.477 309C356.144 309 355.869 308.892 355.652 308.675C355.435 308.458 355.327 308.183 355.327 307.85V296.475C355.327 296.125 355.435 295.85 355.652 295.65C355.869 295.433 356.144 295.325 356.477 295.325C356.827 295.325 357.094 295.433 357.277 295.65C357.477 295.85 357.577 296.125 357.577 296.475V307.85C357.577 308.183 357.477 308.458 357.277 308.675C357.094 308.892 356.827 309 356.477 309ZM346.027 309C345.694 309 345.419 308.892 345.202 308.675C345.002 308.458 344.902 308.183 344.902 307.85V296.475C344.902 296.125 345.002 295.85 345.202 295.65C345.419 295.433 345.694 295.325 346.027 295.325C346.36 295.325 346.635 295.433 346.852 295.65C347.069 295.85 347.177 296.125 347.177 296.475V307.85C347.177 308.183 347.069 308.458 346.852 308.675C346.635 308.892 346.36 309 346.027 309ZM346.852 303V300.95H356.027V303H346.852ZM367.715 309.25C366.615 309.25 365.64 309.025 364.79 308.575C363.94 308.108 363.273 307.475 362.79 306.675C362.307 305.858 362.065 304.933 362.065 303.9V296.45C362.098 296.117 362.215 295.85 362.415 295.65C362.632 295.433 362.898 295.325 363.215 295.325C363.565 295.325 363.84 295.433 364.04 295.65C364.257 295.85 364.365 296.125 364.365 296.475V299.575H367.915C368.932 299.575 369.84 299.758 370.64 300.125C371.44 300.492 372.065 301.025 372.515 301.725C372.965 302.425 373.19 303.267 373.19 304.25C373.19 305.3 372.957 306.2 372.49 306.95C372.023 307.683 371.373 308.25 370.54 308.65C369.723 309.05 368.782 309.25 367.715 309.25ZM367.715 307.1C368.665 307.1 369.44 306.867 370.04 306.4C370.657 305.917 370.965 305.2 370.965 304.25C370.965 303.333 370.673 302.658 370.09 302.225C369.523 301.775 368.798 301.55 367.915 301.55H364.365V303.85C364.365 304.8 364.673 305.583 365.29 306.2C365.923 306.8 366.732 307.1 367.715 307.1ZM376.515 309C376.182 309 375.907 308.892 375.69 308.675C375.473 308.458 375.365 308.183 375.365 307.85V296.475C375.365 296.125 375.473 295.85 375.69 295.65C375.907 295.433 376.182 295.325 376.515 295.325C376.865 295.325 377.14 295.433 377.34 295.65C377.557 295.85 377.665 296.125 377.665 296.475V307.85C377.665 308.183 377.557 308.458 377.34 308.675C377.14 308.892 376.865 309 376.515 309Z" fill="#FFFFFF"/>
</svg>
