<svg viewBox="0 0 362 173" fill="none" xmlns="http://www.w3.org/2000/svg">
<path d="M173.195 73.3309L137.015 59.7637L125.99 47.1637L105.359 23.5846L87.2692 0.972656L42.0453 5.08942H14.9109L1.34375 14.1342L10.3885 23.179L14.9109 27.7014H23.9557L37.5229 32.2238L42.0453 45.791L51.09 59.3582L55.6124 72.9253V81.9701L64.6572 109.104L63.3082 122.672L55.6124 136.239L51.09 149.806V167.896L60.1348 172.418L82.7468 154.328L123.448 163.373H177.717L204.851 167.896H213.896L231.986 172.418L250.075 167.896L263.642 158.851L268.165 149.806L281.732 158.851V145.284L304.344 140.761H317.911L331.478 136.239H336.001L345.045 131.716L360.874 118.555H317.911H299.821H286.254L259.12 114.032L245.553 104.988L195.807 86.8981L173.195 73.3309Z" fill="#00A1E1" stroke="white" stroke-linecap="round" stroke-linejoin="round"/>
<rect x="113" y="78" width="30" height="30" rx="15" fill="#FFFFFF"/>
<rect x="122" y="87" width="12" height="12" rx="6" fill="#00A1E1"/>
<path d="M109.733 143.375C109.399 143.375 109.116 143.267 108.883 143.05C108.666 142.833 108.558 142.55 108.558 142.2V139H108.333C108.133 139.017 107.933 139 107.733 138.95C107.533 138.9 107.374 138.8 107.258 138.65L100.808 130.15H98.0575V137.825C98.0575 138.158 97.9492 138.442 97.7325 138.675C97.5159 138.892 97.2325 139 96.8825 139C96.5492 139 96.2659 138.892 96.0325 138.675C95.8159 138.442 95.7075 138.158 95.7075 137.825V120.65C95.7075 120.3 95.8159 120.017 96.0325 119.8C96.2659 119.583 96.5492 119.475 96.8825 119.475C97.2325 119.475 97.5159 119.583 97.7325 119.8C97.9492 120.017 98.0575 120.3 98.0575 120.65V128.075H100.733L107.483 119.85C107.699 119.6 107.974 119.475 108.308 119.475C108.641 119.458 108.916 119.567 109.133 119.8C109.349 120.05 109.449 120.308 109.433 120.575C109.433 120.825 109.324 121.075 109.108 121.325L102.733 128.925L108.758 136.875H109.733C110.083 136.875 110.366 136.983 110.583 137.2C110.799 137.417 110.908 137.7 110.908 138.05V142.2C110.908 142.55 110.799 142.833 110.583 143.05C110.366 143.267 110.083 143.375 109.733 143.375ZM119.748 139.1C118.415 139.1 117.223 138.808 116.173 138.225C115.14 137.625 114.323 136.808 113.723 135.775C113.14 134.725 112.848 133.525 112.848 132.175C112.848 130.808 113.14 129.608 113.723 128.575C114.323 127.525 115.14 126.708 116.173 126.125C117.223 125.525 118.415 125.225 119.748 125.225C121.082 125.225 122.265 125.525 123.298 126.125C124.348 126.708 125.165 127.525 125.748 128.575C126.348 129.608 126.657 130.808 126.673 132.175C126.673 133.525 126.373 134.725 125.773 135.775C125.173 136.808 124.357 137.625 123.323 138.225C122.29 138.808 121.098 139.1 119.748 139.1ZM119.748 137.05C120.665 137.05 121.473 136.842 122.173 136.425C122.873 136.008 123.423 135.433 123.823 134.7C124.223 133.967 124.423 133.125 124.423 132.175C124.423 131.225 124.223 130.383 123.823 129.65C123.423 128.9 122.873 128.317 122.173 127.9C121.473 127.483 120.665 127.275 119.748 127.275C118.848 127.275 118.04 127.483 117.323 127.9C116.623 128.317 116.073 128.9 115.673 129.65C115.273 130.383 115.073 131.225 115.073 132.175C115.073 133.125 115.273 133.967 115.673 134.7C116.073 135.433 116.623 136.008 117.323 136.425C118.04 136.842 118.848 137.05 119.748 137.05ZM142.018 139C141.685 139 141.41 138.892 141.193 138.675C140.976 138.458 140.868 138.183 140.868 137.85V126.475C140.868 126.125 140.976 125.85 141.193 125.65C141.41 125.433 141.685 125.325 142.018 125.325C142.368 125.325 142.635 125.433 142.818 125.65C143.018 125.85 143.118 126.125 143.118 126.475V137.85C143.118 138.183 143.018 138.458 142.818 138.675C142.635 138.892 142.368 139 142.018 139ZM131.568 139C131.235 139 130.96 138.892 130.743 138.675C130.543 138.458 130.443 138.183 130.443 137.85V126.475C130.443 126.125 130.543 125.85 130.743 125.65C130.96 125.433 131.235 125.325 131.568 125.325C131.901 125.325 132.176 125.433 132.393 125.65C132.61 125.85 132.718 126.125 132.718 126.475V137.85C132.718 138.183 132.61 138.458 132.393 138.675C132.176 138.892 131.901 139 131.568 139ZM132.393 133V130.95H141.568V133H132.393ZM153.431 139.1C152.181 139.1 151.064 138.8 150.081 138.2C149.098 137.6 148.323 136.775 147.756 135.725C147.189 134.675 146.906 133.492 146.906 132.175C146.906 130.842 147.206 129.658 147.806 128.625C148.423 127.575 149.248 126.75 150.281 126.15C151.331 125.533 152.506 125.225 153.806 125.225C155.123 125.225 156.298 125.533 157.331 126.15C158.364 126.75 159.181 127.575 159.781 128.625C160.398 129.675 160.714 130.858 160.731 132.175L159.831 132.4C159.831 133.667 159.548 134.808 158.981 135.825C158.414 136.842 157.648 137.642 156.681 138.225C155.731 138.808 154.648 139.1 153.431 139.1ZM153.806 137.05C154.706 137.05 155.506 136.842 156.206 136.425C156.906 135.992 157.456 135.408 157.856 134.675C158.273 133.925 158.481 133.092 158.481 132.175C158.481 131.242 158.273 130.408 157.856 129.675C157.456 128.925 156.906 128.342 156.206 127.925C155.506 127.492 154.706 127.275 153.806 127.275C152.939 127.275 152.148 127.492 151.431 127.925C150.714 128.342 150.148 128.925 149.731 129.675C149.331 130.408 149.131 131.242 149.131 132.175C149.131 133.092 149.331 133.925 149.731 134.675C150.148 135.408 150.714 135.992 151.431 136.425C152.148 136.842 152.939 137.05 153.806 137.05ZM159.556 139.025C159.223 139.025 158.948 138.917 158.731 138.7C158.514 138.483 158.406 138.208 158.406 137.875V133.875L158.881 131.475L160.731 132.175V137.875C160.731 138.208 160.614 138.483 160.381 138.7C160.164 138.917 159.889 139.025 159.556 139.025ZM170.85 139.1C169.467 139.1 168.242 138.808 167.175 138.225C166.125 137.625 165.3 136.808 164.7 135.775C164.1 134.725 163.8 133.525 163.8 132.175C163.8 130.808 164.084 129.608 164.65 128.575C165.217 127.525 166 126.708 167 126.125C168 125.525 169.159 125.225 170.475 125.225C171.759 125.225 172.867 125.517 173.8 126.1C174.734 126.667 175.45 127.458 175.95 128.475C176.45 129.475 176.7 130.633 176.7 131.95C176.7 132.233 176.6 132.475 176.4 132.675C176.217 132.858 175.967 132.95 175.65 132.95H165.375V131.1H175.675L174.65 131.825C174.634 130.942 174.459 130.15 174.125 129.45C173.792 128.75 173.317 128.2 172.7 127.8C172.084 127.4 171.342 127.2 170.475 127.2C169.525 127.2 168.7 127.417 168 127.85C167.317 128.283 166.792 128.875 166.425 129.625C166.059 130.375 165.875 131.225 165.875 132.175C165.875 133.125 166.084 133.975 166.5 134.725C166.934 135.458 167.517 136.042 168.25 136.475C169 136.908 169.867 137.125 170.85 137.125C171.384 137.125 171.934 137.025 172.5 136.825C173.084 136.625 173.542 136.392 173.875 136.125C174.109 135.942 174.359 135.85 174.625 135.85C174.892 135.833 175.125 135.908 175.325 136.075C175.575 136.308 175.709 136.567 175.725 136.85C175.742 137.117 175.625 137.35 175.375 137.55C174.809 138 174.1 138.375 173.25 138.675C172.417 138.958 171.617 139.1 170.85 139.1ZM181.105 139C180.771 139 180.496 138.892 180.28 138.675C180.063 138.458 179.955 138.183 179.955 137.85V126.45C179.988 126.117 180.105 125.85 180.305 125.65C180.521 125.433 180.788 125.325 181.105 125.325C181.455 125.325 181.73 125.433 181.93 125.65C182.146 125.85 182.255 126.125 182.255 126.475V130.95H187.28V131.4C188.18 131.4 188.971 131.558 189.655 131.875C190.355 132.192 190.896 132.633 191.28 133.2C191.68 133.75 191.88 134.392 191.88 135.125C191.88 135.875 191.68 136.542 191.28 137.125C190.896 137.708 190.355 138.167 189.655 138.5C188.971 138.833 188.18 139 187.28 139H181.105ZM182.255 136.85H187.28C187.98 136.85 188.546 136.683 188.98 136.35C189.43 136 189.655 135.525 189.655 134.925C189.655 134.292 189.43 133.792 188.98 133.425C188.546 133.058 187.98 132.875 187.28 132.875H182.255V136.85ZM185.105 132.2V130.95H187.53C188.013 130.95 188.405 130.783 188.705 130.45C189.005 130.1 189.155 129.65 189.155 129.1C189.155 128.633 188.98 128.242 188.63 127.925C188.296 127.608 187.863 127.45 187.33 127.45H181.13V125.325H187.33C188.113 125.325 188.805 125.483 189.405 125.8C190.005 126.1 190.48 126.525 190.83 127.075C191.18 127.608 191.355 128.225 191.355 128.925C191.355 129.925 190.988 130.725 190.255 131.325C189.538 131.908 188.63 132.2 187.53 132.2H185.105Z" fill="#FFFFFF"/>
</svg>
