<svg viewBox="0 0 457 536" fill="none" xmlns="http://www.w3.org/2000/svg">
<path d="M431.177 527.151L436.203 527.793L444.36 512.927L442.074 505.404L433.03 496.359L431.177 476.034L433.03 464.702V451.135L439.238 429.914L446.597 414.956L451.119 405.911L446.597 396.867L439.238 388.362L437.552 378.777L423.985 358.561L414.94 347.12L428.507 338.075L439.238 324.508H451.119L455.642 315.463L446.597 306.419L437.552 301.896V292.852L428.507 283.807L414.94 270.24L401.373 279.284L392.328 275.809L378.761 270.24L365.194 265.717L360.671 256.672L365.194 247.628L378.761 252.15L392.328 234.06L401.373 225.016V215.971V203.32L392.328 193.765L383.283 184.85L387.806 170.747L347.104 35.0753L270.224 24.1749L261.179 1.44629H234.754L195.756 24.1749L130.03 13.7384L64.0727 3.82419H44.1042L26.0146 1.44629L0.6875 13.7384L14.0132 26.0305L60.6582 69.0574L64.0727 106.103L74.2091 133.771L102.48 160.238L144.471 166.169L176.968 184.85L195.756 203.32L210.887 222.612L209.348 252.092L200.666 275.809L151.995 358.561L168.159 365.462L183.543 369.17L191.056 366.178L197.093 374.08L214.216 374.144L230.296 383.279L217.336 402.075L205.281 427.973L208.495 439.963L210.055 448.298L212.615 454.767L218.294 464.502L234.754 477.946L257.008 487.25L272.856 501.158L259.779 510.724L296.217 516.056L302.571 521.977L302.623 522.03L312.528 521.24L319.989 522.304L334.983 526.708L339.282 526.992L351.769 522.746L356.742 522.662L370.714 526.076H388.038L404.455 531.133L406.488 530.817L410.271 529.068L412.557 528.952L414.528 530.196L416.657 534.357L418.49 535.327L421.925 534.262L427.626 528.699L431.177 527.151Z" fill="#00A1E1" stroke="white" stroke-linecap="round" stroke-linejoin="round"/>
<rect x="287" y="338" width="30" height="30" rx="15" fill="#FFFFFF"/>
<rect x="296" y="347" width="12" height="12" rx="6" fill="#00A1E1"/>
<path d="M192.277 322.7C192.027 322.45 191.91 322.2 191.927 321.95C191.96 321.683 192.069 321.417 192.252 321.15L198.502 312.925L192.952 305.325C192.752 305.058 192.644 304.8 192.627 304.55C192.61 304.283 192.71 304.033 192.927 303.8C193.144 303.567 193.419 303.45 193.752 303.45C194.085 303.45 194.352 303.583 194.552 303.85L201.227 313.05L193.952 322.65C193.769 322.883 193.494 323 193.127 323C192.777 323.017 192.494 322.917 192.277 322.7ZM204.177 323C203.86 323 203.585 322.892 203.352 322.675C203.119 322.442 203.002 322.158 203.002 321.825V314.15H199.027V312.075H203.002V304.65C203.002 304.3 203.119 304.017 203.352 303.8C203.585 303.583 203.86 303.475 204.177 303.475C204.527 303.475 204.81 303.583 205.027 303.8C205.244 304.017 205.352 304.3 205.352 304.65V312.075H209.352V314.15H205.352V321.825C205.352 322.158 205.244 322.442 205.027 322.675C204.81 322.892 204.527 323 204.177 323ZM216.202 322.7C215.985 322.917 215.694 323.017 215.327 323C214.96 323 214.685 322.883 214.502 322.65L207.152 313.05L213.927 303.85C214.127 303.583 214.394 303.45 214.727 303.45C215.06 303.45 215.327 303.567 215.527 303.8C215.744 304.033 215.844 304.283 215.827 304.55C215.81 304.8 215.71 305.058 215.527 305.325L209.877 312.925L216.202 321.15C216.402 321.417 216.51 321.683 216.527 321.95C216.56 322.2 216.452 322.45 216.202 322.7ZM224.053 323.1C222.803 323.1 221.686 322.8 220.703 322.2C219.719 321.6 218.944 320.775 218.378 319.725C217.811 318.675 217.528 317.492 217.528 316.175C217.528 314.842 217.828 313.658 218.428 312.625C219.044 311.575 219.869 310.75 220.903 310.15C221.953 309.533 223.128 309.225 224.428 309.225C225.744 309.225 226.919 309.533 227.953 310.15C228.986 310.75 229.803 311.575 230.403 312.625C231.019 313.675 231.336 314.858 231.353 316.175L230.453 316.4C230.453 317.667 230.169 318.808 229.603 319.825C229.036 320.842 228.269 321.642 227.303 322.225C226.353 322.808 225.269 323.1 224.053 323.1ZM224.428 321.05C225.328 321.05 226.128 320.842 226.828 320.425C227.528 319.992 228.078 319.408 228.478 318.675C228.894 317.925 229.103 317.092 229.103 316.175C229.103 315.242 228.894 314.408 228.478 313.675C228.078 312.925 227.528 312.342 226.828 311.925C226.128 311.492 225.328 311.275 224.428 311.275C223.561 311.275 222.769 311.492 222.053 311.925C221.336 312.342 220.769 312.925 220.353 313.675C219.953 314.408 219.753 315.242 219.753 316.175C219.753 317.092 219.953 317.925 220.353 318.675C220.769 319.408 221.336 319.992 222.053 320.425C222.769 320.842 223.561 321.05 224.428 321.05ZM230.178 323.025C229.844 323.025 229.569 322.917 229.353 322.7C229.136 322.483 229.028 322.208 229.028 321.875V317.875L229.503 315.475L231.353 316.175V321.875C231.353 322.208 231.236 322.483 231.003 322.7C230.786 322.917 230.511 323.025 230.178 323.025ZM236.272 323C235.939 323 235.664 322.892 235.447 322.675C235.23 322.458 235.122 322.183 235.122 321.85V310.475C235.122 310.125 235.23 309.85 235.447 309.65C235.664 309.433 235.939 309.325 236.272 309.325C236.772 309.325 237.189 309.558 237.522 310.025L242.822 317.7L248.147 310.025C248.464 309.558 248.872 309.325 249.372 309.325C249.722 309.325 249.997 309.433 250.197 309.65C250.414 309.85 250.522 310.125 250.522 310.475V321.85C250.522 322.183 250.414 322.458 250.197 322.675C249.997 322.892 249.722 323 249.372 323C249.022 323 248.739 322.892 248.522 322.675C248.322 322.458 248.222 322.183 248.222 321.85V312.2L248.872 312.4L243.972 319.375C243.605 319.892 243.205 320.15 242.772 320.15C242.355 320.133 241.972 319.875 241.622 319.375L236.772 312.45L237.422 312.25V321.85C237.422 322.183 237.314 322.458 237.097 322.675C236.897 322.892 236.622 323 236.272 323ZM261.22 323.1C259.886 323.1 258.703 322.817 257.67 322.25C256.653 321.683 255.853 320.9 255.27 319.9C254.703 318.883 254.411 317.733 254.395 316.45H255.545C255.545 315.2 255.803 314.108 256.32 313.175C256.836 312.242 257.553 311.508 258.47 310.975C259.386 310.425 260.428 310.15 261.595 310.15C262.828 310.15 263.911 310.425 264.845 310.975C265.795 311.525 266.536 312.283 267.07 313.25C267.603 314.217 267.87 315.333 267.87 316.6C267.87 317.867 267.586 318.992 267.02 319.975C266.453 320.958 265.67 321.725 264.67 322.275C263.67 322.825 262.52 323.1 261.22 323.1ZM261.22 321.05C262.086 321.05 262.853 320.867 263.52 320.5C264.186 320.117 264.703 319.592 265.07 318.925C265.453 318.258 265.645 317.483 265.645 316.6C265.645 315.75 265.453 315 265.07 314.35C264.703 313.683 264.186 313.167 263.52 312.8C262.853 312.417 262.086 312.225 261.22 312.225C260.32 312.225 259.52 312.417 258.82 312.8C258.136 313.167 257.603 313.683 257.22 314.35C256.836 315 256.645 315.75 256.645 316.6C256.645 317.483 256.836 318.258 257.22 318.925C257.603 319.592 258.136 320.117 258.82 320.5C259.52 320.867 260.32 321.05 261.22 321.05ZM254.395 316.475L254.42 313.95C254.436 311.883 254.995 310.008 256.095 308.325C257.211 306.642 258.936 305.308 261.27 304.325L265.57 302.475C265.886 302.358 266.161 302.35 266.395 302.45C266.628 302.533 266.803 302.708 266.92 302.975C267.02 303.275 267.036 303.55 266.97 303.8C266.92 304.033 266.695 304.233 266.295 304.4L261.67 306.45C260.386 306.983 259.345 307.642 258.545 308.425C257.745 309.208 257.153 310.092 256.77 311.075C256.403 312.042 256.211 313.083 256.195 314.2L256.17 316.475H254.395ZM277.296 323.25C276.196 323.25 275.221 323.025 274.371 322.575C273.521 322.108 272.854 321.475 272.371 320.675C271.887 319.858 271.646 318.933 271.646 317.9V310.45C271.679 310.117 271.796 309.85 271.996 309.65C272.212 309.433 272.479 309.325 272.796 309.325C273.146 309.325 273.421 309.433 273.621 309.65C273.837 309.85 273.946 310.125 273.946 310.475V313.575H277.496C278.512 313.575 279.421 313.758 280.221 314.125C281.021 314.492 281.646 315.025 282.096 315.725C282.546 316.425 282.771 317.267 282.771 318.25C282.771 319.3 282.537 320.2 282.071 320.95C281.604 321.683 280.954 322.25 280.121 322.65C279.304 323.05 278.362 323.25 277.296 323.25ZM277.296 321.1C278.246 321.1 279.021 320.867 279.621 320.4C280.237 319.917 280.546 319.2 280.546 318.25C280.546 317.333 280.254 316.658 279.671 316.225C279.104 315.775 278.379 315.55 277.496 315.55H273.946V317.85C273.946 318.8 274.254 319.583 274.871 320.2C275.504 320.8 276.312 321.1 277.296 321.1ZM286.096 323C285.762 323 285.487 322.892 285.271 322.675C285.054 322.458 284.946 322.183 284.946 321.85V310.475C284.946 310.125 285.054 309.85 285.271 309.65C285.487 309.433 285.762 309.325 286.096 309.325C286.446 309.325 286.721 309.433 286.921 309.65C287.137 309.85 287.246 310.125 287.246 310.475V321.85C287.246 322.183 287.137 322.458 286.921 322.675C286.721 322.892 286.446 323 286.096 323ZM296.863 309.35C297.08 309.35 297.28 309.408 297.463 309.525C297.663 309.642 297.822 309.833 297.938 310.1L303.188 321.525C303.322 321.808 303.33 322.075 303.213 322.325C303.113 322.558 302.93 322.742 302.663 322.875C302.347 323.008 302.063 323.042 301.813 322.975C301.563 322.892 301.355 322.7 301.188 322.4L296.313 311.4H297.513L292.513 322.375C292.38 322.675 292.172 322.867 291.888 322.95C291.622 323.033 291.33 323 291.013 322.85C290.73 322.717 290.53 322.533 290.413 322.3C290.313 322.067 290.33 321.8 290.463 321.5L295.763 310.1C295.997 309.6 296.363 309.35 296.863 309.35ZM319.56 323.1C318.31 323.1 317.194 322.8 316.21 322.2C315.227 321.6 314.452 320.775 313.885 319.725C313.319 318.675 313.035 317.492 313.035 316.175C313.035 314.842 313.335 313.658 313.935 312.625C314.552 311.575 315.377 310.75 316.41 310.15C317.46 309.533 318.635 309.225 319.935 309.225C321.252 309.225 322.427 309.533 323.46 310.15C324.494 310.75 325.31 311.575 325.91 312.625C326.527 313.675 326.844 314.858 326.86 316.175L325.96 316.4C325.96 317.667 325.677 318.808 325.11 319.825C324.544 320.842 323.777 321.642 322.81 322.225C321.86 322.808 320.777 323.1 319.56 323.1ZM319.935 321.05C320.835 321.05 321.635 320.842 322.335 320.425C323.035 319.992 323.585 319.408 323.985 318.675C324.402 317.925 324.61 317.092 324.61 316.175C324.61 315.242 324.402 314.408 323.985 313.675C323.585 312.925 323.035 312.342 322.335 311.925C321.635 311.492 320.835 311.275 319.935 311.275C319.069 311.275 318.277 311.492 317.56 311.925C316.844 312.342 316.277 312.925 315.86 313.675C315.46 314.408 315.26 315.242 315.26 316.175C315.26 317.092 315.46 317.925 315.86 318.675C316.277 319.408 316.844 319.992 317.56 320.425C318.277 320.842 319.069 321.05 319.935 321.05ZM325.685 323.025C325.352 323.025 325.077 322.917 324.86 322.7C324.644 322.483 324.535 322.208 324.535 321.875V317.875L325.01 315.475L326.86 316.175V321.875C326.86 322.208 326.744 322.483 326.51 322.7C326.294 322.917 326.019 323.025 325.685 323.025ZM329.648 329C329.331 329 329.006 328.95 328.673 328.85C328.34 328.767 328.015 328.633 327.698 328.45C327.365 328.25 327.148 328 327.048 327.7C326.948 327.417 327.006 327.133 327.223 326.85C327.406 326.6 327.631 326.45 327.898 326.4C328.165 326.367 328.448 326.433 328.748 326.6C328.931 326.7 329.106 326.775 329.273 326.825C329.44 326.875 329.615 326.9 329.798 326.9C330.348 326.9 330.873 326.633 331.373 326.1C331.873 325.567 332.348 324.783 332.798 323.75L338.873 309.9C339.006 309.6 339.215 309.4 339.498 309.3C339.781 309.2 340.065 309.217 340.348 309.35C340.615 309.45 340.79 309.642 340.873 309.925C340.956 310.208 340.923 310.508 340.773 310.825L334.648 324.65C334.081 325.95 333.356 327 332.473 327.8C331.59 328.6 330.648 329 329.648 329ZM335.173 322.5C334.873 322.633 334.598 322.65 334.348 322.55C334.098 322.45 333.898 322.258 333.748 321.975L328.073 310.825C327.923 310.542 327.898 310.267 327.998 310C328.115 309.733 328.323 309.542 328.623 309.425C328.906 309.292 329.173 309.275 329.423 309.375C329.69 309.458 329.89 309.65 330.023 309.95L335.523 321C335.673 321.3 335.723 321.592 335.673 321.875C335.623 322.158 335.456 322.367 335.173 322.5ZM349.028 323.1C347.745 323.1 346.611 322.808 345.628 322.225C344.661 321.625 343.895 320.808 343.328 319.775C342.778 318.725 342.503 317.525 342.503 316.175C342.503 314.808 342.795 313.608 343.378 312.575C343.978 311.525 344.795 310.708 345.828 310.125C346.878 309.525 348.07 309.225 349.403 309.225C350.753 309.225 351.945 309.525 352.978 310.125C354.011 310.708 354.82 311.525 355.403 312.575C356.003 313.608 356.311 314.808 356.328 316.175L354.978 316.4C354.978 317.717 354.72 318.883 354.203 319.9C353.703 320.9 353.003 321.683 352.103 322.25C351.203 322.817 350.178 323.1 349.028 323.1ZM349.403 328.575C348.17 328.575 347.036 328.333 346.003 327.85C344.986 327.383 344.136 326.708 343.453 325.825C343.253 325.575 343.17 325.308 343.203 325.025C343.253 324.758 343.403 324.542 343.653 324.375C343.92 324.192 344.203 324.125 344.503 324.175C344.803 324.242 345.045 324.392 345.228 324.625C345.695 325.208 346.278 325.667 346.978 326C347.695 326.333 348.52 326.5 349.453 326.5C350.303 326.5 351.078 326.292 351.778 325.875C352.478 325.475 353.036 324.883 353.453 324.1C353.87 323.333 354.078 322.408 354.078 321.325V317.675L354.853 315.775L356.328 316.175V321.45C356.328 322.783 356.028 323.983 355.428 325.05C354.845 326.133 354.028 326.992 352.978 327.625C351.945 328.258 350.753 328.575 349.403 328.575ZM349.403 321.05C350.32 321.05 351.128 320.842 351.828 320.425C352.528 320.008 353.078 319.433 353.478 318.7C353.878 317.967 354.078 317.125 354.078 316.175C354.078 315.225 353.878 314.383 353.478 313.65C353.078 312.9 352.528 312.317 351.828 311.9C351.128 311.483 350.32 311.275 349.403 311.275C348.503 311.275 347.695 311.483 346.978 311.9C346.278 312.317 345.728 312.9 345.328 313.65C344.928 314.383 344.728 315.225 344.728 316.175C344.728 317.125 344.928 317.967 345.328 318.7C345.728 319.433 346.278 320.008 346.978 320.425C347.695 320.842 348.503 321.05 349.403 321.05ZM365.923 323.1C364.673 323.1 363.556 322.8 362.573 322.2C361.589 321.6 360.814 320.775 360.248 319.725C359.681 318.675 359.398 317.492 359.398 316.175C359.398 314.842 359.698 313.658 360.298 312.625C360.914 311.575 361.739 310.75 362.773 310.15C363.823 309.533 364.998 309.225 366.298 309.225C367.614 309.225 368.789 309.533 369.823 310.15C370.856 310.75 371.673 311.575 372.273 312.625C372.889 313.675 373.206 314.858 373.223 316.175L372.323 316.4C372.323 317.667 372.039 318.808 371.473 319.825C370.906 320.842 370.139 321.642 369.173 322.225C368.223 322.808 367.139 323.1 365.923 323.1ZM366.298 321.05C367.198 321.05 367.998 320.842 368.698 320.425C369.398 319.992 369.948 319.408 370.348 318.675C370.764 317.925 370.973 317.092 370.973 316.175C370.973 315.242 370.764 314.408 370.348 313.675C369.948 312.925 369.398 312.342 368.698 311.925C367.998 311.492 367.198 311.275 366.298 311.275C365.431 311.275 364.639 311.492 363.923 311.925C363.206 312.342 362.639 312.925 362.223 313.675C361.823 314.408 361.623 315.242 361.623 316.175C361.623 317.092 361.823 317.925 362.223 318.675C362.639 319.408 363.206 319.992 363.923 320.425C364.639 320.842 365.431 321.05 366.298 321.05ZM372.048 323.025C371.714 323.025 371.439 322.917 371.223 322.7C371.006 322.483 370.898 322.208 370.898 321.875V317.875L371.373 315.475L373.223 316.175V321.875C373.223 322.208 373.106 322.483 372.873 322.7C372.656 322.917 372.381 323.025 372.048 323.025ZM388.567 323C388.234 323 387.959 322.892 387.742 322.675C387.526 322.458 387.417 322.183 387.417 321.85V310.475C387.417 310.125 387.526 309.85 387.742 309.65C387.959 309.433 388.234 309.325 388.567 309.325C388.917 309.325 389.184 309.433 389.367 309.65C389.567 309.85 389.667 310.125 389.667 310.475V321.85C389.667 322.183 389.567 322.458 389.367 322.675C389.184 322.892 388.917 323 388.567 323ZM378.117 323C377.784 323 377.509 322.892 377.292 322.675C377.092 322.458 376.992 322.183 376.992 321.85V310.475C376.992 310.125 377.092 309.85 377.292 309.65C377.509 309.433 377.784 309.325 378.117 309.325C378.451 309.325 378.726 309.433 378.942 309.65C379.159 309.85 379.267 310.125 379.267 310.475V321.85C379.267 322.183 379.159 322.458 378.942 322.675C378.726 322.892 378.451 323 378.117 323ZM378.942 317V314.95H388.117V317H378.942ZM399.805 323.25C398.705 323.25 397.73 323.025 396.88 322.575C396.03 322.108 395.364 321.475 394.88 320.675C394.397 319.858 394.155 318.933 394.155 317.9V310.45C394.189 310.117 394.305 309.85 394.505 309.65C394.722 309.433 394.989 309.325 395.305 309.325C395.655 309.325 395.93 309.433 396.13 309.65C396.347 309.85 396.455 310.125 396.455 310.475V313.575H400.005C401.022 313.575 401.93 313.758 402.73 314.125C403.53 314.492 404.155 315.025 404.605 315.725C405.055 316.425 405.28 317.267 405.28 318.25C405.28 319.3 405.047 320.2 404.58 320.95C404.114 321.683 403.464 322.25 402.63 322.65C401.814 323.05 400.872 323.25 399.805 323.25ZM399.805 321.1C400.755 321.1 401.53 320.867 402.13 320.4C402.747 319.917 403.055 319.2 403.055 318.25C403.055 317.333 402.764 316.658 402.18 316.225C401.614 315.775 400.889 315.55 400.005 315.55H396.455V317.85C396.455 318.8 396.764 319.583 397.38 320.2C398.014 320.8 398.822 321.1 399.805 321.1ZM408.605 323C408.272 323 407.997 322.892 407.78 322.675C407.564 322.458 407.455 322.183 407.455 321.85V310.475C407.455 310.125 407.564 309.85 407.78 309.65C407.997 309.433 408.272 309.325 408.605 309.325C408.955 309.325 409.23 309.433 409.43 309.65C409.647 309.85 409.755 310.125 409.755 310.475V321.85C409.755 322.183 409.647 322.458 409.43 322.675C409.23 322.892 408.955 323 408.605 323Z" fill="#FFFFFF"/>
</svg>
