<svg viewBox="0 0 161 197" fill="none" xmlns="http://www.w3.org/2000/svg">
<path d="M156.844 191.919L160.226 191.95V164.082L159.776 160.736L156.844 138.959V127.627L147.645 123.104L145.716 118.582L141.194 123.104L132.149 118.582L123.105 114.06L114.06 109.537L109.537 114.06L100.493 109.537H91.4478L86.9254 100.493V91.4478V77.8806V68.8358H95.9702L105.015 64.3134L95.9702 41.7015L88.4154 28.1343L76.8769 37.0049L69.4165 51.2863L59.7911 55.2687L50.7463 46.2239L46.2239 32.6567L28.1343 14.5671L14.5672 1L1 10.0447L10.0448 21.4852L23.6119 41.7015L25.2978 51.2863L32.6567 59.7911L37.1791 68.8358L32.6567 77.8806L25.2978 92.8381L19.0896 114.06V127.627L17.2368 138.959L19.0896 159.284L28.1343 168.328L30.4202 175.851L22.2629 190.718L32.1678 194.943L37.1837 195.828L41.1666 194.869L48.5004 191.592L56.9827 191.803L60.6287 190.939L67.952 186.988L68.7424 186.029L68.9849 184.86L69.4165 183.901L70.8391 183.564L74.3165 184.28L75.4022 184.185L76.8769 183.3L80.9235 178.517L84.6112 175.851L88.4154 175.23L96.8553 175.124L104.431 172.132L108.162 171.489L111.892 173.133L133.557 176.789L140.068 179.191L142.176 181.056L147.645 188.79L150.5 191.076L153.64 191.887L156.844 191.919Z" fill="#00A1E1" stroke="white" stroke-linecap="round" stroke-linejoin="round"/>
<rect x="33.0586" y="91.9248" width="30" height="30" rx="15" fill="#FFFFFF"/>
<rect x="42.0586" y="100.925" width="12" height="12" rx="6" fill="#00A1E1"/>
<path d="M47.4348 146.425C47.1682 146.425 46.9415 146.338 46.7548 146.165C46.5815 145.991 46.4948 145.765 46.4948 145.485V142.925H46.3148C46.1548 142.938 45.9948 142.925 45.8348 142.885C45.6748 142.845 45.5482 142.765 45.4548 142.645L40.2948 135.845H38.0948V141.985C38.0948 142.251 38.0082 142.478 37.8348 142.665C37.6615 142.838 37.4348 142.925 37.1548 142.925C36.8882 142.925 36.6615 142.838 36.4748 142.665C36.3015 142.478 36.2148 142.251 36.2148 141.985V128.245C36.2148 127.965 36.3015 127.738 36.4748 127.565C36.6615 127.391 36.8882 127.305 37.1548 127.305C37.4348 127.305 37.6615 127.391 37.8348 127.565C38.0082 127.738 38.0948 127.965 38.0948 128.245V134.185H40.2348L45.6348 127.605C45.8082 127.405 46.0282 127.305 46.2948 127.305C46.5615 127.291 46.7815 127.378 46.9548 127.565C47.1282 127.765 47.2082 127.971 47.1948 128.185C47.1948 128.385 47.1082 128.585 46.9348 128.785L41.8348 134.865L46.6548 141.225H47.4348C47.7148 141.225 47.9415 141.311 48.1148 141.485C48.2882 141.658 48.3748 141.885 48.3748 142.165V145.485C48.3748 145.765 48.2882 145.991 48.1148 146.165C47.9415 146.338 47.7148 146.425 47.4348 146.425ZM55.1475 143.005C54.1475 143.005 53.2542 142.765 52.4675 142.285C51.6808 141.805 51.0608 141.145 50.6075 140.305C50.1542 139.465 49.9275 138.518 49.9275 137.465C49.9275 136.398 50.1675 135.451 50.6475 134.625C51.1408 133.785 51.8008 133.125 52.6275 132.645C53.4675 132.151 54.4075 131.905 55.4475 131.905C56.5008 131.905 57.4408 132.151 58.2675 132.645C59.0942 133.125 59.7475 133.785 60.2275 134.625C60.7208 135.465 60.9742 136.411 60.9875 137.465L60.2675 137.645C60.2675 138.658 60.0408 139.571 59.5875 140.385C59.1342 141.198 58.5208 141.838 57.7475 142.305C56.9875 142.771 56.1208 143.005 55.1475 143.005ZM55.4475 141.365C56.1675 141.365 56.8075 141.198 57.3675 140.865C57.9275 140.518 58.3675 140.051 58.6875 139.465C59.0208 138.865 59.1875 138.198 59.1875 137.465C59.1875 136.718 59.0208 136.051 58.6875 135.465C58.3675 134.865 57.9275 134.398 57.3675 134.065C56.8075 133.718 56.1675 133.545 55.4475 133.545C54.7542 133.545 54.1208 133.718 53.5475 134.065C52.9742 134.398 52.5208 134.865 52.1875 135.465C51.8675 136.051 51.7075 136.718 51.7075 137.465C51.7075 138.198 51.8675 138.865 52.1875 139.465C52.5208 140.051 52.9742 140.518 53.5475 140.865C54.1208 141.198 54.7542 141.365 55.4475 141.365ZM60.0475 142.945C59.7808 142.945 59.5608 142.858 59.3875 142.685C59.2142 142.511 59.1275 142.291 59.1275 142.025V138.825L59.5075 136.905L60.9875 137.465V142.025C60.9875 142.291 60.8942 142.511 60.7075 142.685C60.5342 142.858 60.3142 142.945 60.0475 142.945ZM64.9231 147.605C64.6565 147.605 64.4365 147.518 64.2631 147.345C64.0898 147.171 64.0031 146.951 64.0031 146.685V137.425C64.0165 136.385 64.2631 135.445 64.7431 134.605C65.2365 133.765 65.8965 133.105 66.7231 132.625C67.5498 132.145 68.4831 131.905 69.5231 131.905C70.5765 131.905 71.5165 132.151 72.3431 132.645C73.1831 133.125 73.8431 133.785 74.3231 134.625C74.8165 135.451 75.0631 136.398 75.0631 137.465C75.0631 138.518 74.8298 139.465 74.3631 140.305C73.9098 141.145 73.2898 141.805 72.5031 142.285C71.7165 142.765 70.8298 143.005 69.8431 143.005C69.0031 143.005 68.2431 142.831 67.5631 142.485C66.8831 142.138 66.3098 141.671 65.8431 141.085V146.685C65.8431 146.951 65.7565 147.171 65.5831 147.345C65.4231 147.518 65.2031 147.605 64.9231 147.605ZM69.5231 141.365C70.2298 141.365 70.8631 141.198 71.4231 140.865C71.9965 140.518 72.4431 140.051 72.7631 139.465C73.0965 138.865 73.2631 138.198 73.2631 137.465C73.2631 136.718 73.0965 136.051 72.7631 135.465C72.4431 134.865 71.9965 134.398 71.4231 134.065C70.8631 133.718 70.2298 133.545 69.5231 133.545C68.8165 133.545 68.1765 133.718 67.6031 134.065C67.0431 134.411 66.6031 134.878 66.2831 135.465C65.9631 136.051 65.8031 136.718 65.8031 137.465C65.8031 138.198 65.9631 138.865 66.2831 139.465C66.6031 140.051 67.0431 140.518 67.6031 140.865C68.1765 141.198 68.8165 141.365 69.5231 141.365ZM82.7647 143.005C81.7647 143.005 80.8714 142.765 80.0847 142.285C79.298 141.805 78.678 141.145 78.2247 140.305C77.7714 139.465 77.5447 138.518 77.5447 137.465C77.5447 136.398 77.7847 135.451 78.2647 134.625C78.758 133.785 79.418 133.125 80.2447 132.645C81.0847 132.151 82.0247 131.905 83.0647 131.905C84.118 131.905 85.058 132.151 85.8847 132.645C86.7114 133.125 87.3647 133.785 87.8447 134.625C88.338 135.465 88.5914 136.411 88.6047 137.465L87.8847 137.645C87.8847 138.658 87.658 139.571 87.2047 140.385C86.7514 141.198 86.138 141.838 85.3647 142.305C84.6047 142.771 83.738 143.005 82.7647 143.005ZM83.0647 141.365C83.7847 141.365 84.4247 141.198 84.9847 140.865C85.5447 140.518 85.9847 140.051 86.3047 139.465C86.638 138.865 86.8047 138.198 86.8047 137.465C86.8047 136.718 86.638 136.051 86.3047 135.465C85.9847 134.865 85.5447 134.398 84.9847 134.065C84.4247 133.718 83.7847 133.545 83.0647 133.545C82.3714 133.545 81.738 133.718 81.1647 134.065C80.5914 134.398 80.138 134.865 79.8047 135.465C79.4847 136.051 79.3247 136.718 79.3247 137.465C79.3247 138.198 79.4847 138.865 79.8047 139.465C80.138 140.051 80.5914 140.518 81.1647 140.865C81.738 141.198 82.3714 141.365 83.0647 141.365ZM87.6647 142.945C87.398 142.945 87.178 142.858 87.0047 142.685C86.8314 142.511 86.7447 142.291 86.7447 142.025V138.825L87.1247 136.905L88.6047 137.465V142.025C88.6047 142.291 88.5114 142.511 88.3247 142.685C88.1514 142.858 87.9314 142.945 87.6647 142.945ZM96.5403 143.005C95.487 143.005 94.547 142.765 93.7203 142.285C92.8936 141.791 92.2403 141.131 91.7603 140.305C91.2936 139.465 91.0603 138.518 91.0603 137.465C91.0603 136.385 91.287 135.425 91.7403 134.585C92.207 133.745 92.8403 133.091 93.6403 132.625C94.4403 132.145 95.367 131.905 96.4203 131.905C97.207 131.905 97.9336 132.058 98.6003 132.365C99.267 132.671 99.8603 133.131 100.38 133.745C100.554 133.931 100.614 134.131 100.56 134.345C100.52 134.558 100.387 134.745 100.16 134.905C100 135.025 99.8136 135.065 99.6003 135.025C99.387 134.985 99.2003 134.871 99.0403 134.685C98.3336 133.925 97.4603 133.545 96.4203 133.545C95.7136 133.545 95.087 133.711 94.5403 134.045C94.007 134.378 93.587 134.838 93.2803 135.425C92.987 135.998 92.8403 136.678 92.8403 137.465C92.8403 138.211 92.9936 138.878 93.3003 139.465C93.6203 140.051 94.0603 140.518 94.6203 140.865C95.1803 141.198 95.8203 141.365 96.5403 141.365C97.0336 141.365 97.4736 141.305 97.8603 141.185C98.247 141.065 98.5936 140.871 98.9003 140.605C99.087 140.445 99.2803 140.358 99.4803 140.345C99.6936 140.331 99.8803 140.391 100.04 140.525C100.24 140.698 100.354 140.891 100.38 141.105C100.407 141.318 100.334 141.505 100.16 141.665C99.2003 142.558 97.9936 143.005 96.5403 143.005ZM108.253 143.005C107.253 143.005 106.36 142.765 105.573 142.285C104.786 141.805 104.166 141.145 103.713 140.305C103.26 139.465 103.033 138.518 103.033 137.465C103.033 136.398 103.273 135.451 103.753 134.625C104.246 133.785 104.906 133.125 105.733 132.645C106.573 132.151 107.513 131.905 108.553 131.905C109.606 131.905 110.546 132.151 111.373 132.645C112.2 133.125 112.853 133.785 113.333 134.625C113.826 135.465 114.08 136.411 114.093 137.465L113.373 137.645C113.373 138.658 113.146 139.571 112.693 140.385C112.24 141.198 111.626 141.838 110.853 142.305C110.093 142.771 109.226 143.005 108.253 143.005ZM108.553 141.365C109.273 141.365 109.913 141.198 110.473 140.865C111.033 140.518 111.473 140.051 111.793 139.465C112.126 138.865 112.293 138.198 112.293 137.465C112.293 136.718 112.126 136.051 111.793 135.465C111.473 134.865 111.033 134.398 110.473 134.065C109.913 133.718 109.273 133.545 108.553 133.545C107.86 133.545 107.226 133.718 106.653 134.065C106.08 134.398 105.626 134.865 105.293 135.465C104.973 136.051 104.813 136.718 104.813 137.465C104.813 138.198 104.973 138.865 105.293 139.465C105.626 140.051 106.08 140.518 106.653 140.865C107.226 141.198 107.86 141.365 108.553 141.365ZM113.153 142.945C112.886 142.945 112.666 142.858 112.493 142.685C112.32 142.511 112.233 142.291 112.233 142.025V138.825L112.613 136.905L114.093 137.465V142.025C114.093 142.291 114 142.511 113.813 142.685C113.64 142.858 113.42 142.945 113.153 142.945ZM121.769 143.025C120.835 143.025 120.002 142.831 119.269 142.445C118.535 142.045 117.955 141.465 117.529 140.705C117.102 139.945 116.889 139.018 116.889 137.925V132.885C116.889 132.631 116.975 132.418 117.149 132.245C117.335 132.058 117.555 131.965 117.809 131.965C118.075 131.965 118.295 132.058 118.469 132.245C118.655 132.418 118.749 132.631 118.749 132.885V137.925C118.749 138.698 118.895 139.338 119.189 139.845C119.482 140.351 119.875 140.731 120.369 140.985C120.875 141.225 121.442 141.345 122.069 141.345C122.682 141.345 123.222 141.225 123.689 140.985C124.169 140.745 124.549 140.425 124.829 140.025C125.122 139.611 125.269 139.151 125.269 138.645H126.469C126.442 139.471 126.222 140.218 125.809 140.885C125.409 141.551 124.855 142.078 124.149 142.465C123.442 142.838 122.649 143.025 121.769 143.025ZM126.189 142.925C125.922 142.925 125.702 142.838 125.529 142.665C125.355 142.491 125.269 142.271 125.269 142.005V132.885C125.269 132.618 125.355 132.398 125.529 132.225C125.702 132.051 125.922 131.965 126.189 131.965C126.455 131.965 126.675 132.051 126.849 132.225C127.022 132.398 127.109 132.618 127.109 132.885V142.005C127.109 142.271 127.022 142.491 126.849 142.665C126.675 142.838 126.455 142.925 126.189 142.925ZM122.129 130.545C121.449 130.545 120.842 130.431 120.309 130.205C119.775 129.978 119.349 129.665 119.029 129.265C118.722 128.865 118.569 128.418 118.569 127.925C118.569 127.671 118.649 127.458 118.809 127.285C118.969 127.111 119.169 127.025 119.409 127.025C119.649 127.025 119.842 127.111 119.989 127.285C120.149 127.458 120.229 127.678 120.229 127.945C120.229 128.291 120.409 128.585 120.769 128.825C121.129 129.051 121.575 129.165 122.109 129.165C122.655 129.165 123.109 129.051 123.469 128.825C123.829 128.585 124.009 128.291 124.009 127.945C124.009 127.678 124.089 127.458 124.249 127.285C124.409 127.111 124.609 127.025 124.849 127.025C125.089 127.025 125.282 127.111 125.429 127.285C125.589 127.458 125.669 127.671 125.669 127.925C125.669 128.418 125.509 128.865 125.189 129.265C124.882 129.665 124.462 129.978 123.929 130.205C123.395 130.431 122.795 130.545 122.129 130.545ZM47.8135 165.005C46.8135 165.005 45.9202 164.765 45.1335 164.285C44.3468 163.805 43.7268 163.145 43.2735 162.305C42.8202 161.465 42.5935 160.518 42.5935 159.465C42.5935 158.398 42.8335 157.451 43.3135 156.625C43.8068 155.785 44.4668 155.125 45.2935 154.645C46.1335 154.151 47.0735 153.905 48.1135 153.905C49.1668 153.905 50.1068 154.151 50.9335 154.645C51.7602 155.125 52.4135 155.785 52.8935 156.625C53.3868 157.465 53.6402 158.411 53.6535 159.465L52.9335 159.645C52.9335 160.658 52.7068 161.571 52.2535 162.385C51.8002 163.198 51.1868 163.838 50.4135 164.305C49.6535 164.771 48.7868 165.005 47.8135 165.005ZM48.1135 163.365C48.8335 163.365 49.4735 163.198 50.0335 162.865C50.5935 162.518 51.0335 162.051 51.3535 161.465C51.6868 160.865 51.8535 160.198 51.8535 159.465C51.8535 158.718 51.6868 158.051 51.3535 157.465C51.0335 156.865 50.5935 156.398 50.0335 156.065C49.4735 155.718 48.8335 155.545 48.1135 155.545C47.4202 155.545 46.7868 155.718 46.2135 156.065C45.6402 156.398 45.1868 156.865 44.8535 157.465C44.5335 158.051 44.3735 158.718 44.3735 159.465C44.3735 160.198 44.5335 160.865 44.8535 161.465C45.1868 162.051 45.6402 162.518 46.2135 162.865C46.7868 163.198 47.4202 163.365 48.1135 163.365ZM52.7135 164.945C52.4468 164.945 52.2268 164.858 52.0535 164.685C51.8802 164.511 51.7935 164.291 51.7935 164.025V160.825L52.1735 158.905L53.6535 159.465V164.025C53.6535 164.291 53.5602 164.511 53.3735 164.685C53.2002 164.858 52.9802 164.945 52.7135 164.945ZM55.8837 169.725C55.6303 169.725 55.3703 169.685 55.1037 169.605C54.837 169.538 54.577 169.431 54.3237 169.285C54.057 169.125 53.8837 168.925 53.8037 168.685C53.7237 168.458 53.7703 168.231 53.9437 168.005C54.0903 167.805 54.2703 167.685 54.4837 167.645C54.697 167.618 54.9237 167.671 55.1637 167.805C55.3103 167.885 55.4503 167.945 55.5837 167.985C55.717 168.025 55.857 168.045 56.0037 168.045C56.4437 168.045 56.8637 167.831 57.2637 167.405C57.6637 166.978 58.0437 166.351 58.4037 165.525L63.2637 154.445C63.3703 154.205 63.537 154.045 63.7637 153.965C63.9903 153.885 64.217 153.898 64.4437 154.005C64.657 154.085 64.797 154.238 64.8637 154.465C64.9303 154.691 64.9037 154.931 64.7837 155.185L59.8837 166.245C59.4303 167.285 58.8503 168.125 58.1437 168.765C57.437 169.405 56.6837 169.725 55.8837 169.725ZM60.3037 164.525C60.0637 164.631 59.8437 164.645 59.6437 164.565C59.4437 164.485 59.2837 164.331 59.1637 164.105L54.6237 155.185C54.5037 154.958 54.4837 154.738 54.5637 154.525C54.657 154.311 54.8237 154.158 55.0637 154.065C55.2903 153.958 55.5037 153.945 55.7037 154.025C55.917 154.091 56.077 154.245 56.1837 154.485L60.5837 163.325C60.7037 163.565 60.7437 163.798 60.7037 164.025C60.6637 164.251 60.5303 164.418 60.3037 164.525ZM71.3877 165.005C70.3611 165.005 69.4544 164.771 68.6677 164.305C67.8944 163.825 67.2811 163.171 66.8277 162.345C66.3877 161.505 66.1677 160.545 66.1677 159.465C66.1677 158.371 66.4011 157.411 66.8677 156.585C67.3477 155.745 68.0011 155.091 68.8277 154.625C69.6677 154.145 70.6211 153.905 71.6877 153.905C72.7677 153.905 73.7211 154.145 74.5477 154.625C75.3744 155.091 76.0211 155.745 76.4877 156.585C76.9677 157.411 77.2144 158.371 77.2277 159.465L76.1477 159.645C76.1477 160.698 75.9411 161.631 75.5277 162.445C75.1277 163.245 74.5677 163.871 73.8477 164.325C73.1277 164.778 72.3077 165.005 71.3877 165.005ZM71.6877 169.385C70.7011 169.385 69.7944 169.191 68.9677 168.805C68.1544 168.431 67.4744 167.891 66.9277 167.185C66.7677 166.985 66.7011 166.771 66.7277 166.545C66.7677 166.331 66.8877 166.158 67.0877 166.025C67.3011 165.878 67.5277 165.825 67.7677 165.865C68.0077 165.918 68.2011 166.038 68.3477 166.225C68.7211 166.691 69.1877 167.058 69.7477 167.325C70.3211 167.591 70.9811 167.725 71.7277 167.725C72.4077 167.725 73.0277 167.558 73.5877 167.225C74.1477 166.905 74.5944 166.431 74.9277 165.805C75.2611 165.191 75.4277 164.451 75.4277 163.585V160.665L76.0477 159.145L77.2277 159.465V163.685C77.2277 164.751 76.9877 165.711 76.5077 166.565C76.0411 167.431 75.3877 168.118 74.5477 168.625C73.7211 169.131 72.7677 169.385 71.6877 169.385ZM71.6877 163.365C72.4211 163.365 73.0677 163.198 73.6277 162.865C74.1877 162.531 74.6277 162.071 74.9477 161.485C75.2677 160.898 75.4277 160.225 75.4277 159.465C75.4277 158.705 75.2677 158.031 74.9477 157.445C74.6277 156.845 74.1877 156.378 73.6277 156.045C73.0677 155.711 72.4211 155.545 71.6877 155.545C70.9677 155.545 70.3211 155.711 69.7477 156.045C69.1877 156.378 68.7477 156.845 68.4277 157.445C68.1077 158.031 67.9477 158.705 67.9477 159.465C67.9477 160.225 68.1077 160.898 68.4277 161.485C68.7477 162.071 69.1877 162.531 69.7477 162.865C70.3211 163.198 70.9677 163.365 71.6877 163.365ZM84.9034 165.005C83.9034 165.005 83.01 164.765 82.2234 164.285C81.4367 163.805 80.8167 163.145 80.3634 162.305C79.91 161.465 79.6834 160.518 79.6834 159.465C79.6834 158.398 79.9234 157.451 80.4034 156.625C80.8967 155.785 81.5567 155.125 82.3834 154.645C83.2234 154.151 84.1634 153.905 85.2034 153.905C86.2567 153.905 87.1967 154.151 88.0234 154.645C88.85 155.125 89.5034 155.785 89.9834 156.625C90.4767 157.465 90.73 158.411 90.7434 159.465L90.0234 159.645C90.0234 160.658 89.7967 161.571 89.3434 162.385C88.89 163.198 88.2767 163.838 87.5034 164.305C86.7434 164.771 85.8767 165.005 84.9034 165.005ZM85.2034 163.365C85.9234 163.365 86.5634 163.198 87.1234 162.865C87.6834 162.518 88.1234 162.051 88.4434 161.465C88.7767 160.865 88.9434 160.198 88.9434 159.465C88.9434 158.718 88.7767 158.051 88.4434 157.465C88.1234 156.865 87.6834 156.398 87.1234 156.065C86.5634 155.718 85.9234 155.545 85.2034 155.545C84.51 155.545 83.8767 155.718 83.3034 156.065C82.73 156.398 82.2767 156.865 81.9434 157.465C81.6234 158.051 81.4634 158.718 81.4634 159.465C81.4634 160.198 81.6234 160.865 81.9434 161.465C82.2767 162.051 82.73 162.518 83.3034 162.865C83.8767 163.198 84.51 163.365 85.2034 163.365ZM89.8034 164.945C89.5367 164.945 89.3167 164.858 89.1434 164.685C88.97 164.511 88.8834 164.291 88.8834 164.025V160.825L89.2634 158.905L90.7434 159.465V164.025C90.7434 164.291 90.65 164.511 90.4634 164.685C90.29 164.858 90.07 164.945 89.8034 164.945ZM103.019 164.925C102.752 164.925 102.532 164.838 102.359 164.665C102.186 164.491 102.099 164.271 102.099 164.005V154.905C102.099 154.625 102.186 154.405 102.359 154.245C102.532 154.071 102.752 153.985 103.019 153.985C103.299 153.985 103.512 154.071 103.659 154.245C103.819 154.405 103.899 154.625 103.899 154.905V164.005C103.899 164.271 103.819 164.491 103.659 164.665C103.512 164.838 103.299 164.925 103.019 164.925ZM94.659 164.925C94.3923 164.925 94.1723 164.838 93.999 164.665C93.839 164.491 93.759 164.271 93.759 164.005V154.905C93.759 154.625 93.839 154.405 93.999 154.245C94.1723 154.071 94.3923 153.985 94.659 153.985C94.9257 153.985 95.1457 154.071 95.319 154.245C95.4923 154.405 95.579 154.625 95.579 154.905V164.005C95.579 164.271 95.4923 164.491 95.319 164.665C95.1457 164.838 94.9257 164.925 94.659 164.925ZM95.319 160.125V158.485H102.659V160.125H95.319ZM112.009 165.125C111.129 165.125 110.349 164.945 109.669 164.585C108.989 164.211 108.456 163.705 108.069 163.065C107.683 162.411 107.489 161.671 107.489 160.845V154.885C107.516 154.618 107.609 154.405 107.769 154.245C107.943 154.071 108.156 153.985 108.409 153.985C108.689 153.985 108.909 154.071 109.069 154.245C109.243 154.405 109.329 154.625 109.329 154.905V157.385H112.169C112.983 157.385 113.709 157.531 114.349 157.825C114.989 158.118 115.489 158.545 115.849 159.105C116.209 159.665 116.389 160.338 116.389 161.125C116.389 161.965 116.203 162.685 115.829 163.285C115.456 163.871 114.936 164.325 114.269 164.645C113.616 164.965 112.863 165.125 112.009 165.125ZM112.009 163.405C112.769 163.405 113.389 163.218 113.869 162.845C114.363 162.458 114.609 161.885 114.609 161.125C114.609 160.391 114.376 159.851 113.909 159.505C113.456 159.145 112.876 158.965 112.169 158.965H109.329V160.805C109.329 161.565 109.576 162.191 110.069 162.685C110.576 163.165 111.223 163.405 112.009 163.405ZM119.049 164.925C118.783 164.925 118.563 164.838 118.389 164.665C118.216 164.491 118.129 164.271 118.129 164.005V154.905C118.129 154.625 118.216 154.405 118.389 154.245C118.563 154.071 118.783 153.985 119.049 153.985C119.329 153.985 119.549 154.071 119.709 154.245C119.883 154.405 119.969 154.625 119.969 154.905V164.005C119.969 164.271 119.883 164.491 119.709 164.665C119.549 164.838 119.329 164.925 119.049 164.925Z" fill="#FFFFFF"/>
</svg>
