<svg viewBox="0 0 233 386" fill="none" xmlns="http://www.w3.org/2000/svg">
<path d="M28.2398 28.1197L1.10547 19.0749L41.807 154.747L37.2846 168.85L46.3294 177.764L55.3741 187.32V199.971V209.015L46.3294 218.06L32.7622 236.15L19.195 231.627L14.6726 240.672L19.195 249.717L32.7622 254.239L46.3294 259.809L55.3741 263.284L68.9413 254.239L82.5085 267.806L91.5533 276.851V285.896L100.598 290.418L109.643 299.463L105.12 308.508H93.2391L82.5085 322.075L96.0757 335.642L114.165 353.732L118.688 367.299L127.732 376.344L137.358 372.361L144.818 358.08L156.357 349.209L163.912 362.777L172.956 385.389L182.001 380.866L195.568 371.821L204.15 363.24L204.613 362.777L212.309 342.56V326.597V317.553L218.18 313.03L222.703 299.463L231.747 281.374V272.329L209.135 290.418L200.091 285.896V267.806L204.613 254.239L212.309 240.672L213.658 227.105L204.613 199.971V190.926L200.091 177.359L191.046 163.791L186.523 150.224L172.956 145.702H163.912L159.389 141.179L150.344 132.135V117.77L154.867 109.523L150.344 82.794L132.255 46.2093L96.0757 23.5973L68.9413 0.985352L28.2398 28.1197Z" fill="#00A1E1" stroke="white" stroke-linecap="round" stroke-linejoin="round"/>
<rect x="132" y="234" width="30" height="30" rx="15" fill="#FFFFFF"/>
<rect x="141" y="243" width="12" height="12" rx="6" fill="#00A1E1"/>
<path d="M134.45 285C134.183 285 133.956 284.913 133.77 284.74C133.596 284.553 133.51 284.327 133.51 284.06V270.32C133.51 270.04 133.596 269.813 133.77 269.64C133.956 269.467 134.183 269.38 134.45 269.38C134.73 269.38 134.956 269.467 135.13 269.64C135.303 269.813 135.39 270.04 135.39 270.32V284.06C135.39 284.327 135.303 284.553 135.13 284.74C134.956 284.913 134.73 285 134.45 285ZM143.289 274.08C143.462 274.08 143.622 274.127 143.769 274.22C143.929 274.313 144.055 274.467 144.149 274.68L148.349 283.82C148.455 284.047 148.462 284.26 148.369 284.46C148.289 284.647 148.142 284.793 147.929 284.9C147.675 285.007 147.449 285.033 147.249 284.98C147.049 284.913 146.882 284.76 146.749 284.52L142.849 275.72H143.809L139.809 284.5C139.702 284.74 139.535 284.893 139.309 284.96C139.095 285.027 138.862 285 138.609 284.88C138.382 284.773 138.222 284.627 138.129 284.44C138.049 284.253 138.062 284.04 138.169 283.8L142.409 274.68C142.595 274.28 142.889 274.08 143.289 274.08ZM156.007 285.08C154.9 285.08 153.92 284.847 153.067 284.38C152.227 283.9 151.567 283.247 151.087 282.42C150.607 281.58 150.367 280.62 150.367 279.54C150.367 278.447 150.594 277.487 151.047 276.66C151.5 275.82 152.127 275.167 152.927 274.7C153.727 274.22 154.654 273.98 155.707 273.98C156.734 273.98 157.62 274.213 158.367 274.68C159.114 275.133 159.687 275.767 160.087 276.58C160.487 277.38 160.687 278.307 160.687 279.36C160.687 279.587 160.607 279.78 160.447 279.94C160.3 280.087 160.1 280.16 159.847 280.16H151.627V278.68H159.867L159.047 279.26C159.034 278.553 158.894 277.92 158.627 277.36C158.36 276.8 157.98 276.36 157.487 276.04C156.994 275.72 156.4 275.56 155.707 275.56C154.947 275.56 154.287 275.733 153.727 276.08C153.18 276.427 152.76 276.9 152.467 277.5C152.174 278.1 152.027 278.78 152.027 279.54C152.027 280.3 152.194 280.98 152.527 281.58C152.874 282.167 153.34 282.633 153.927 282.98C154.527 283.327 155.22 283.5 156.007 283.5C156.434 283.5 156.874 283.42 157.327 283.26C157.794 283.1 158.16 282.913 158.427 282.7C158.614 282.553 158.814 282.48 159.027 282.48C159.24 282.467 159.427 282.527 159.587 282.66C159.787 282.847 159.894 283.053 159.907 283.28C159.92 283.493 159.827 283.68 159.627 283.84C159.174 284.2 158.607 284.5 157.927 284.74C157.26 284.967 156.62 285.08 156.007 285.08ZM112.755 307.08C111.755 307.08 110.862 306.84 110.075 306.36C109.288 305.88 108.668 305.22 108.215 304.38C107.762 303.54 107.535 302.593 107.535 301.54C107.535 300.473 107.775 299.527 108.255 298.7C108.748 297.86 109.408 297.2 110.235 296.72C111.075 296.227 112.015 295.98 113.055 295.98C114.108 295.98 115.048 296.227 115.875 296.72C116.702 297.2 117.355 297.86 117.835 298.7C118.328 299.54 118.582 300.487 118.595 301.54L117.875 301.72C117.875 302.733 117.648 303.647 117.195 304.46C116.742 305.273 116.128 305.913 115.355 306.38C114.595 306.847 113.728 307.08 112.755 307.08ZM113.055 305.44C113.775 305.44 114.415 305.273 114.975 304.94C115.535 304.593 115.975 304.127 116.295 303.54C116.628 302.94 116.795 302.273 116.795 301.54C116.795 300.793 116.628 300.127 116.295 299.54C115.975 298.94 115.535 298.473 114.975 298.14C114.415 297.793 113.775 297.62 113.055 297.62C112.362 297.62 111.728 297.793 111.155 298.14C110.582 298.473 110.128 298.94 109.795 299.54C109.475 300.127 109.315 300.793 109.315 301.54C109.315 302.273 109.475 302.94 109.795 303.54C110.128 304.127 110.582 304.593 111.155 304.94C111.728 305.273 112.362 305.44 113.055 305.44ZM117.655 307.02C117.388 307.02 117.168 306.933 116.995 306.76C116.822 306.587 116.735 306.367 116.735 306.1V302.9L117.115 300.98L118.595 301.54V306.1C118.595 306.367 118.502 306.587 118.315 306.76C118.142 306.933 117.922 307.02 117.655 307.02ZM120.825 311.8C120.572 311.8 120.312 311.76 120.045 311.68C119.778 311.613 119.518 311.507 119.265 311.36C118.998 311.2 118.825 311 118.745 310.76C118.665 310.533 118.712 310.307 118.885 310.08C119.032 309.88 119.212 309.76 119.425 309.72C119.638 309.693 119.865 309.747 120.105 309.88C120.252 309.96 120.392 310.02 120.525 310.06C120.658 310.1 120.798 310.12 120.945 310.12C121.385 310.12 121.805 309.907 122.205 309.48C122.605 309.053 122.985 308.427 123.345 307.6L128.205 296.52C128.312 296.28 128.478 296.12 128.705 296.04C128.932 295.96 129.158 295.973 129.385 296.08C129.598 296.16 129.738 296.313 129.805 296.54C129.872 296.767 129.845 297.007 129.725 297.26L124.825 308.32C124.372 309.36 123.792 310.2 123.085 310.84C122.378 311.48 121.625 311.8 120.825 311.8ZM125.245 306.6C125.005 306.707 124.785 306.72 124.585 306.64C124.385 306.56 124.225 306.407 124.105 306.18L119.565 297.26C119.445 297.033 119.425 296.813 119.505 296.6C119.598 296.387 119.765 296.233 120.005 296.14C120.232 296.033 120.445 296.02 120.645 296.1C120.858 296.167 121.018 296.32 121.125 296.56L125.525 305.4C125.645 305.64 125.685 305.873 125.645 306.1C125.605 306.327 125.472 306.493 125.245 306.6ZM136.329 307.08C135.302 307.08 134.396 306.847 133.609 306.38C132.836 305.9 132.222 305.247 131.769 304.42C131.329 303.58 131.109 302.62 131.109 301.54C131.109 300.447 131.342 299.487 131.809 298.66C132.289 297.82 132.942 297.167 133.769 296.7C134.609 296.22 135.562 295.98 136.629 295.98C137.709 295.98 138.662 296.22 139.489 296.7C140.316 297.167 140.962 297.82 141.429 298.66C141.909 299.487 142.156 300.447 142.169 301.54L141.089 301.72C141.089 302.773 140.882 303.707 140.469 304.52C140.069 305.32 139.509 305.947 138.789 306.4C138.069 306.853 137.249 307.08 136.329 307.08ZM136.629 311.46C135.642 311.46 134.736 311.267 133.909 310.88C133.096 310.507 132.416 309.967 131.869 309.26C131.709 309.06 131.642 308.847 131.669 308.62C131.709 308.407 131.829 308.233 132.029 308.1C132.242 307.953 132.469 307.9 132.709 307.94C132.949 307.993 133.142 308.113 133.289 308.3C133.662 308.767 134.129 309.133 134.689 309.4C135.262 309.667 135.922 309.8 136.669 309.8C137.349 309.8 137.969 309.633 138.529 309.3C139.089 308.98 139.536 308.507 139.869 307.88C140.202 307.267 140.369 306.527 140.369 305.66V302.74L140.989 301.22L142.169 301.54V305.76C142.169 306.827 141.929 307.787 141.449 308.64C140.982 309.507 140.329 310.193 139.489 310.7C138.662 311.207 137.709 311.46 136.629 311.46ZM136.629 305.44C137.362 305.44 138.009 305.273 138.569 304.94C139.129 304.607 139.569 304.147 139.889 303.56C140.209 302.973 140.369 302.3 140.369 301.54C140.369 300.78 140.209 300.107 139.889 299.52C139.569 298.92 139.129 298.453 138.569 298.12C138.009 297.787 137.362 297.62 136.629 297.62C135.909 297.62 135.262 297.787 134.689 298.12C134.129 298.453 133.689 298.92 133.369 299.52C133.049 300.107 132.889 300.78 132.889 301.54C132.889 302.3 133.049 302.973 133.369 303.56C133.689 304.147 134.129 304.607 134.689 304.94C135.262 305.273 135.909 305.44 136.629 305.44ZM149.845 307.08C148.845 307.08 147.951 306.84 147.165 306.36C146.378 305.88 145.758 305.22 145.305 304.38C144.851 303.54 144.625 302.593 144.625 301.54C144.625 300.473 144.865 299.527 145.345 298.7C145.838 297.86 146.498 297.2 147.325 296.72C148.165 296.227 149.105 295.98 150.145 295.98C151.198 295.98 152.138 296.227 152.965 296.72C153.791 297.2 154.445 297.86 154.925 298.7C155.418 299.54 155.671 300.487 155.685 301.54L154.965 301.72C154.965 302.733 154.738 303.647 154.285 304.46C153.831 305.273 153.218 305.913 152.445 306.38C151.685 306.847 150.818 307.08 149.845 307.08ZM150.145 305.44C150.865 305.44 151.505 305.273 152.065 304.94C152.625 304.593 153.065 304.127 153.385 303.54C153.718 302.94 153.885 302.273 153.885 301.54C153.885 300.793 153.718 300.127 153.385 299.54C153.065 298.94 152.625 298.473 152.065 298.14C151.505 297.793 150.865 297.62 150.145 297.62C149.451 297.62 148.818 297.793 148.245 298.14C147.671 298.473 147.218 298.94 146.885 299.54C146.565 300.127 146.405 300.793 146.405 301.54C146.405 302.273 146.565 302.94 146.885 303.54C147.218 304.127 147.671 304.593 148.245 304.94C148.818 305.273 149.451 305.44 150.145 305.44ZM154.745 307.02C154.478 307.02 154.258 306.933 154.085 306.76C153.911 306.587 153.825 306.367 153.825 306.1V302.9L154.205 300.98L155.685 301.54V306.1C155.685 306.367 155.591 306.587 155.405 306.76C155.231 306.933 155.011 307.02 154.745 307.02ZM167.96 307C167.694 307 167.474 306.913 167.3 306.74C167.127 306.567 167.04 306.347 167.04 306.08V296.98C167.04 296.7 167.127 296.48 167.3 296.32C167.474 296.147 167.694 296.06 167.96 296.06C168.24 296.06 168.454 296.147 168.6 296.32C168.76 296.48 168.84 296.7 168.84 296.98V306.08C168.84 306.347 168.76 306.567 168.6 306.74C168.454 306.913 168.24 307 167.96 307ZM159.6 307C159.334 307 159.114 306.913 158.94 306.74C158.78 306.567 158.7 306.347 158.7 306.08V296.98C158.7 296.7 158.78 296.48 158.94 296.32C159.114 296.147 159.334 296.06 159.6 296.06C159.867 296.06 160.087 296.147 160.26 296.32C160.434 296.48 160.52 296.7 160.52 296.98V306.08C160.52 306.347 160.434 306.567 160.26 306.74C160.087 306.913 159.867 307 159.6 307ZM160.26 302.2V300.56H167.6V302.2H160.26ZM176.951 307.2C176.071 307.2 175.291 307.02 174.611 306.66C173.931 306.287 173.398 305.78 173.011 305.14C172.624 304.487 172.431 303.747 172.431 302.92V296.96C172.458 296.693 172.551 296.48 172.711 296.32C172.884 296.147 173.098 296.06 173.351 296.06C173.631 296.06 173.851 296.147 174.011 296.32C174.184 296.48 174.271 296.7 174.271 296.98V299.46H177.111C177.924 299.46 178.651 299.607 179.291 299.9C179.931 300.193 180.431 300.62 180.791 301.18C181.151 301.74 181.331 302.413 181.331 303.2C181.331 304.04 181.144 304.76 180.771 305.36C180.398 305.947 179.878 306.4 179.211 306.72C178.558 307.04 177.804 307.2 176.951 307.2ZM176.951 305.48C177.711 305.48 178.331 305.293 178.811 304.92C179.304 304.533 179.551 303.96 179.551 303.2C179.551 302.467 179.318 301.927 178.851 301.58C178.398 301.22 177.818 301.04 177.111 301.04H174.271V302.88C174.271 303.64 174.518 304.267 175.011 304.76C175.518 305.24 176.164 305.48 176.951 305.48ZM183.991 307C183.724 307 183.504 306.913 183.331 306.74C183.158 306.567 183.071 306.347 183.071 306.08V296.98C183.071 296.7 183.158 296.48 183.331 296.32C183.504 296.147 183.724 296.06 183.991 296.06C184.271 296.06 184.491 296.147 184.651 296.32C184.824 296.48 184.911 296.7 184.911 296.98V306.08C184.911 306.347 184.824 306.567 184.651 306.74C184.491 306.913 184.271 307 183.991 307Z" fill="#FFFFFF"/>
</svg>
