<svg viewBox="0 0 391 222" fill="none" xmlns="http://www.w3.org/2000/svg">
<path d="M344.702 4.15002L322.09 13.1948H279.127L263.299 26.3564L254.254 30.8788H249.731L236.164 35.4012H222.597L199.985 39.9236V53.4907L186.418 44.4459L181.896 53.4907L168.328 62.5355L150.239 67.0579L132.149 62.5355H123.105L95.9702 58.0131H41.7015V71.5803L37.1791 89.6699L19.0896 98.7147V116.804L1 121.327V139.416L10.0448 148.461L23.6119 166.55L64.3135 184.64L55.2687 193.685L59.7911 198.207H64.3135L68.8359 189.162H77.8806V220.819L132.149 216.297L141.194 220.819L168.328 207.252L190.94 198.207L213.552 211.774L222.597 202.73L272.343 175.595H299.478L335.657 166.55L362.791 162.028L389.926 152.983L376.358 134.894L362.791 107.759L371.836 103.237L362.791 39.9236L357.302 1L344.702 4.15002Z" fill="#00A1E1" stroke="white" stroke-linecap="round" stroke-linejoin="round"/>
<rect x="149.254" y="89.6396" width="30" height="30" rx="15" fill="#FFFFFF"/>
<rect x="158.254" y="98.6396" width="12" height="12" rx="6" fill="#00A1E1"/>
<path d="M49.5923 145.64C49.3257 145.64 49.099 145.553 48.9123 145.38C48.739 145.193 48.6523 144.966 48.6523 144.7V130.96C48.6523 130.68 48.739 130.453 48.9123 130.28C49.099 130.106 49.3257 130.02 49.5923 130.02H58.7723C59.039 130.02 59.259 130.106 59.4323 130.28C59.6057 130.44 59.6923 130.653 59.6923 130.92C59.6923 131.16 59.6057 131.366 59.4323 131.54C59.259 131.7 59.039 131.78 58.7723 131.78H50.5323V136.9H56.4723C56.7523 136.9 56.9723 136.986 57.1323 137.16C57.3057 137.32 57.3923 137.526 57.3923 137.78C57.3923 138.033 57.3057 138.246 57.1323 138.42C56.9723 138.58 56.7523 138.66 56.4723 138.66H50.5323V143.88H58.7723C59.039 143.88 59.259 143.966 59.4323 144.14C59.6057 144.3 59.6923 144.5 59.6923 144.74C59.6923 145.006 59.6057 145.226 59.4323 145.4C59.259 145.56 59.039 145.64 58.7723 145.64H49.5923ZM73.5977 149.14C73.331 149.14 73.111 149.053 72.9377 148.88C72.7777 148.706 72.6977 148.48 72.6977 148.2V145.64H71.6177V144.06H73.4777C73.7577 144.06 73.9843 144.146 74.1577 144.32C74.331 144.493 74.4177 144.72 74.4177 145V148.2C74.4177 148.48 74.3377 148.706 74.1777 148.88C74.031 149.053 73.8377 149.14 73.5977 149.14ZM71.6577 145.64C71.391 145.64 71.171 145.553 70.9977 145.38C70.8243 145.206 70.7377 144.986 70.7377 144.72V135.62C70.7377 135.34 70.8243 135.12 70.9977 134.96C71.171 134.786 71.391 134.7 71.6577 134.7C71.9377 134.7 72.151 134.786 72.2977 134.96C72.4577 135.12 72.5377 135.34 72.5377 135.62V144.72C72.5377 144.986 72.4577 145.206 72.2977 145.38C72.151 145.553 71.9377 145.64 71.6577 145.64ZM63.2977 145.64C63.031 145.64 62.811 145.553 62.6377 145.38C62.4777 145.206 62.3977 144.986 62.3977 144.72V135.62C62.3977 135.34 62.4777 135.12 62.6377 134.96C62.811 134.786 63.031 134.7 63.2977 134.7C63.5643 134.7 63.7843 134.786 63.9577 134.96C64.131 135.12 64.2177 135.34 64.2177 135.62V144.72C64.2177 144.986 64.131 145.206 63.9577 145.38C63.7843 145.553 63.5643 145.64 63.2977 145.64ZM63.9577 140.84V139.2H71.2977V140.84H63.9577ZM81.0881 145.72C80.0215 145.72 79.0748 145.493 78.2481 145.04C77.4348 144.586 76.7948 143.96 76.3281 143.16C75.8748 142.346 75.6415 141.426 75.6281 140.4H76.5481C76.5481 139.4 76.7548 138.526 77.1681 137.78C77.5815 137.033 78.1548 136.446 78.8881 136.02C79.6215 135.58 80.4548 135.36 81.3881 135.36C82.3748 135.36 83.2415 135.58 83.9881 136.02C84.7481 136.46 85.3415 137.066 85.7681 137.84C86.1948 138.613 86.4081 139.506 86.4081 140.52C86.4081 141.533 86.1815 142.433 85.7281 143.22C85.2748 144.006 84.6481 144.62 83.8481 145.06C83.0481 145.5 82.1281 145.72 81.0881 145.72ZM81.0881 144.08C81.7815 144.08 82.3948 143.933 82.9281 143.64C83.4615 143.333 83.8748 142.913 84.1681 142.38C84.4748 141.846 84.6281 141.226 84.6281 140.52C84.6281 139.84 84.4748 139.24 84.1681 138.72C83.8748 138.186 83.4615 137.773 82.9281 137.48C82.3948 137.173 81.7815 137.02 81.0881 137.02C80.3681 137.02 79.7281 137.173 79.1681 137.48C78.6215 137.773 78.1948 138.186 77.8881 138.72C77.5815 139.24 77.4281 139.84 77.4281 140.52C77.4281 141.226 77.5815 141.846 77.8881 142.38C78.1948 142.913 78.6215 143.333 79.1681 143.64C79.7281 143.933 80.3681 144.08 81.0881 144.08ZM75.6281 140.42L75.6481 138.4C75.6615 136.746 76.1081 135.246 76.9881 133.9C77.8815 132.553 79.2615 131.486 81.1281 130.7L84.5681 129.22C84.8215 129.126 85.0415 129.12 85.2281 129.2C85.4148 129.266 85.5548 129.406 85.6481 129.62C85.7281 129.86 85.7415 130.08 85.6881 130.28C85.6481 130.466 85.4681 130.626 85.1481 130.76L81.4481 132.4C80.4215 132.826 79.5881 133.353 78.9481 133.98C78.3081 134.606 77.8348 135.313 77.5281 136.1C77.2348 136.873 77.0815 137.706 77.0681 138.6L77.0481 140.42H75.6281ZM94.5089 145.72C93.4022 145.72 92.4222 145.486 91.5689 145.02C90.7289 144.54 90.0689 143.886 89.5889 143.06C89.1089 142.22 88.8689 141.26 88.8689 140.18C88.8689 139.086 89.0956 138.126 89.5489 137.3C90.0022 136.46 90.6289 135.806 91.4289 135.34C92.2289 134.86 93.1556 134.62 94.2089 134.62C95.2356 134.62 96.1222 134.853 96.8689 135.32C97.6156 135.773 98.1889 136.406 98.5889 137.22C98.9889 138.02 99.1889 138.946 99.1889 140C99.1889 140.226 99.1089 140.42 98.9489 140.58C98.8022 140.726 98.6022 140.8 98.3489 140.8H90.1289V139.32H98.3689L97.5489 139.9C97.5356 139.193 97.3956 138.56 97.1289 138C96.8622 137.44 96.4822 137 95.9889 136.68C95.4956 136.36 94.9022 136.2 94.2089 136.2C93.4489 136.2 92.7889 136.373 92.2289 136.72C91.6822 137.066 91.2622 137.54 90.9689 138.14C90.6756 138.74 90.5289 139.42 90.5289 140.18C90.5289 140.94 90.6956 141.62 91.0289 142.22C91.3756 142.806 91.8422 143.273 92.4289 143.62C93.0289 143.966 93.7222 144.14 94.5089 144.14C94.9356 144.14 95.3756 144.06 95.8289 143.9C96.2956 143.74 96.6622 143.553 96.9289 143.34C97.1156 143.193 97.3156 143.12 97.5289 143.12C97.7422 143.106 97.9289 143.166 98.0889 143.3C98.2889 143.486 98.3956 143.693 98.4089 143.92C98.4222 144.133 98.3289 144.32 98.1289 144.48C97.6756 144.84 97.1089 145.14 96.4289 145.38C95.7622 145.606 95.1222 145.72 94.5089 145.72ZM110.532 145.42C110.372 145.566 110.152 145.64 109.872 145.64C109.592 145.626 109.372 145.54 109.212 145.38L104.392 140.16L108.972 134.98C109.132 134.82 109.346 134.726 109.612 134.7C109.879 134.673 110.092 134.733 110.252 134.88C110.439 135.053 110.546 135.246 110.572 135.46C110.599 135.673 110.532 135.866 110.372 136.04L106.692 140.06L110.572 144.28C110.732 144.44 110.812 144.626 110.812 144.84C110.812 145.053 110.719 145.246 110.532 145.42ZM102.672 145.66C102.406 145.66 102.192 145.573 102.032 145.4C101.872 145.226 101.792 145.006 101.792 144.74V135.62C101.792 135.34 101.872 135.12 102.032 134.96C102.192 134.786 102.406 134.7 102.672 134.7C102.952 134.7 103.179 134.786 103.352 134.96C103.526 135.12 103.612 135.34 103.612 135.62V139.2H106.112V140.9H103.612V144.74C103.612 145.006 103.526 145.226 103.352 145.4C103.179 145.573 102.952 145.66 102.672 145.66ZM123.816 145.76C123.042 145.76 122.356 145.586 121.756 145.24C121.169 144.893 120.709 144.393 120.376 143.74C120.056 143.073 119.896 142.28 119.896 141.36V135.62C119.896 135.34 119.976 135.12 120.136 134.96C120.309 134.786 120.536 134.7 120.816 134.7C121.082 134.7 121.302 134.786 121.476 134.96C121.649 135.12 121.736 135.34 121.736 135.62V141.36C121.736 141.946 121.836 142.44 122.036 142.84C122.236 143.24 122.516 143.546 122.876 143.76C123.236 143.96 123.656 144.06 124.136 144.06C124.882 144.06 125.496 143.813 125.976 143.32C126.456 142.813 126.696 142.173 126.696 141.4H127.536C127.536 142.253 127.369 143.006 127.036 143.66C126.716 144.313 126.276 144.826 125.716 145.2C125.169 145.573 124.536 145.76 123.816 145.76ZM117.036 145.76C116.262 145.76 115.582 145.586 114.996 145.24C114.409 144.893 113.942 144.393 113.596 143.74C113.262 143.073 113.096 142.28 113.096 141.36V135.62C113.096 135.34 113.182 135.12 113.356 134.96C113.529 134.786 113.749 134.7 114.016 134.7C114.296 134.7 114.522 134.786 114.696 134.96C114.869 135.12 114.956 135.34 114.956 135.62V141.36C114.956 141.946 115.056 142.44 115.256 142.84C115.456 143.24 115.736 143.546 116.096 143.76C116.456 143.96 116.869 144.06 117.336 144.06C118.096 144.06 118.709 143.806 119.176 143.3C119.656 142.793 119.896 142.14 119.896 141.34H120.736C120.722 142.206 120.556 142.973 120.236 143.64C119.929 144.306 119.496 144.826 118.936 145.2C118.389 145.573 117.756 145.76 117.036 145.76ZM127.616 145.64C127.349 145.64 127.129 145.553 126.956 145.38C126.782 145.206 126.696 144.986 126.696 144.72V135.62C126.696 135.34 126.782 135.12 126.956 134.96C127.129 134.786 127.349 134.7 127.616 134.7C127.896 134.7 128.116 134.786 128.276 134.96C128.449 135.12 128.536 135.34 128.536 135.62V144.72C128.536 144.986 128.449 145.206 128.276 145.38C128.116 145.553 127.896 145.64 127.616 145.64ZM133.324 145.64C133.044 145.64 132.817 145.553 132.644 145.38C132.47 145.206 132.384 144.986 132.384 144.72V135.62C132.384 135.34 132.47 135.12 132.644 134.96C132.817 134.786 133.044 134.7 133.324 134.7C133.59 134.7 133.81 134.786 133.984 134.96C134.157 135.12 134.244 135.34 134.244 135.62V144.72C134.244 144.986 134.157 145.206 133.984 145.38C133.81 145.553 133.59 145.64 133.324 145.64ZM133.304 132.8C132.97 132.8 132.684 132.68 132.444 132.44C132.204 132.2 132.084 131.906 132.084 131.56C132.084 131.213 132.204 130.926 132.444 130.7C132.697 130.46 132.99 130.34 133.324 130.34C133.644 130.34 133.924 130.46 134.164 130.7C134.417 130.926 134.544 131.213 134.544 131.56C134.544 131.906 134.424 132.2 134.184 132.44C133.944 132.68 133.65 132.8 133.304 132.8ZM153.001 149.14C152.747 149.14 152.534 149.053 152.361 148.88C152.201 148.706 152.121 148.48 152.121 148.2V145.64H151.821C151.687 145.64 151.554 145.62 151.421 145.58C151.301 145.54 151.201 145.473 151.121 145.38L147.581 140.9H145.761V144.74C145.761 145.006 145.674 145.226 145.501 145.4C145.327 145.573 145.101 145.66 144.821 145.66C144.554 145.66 144.341 145.573 144.181 145.4C144.021 145.226 143.941 145.006 143.941 144.74V135.62C143.941 135.34 144.021 135.12 144.181 134.96C144.341 134.786 144.554 134.7 144.821 134.7C145.101 134.7 145.327 134.786 145.501 134.96C145.674 135.12 145.761 135.34 145.761 135.62V139.2H147.721L151.321 134.98C151.467 134.82 151.674 134.726 151.941 134.7C152.221 134.673 152.441 134.733 152.601 134.88C152.787 135.053 152.887 135.246 152.901 135.46C152.927 135.673 152.867 135.866 152.721 136.04L149.201 140.06L152.301 144.06H152.901C153.181 144.06 153.407 144.146 153.581 144.32C153.754 144.493 153.841 144.72 153.841 145V148.2C153.841 148.48 153.761 148.706 153.601 148.88C153.454 149.053 153.254 149.14 153.001 149.14ZM160.573 145.72C159.573 145.72 158.68 145.48 157.893 145C157.107 144.52 156.487 143.86 156.033 143.02C155.58 142.18 155.353 141.233 155.353 140.18C155.353 139.113 155.593 138.166 156.073 137.34C156.567 136.5 157.227 135.84 158.053 135.36C158.893 134.866 159.833 134.62 160.873 134.62C161.927 134.62 162.867 134.866 163.693 135.36C164.52 135.84 165.173 136.5 165.653 137.34C166.147 138.18 166.4 139.126 166.413 140.18L165.693 140.36C165.693 141.373 165.467 142.286 165.013 143.1C164.56 143.913 163.947 144.553 163.173 145.02C162.413 145.486 161.547 145.72 160.573 145.72ZM160.873 144.08C161.593 144.08 162.233 143.913 162.793 143.58C163.353 143.233 163.793 142.766 164.113 142.18C164.447 141.58 164.613 140.913 164.613 140.18C164.613 139.433 164.447 138.766 164.113 138.18C163.793 137.58 163.353 137.113 162.793 136.78C162.233 136.433 161.593 136.26 160.873 136.26C160.18 136.26 159.547 136.433 158.973 136.78C158.4 137.113 157.947 137.58 157.613 138.18C157.293 138.766 157.133 139.433 157.133 140.18C157.133 140.913 157.293 141.58 157.613 142.18C157.947 142.766 158.4 143.233 158.973 143.58C159.547 143.913 160.18 144.08 160.873 144.08ZM165.473 145.66C165.207 145.66 164.987 145.573 164.813 145.4C164.64 145.226 164.553 145.006 164.553 144.74V141.54L164.933 139.62L166.413 140.18V144.74C166.413 145.006 166.32 145.226 166.133 145.4C165.96 145.573 165.74 145.66 165.473 145.66ZM173.069 145.8C172.456 145.8 171.876 145.733 171.329 145.6C170.782 145.453 170.289 145.26 169.849 145.02C169.422 144.766 169.062 144.486 168.769 144.18C168.582 143.993 168.496 143.78 168.509 143.54C168.522 143.286 168.636 143.086 168.849 142.94C169.036 142.806 169.256 142.753 169.509 142.78C169.762 142.806 169.976 142.906 170.149 143.08C170.469 143.386 170.876 143.646 171.369 143.86C171.862 144.06 172.422 144.16 173.049 144.16C173.809 144.16 174.416 144 174.869 143.68C175.322 143.36 175.549 142.926 175.549 142.38C175.549 141.913 175.376 141.533 175.029 141.24C174.696 140.933 174.269 140.773 173.749 140.76H172.669C172.389 140.76 172.156 140.686 171.969 140.54C171.782 140.393 171.689 140.213 171.689 140C171.689 139.786 171.782 139.613 171.969 139.48C172.156 139.333 172.389 139.26 172.669 139.26H173.749C174.202 139.246 174.556 139.1 174.809 138.82C175.062 138.526 175.189 138.166 175.189 137.74C175.189 137.286 174.996 136.926 174.609 136.66C174.222 136.38 173.676 136.24 172.969 136.24C172.356 136.24 171.822 136.333 171.369 136.52C170.916 136.693 170.542 136.933 170.249 137.24C170.062 137.44 169.856 137.553 169.629 137.58C169.402 137.606 169.182 137.546 168.969 137.4C168.796 137.28 168.709 137.106 168.709 136.88C168.722 136.64 168.816 136.42 168.989 136.22C169.416 135.74 169.976 135.346 170.669 135.04C171.376 134.733 172.129 134.58 172.929 134.58C173.716 134.58 174.409 134.72 175.009 135C175.622 135.266 176.102 135.633 176.449 136.1C176.809 136.553 176.989 137.053 176.989 137.6C176.989 138.053 176.869 138.46 176.629 138.82C176.389 139.18 176.062 139.466 175.649 139.68C175.249 139.88 174.809 139.993 174.329 140.02V139.82C174.889 139.82 175.396 139.94 175.849 140.18C176.316 140.406 176.682 140.72 176.949 141.12C177.216 141.52 177.349 141.966 177.349 142.46C177.349 143.1 177.162 143.673 176.789 144.18C176.416 144.673 175.902 145.066 175.249 145.36C174.609 145.653 173.882 145.8 173.069 145.8ZM184.558 145.72C183.558 145.72 182.664 145.48 181.878 145C181.091 144.52 180.471 143.86 180.018 143.02C179.564 142.18 179.338 141.233 179.338 140.18C179.338 139.113 179.578 138.166 180.058 137.34C180.551 136.5 181.211 135.84 182.038 135.36C182.878 134.866 183.818 134.62 184.858 134.62C185.911 134.62 186.851 134.866 187.678 135.36C188.504 135.84 189.158 136.5 189.638 137.34C190.131 138.18 190.384 139.126 190.398 140.18L189.678 140.36C189.678 141.373 189.451 142.286 188.998 143.1C188.544 143.913 187.931 144.553 187.158 145.02C186.398 145.486 185.531 145.72 184.558 145.72ZM184.858 144.08C185.578 144.08 186.218 143.913 186.778 143.58C187.338 143.233 187.778 142.766 188.098 142.18C188.431 141.58 188.598 140.913 188.598 140.18C188.598 139.433 188.431 138.766 188.098 138.18C187.778 137.58 187.338 137.113 186.778 136.78C186.218 136.433 185.578 136.26 184.858 136.26C184.164 136.26 183.531 136.433 182.958 136.78C182.384 137.113 181.931 137.58 181.598 138.18C181.278 138.766 181.118 139.433 181.118 140.18C181.118 140.913 181.278 141.58 181.598 142.18C181.931 142.766 182.384 143.233 182.958 143.58C183.531 143.913 184.164 144.08 184.858 144.08ZM189.458 145.66C189.191 145.66 188.971 145.573 188.798 145.4C188.624 145.226 188.538 145.006 188.538 144.74V141.54L188.918 139.62L190.398 140.18V144.74C190.398 145.006 190.304 145.226 190.118 145.4C189.944 145.573 189.724 145.66 189.458 145.66ZM202.473 149.14C202.22 149.14 202.007 149.053 201.833 148.88C201.673 148.706 201.593 148.48 201.593 148.2V145.64H201.293C201.16 145.64 201.027 145.62 200.893 145.58C200.773 145.54 200.673 145.473 200.593 145.38L197.053 140.9H195.233V144.74C195.233 145.006 195.147 145.226 194.973 145.4C194.8 145.573 194.573 145.66 194.293 145.66C194.027 145.66 193.813 145.573 193.653 145.4C193.493 145.226 193.413 145.006 193.413 144.74V135.62C193.413 135.34 193.493 135.12 193.653 134.96C193.813 134.786 194.027 134.7 194.293 134.7C194.573 134.7 194.8 134.786 194.973 134.96C195.147 135.12 195.233 135.34 195.233 135.62V139.2H197.193L200.793 134.98C200.94 134.82 201.147 134.726 201.413 134.7C201.693 134.673 201.913 134.733 202.073 134.88C202.26 135.053 202.36 135.246 202.373 135.46C202.4 135.673 202.34 135.866 202.193 136.04L198.673 140.06L201.773 144.06H202.373C202.653 144.06 202.88 144.146 203.053 144.32C203.227 144.493 203.313 144.72 203.313 145V148.2C203.313 148.48 203.233 148.706 203.073 148.88C202.927 149.053 202.727 149.14 202.473 149.14ZM215.905 145.72C214.905 145.72 214.012 145.48 213.225 145C212.439 144.52 211.819 143.86 211.365 143.02C210.912 142.18 210.685 141.233 210.685 140.18C210.685 139.113 210.925 138.166 211.405 137.34C211.899 136.5 212.559 135.84 213.385 135.36C214.225 134.866 215.165 134.62 216.205 134.62C217.259 134.62 218.199 134.866 219.025 135.36C219.852 135.84 220.505 136.5 220.985 137.34C221.479 138.18 221.732 139.126 221.745 140.18L221.025 140.36C221.025 141.373 220.799 142.286 220.345 143.1C219.892 143.913 219.279 144.553 218.505 145.02C217.745 145.486 216.879 145.72 215.905 145.72ZM216.205 144.08C216.925 144.08 217.565 143.913 218.125 143.58C218.685 143.233 219.125 142.766 219.445 142.18C219.779 141.58 219.945 140.913 219.945 140.18C219.945 139.433 219.779 138.766 219.445 138.18C219.125 137.58 218.685 137.113 218.125 136.78C217.565 136.433 216.925 136.26 216.205 136.26C215.512 136.26 214.879 136.433 214.305 136.78C213.732 137.113 213.279 137.58 212.945 138.18C212.625 138.766 212.465 139.433 212.465 140.18C212.465 140.913 212.625 141.58 212.945 142.18C213.279 142.766 213.732 143.233 214.305 143.58C214.879 143.913 215.512 144.08 216.205 144.08ZM220.805 145.66C220.539 145.66 220.319 145.573 220.145 145.4C219.972 145.226 219.885 145.006 219.885 144.74V141.54L220.265 139.62L221.745 140.18V144.74C221.745 145.006 221.652 145.226 221.465 145.4C221.292 145.573 221.072 145.66 220.805 145.66ZM223.975 150.44C223.722 150.44 223.462 150.4 223.195 150.32C222.929 150.253 222.669 150.146 222.415 150C222.149 149.84 221.975 149.64 221.895 149.4C221.815 149.173 221.862 148.946 222.035 148.72C222.182 148.52 222.362 148.4 222.575 148.36C222.789 148.333 223.015 148.386 223.255 148.52C223.402 148.6 223.542 148.66 223.675 148.7C223.809 148.74 223.949 148.76 224.095 148.76C224.535 148.76 224.955 148.546 225.355 148.12C225.755 147.693 226.135 147.066 226.495 146.24L231.355 135.16C231.462 134.92 231.629 134.76 231.855 134.68C232.082 134.6 232.309 134.613 232.535 134.72C232.749 134.8 232.889 134.953 232.955 135.18C233.022 135.406 232.995 135.646 232.875 135.9L227.975 146.96C227.522 148 226.942 148.84 226.235 149.48C225.529 150.12 224.775 150.44 223.975 150.44ZM228.395 145.24C228.155 145.346 227.935 145.36 227.735 145.28C227.535 145.2 227.375 145.046 227.255 144.82L222.715 135.9C222.595 135.673 222.575 135.453 222.655 135.24C222.749 135.026 222.915 134.873 223.155 134.78C223.382 134.673 223.595 134.66 223.795 134.74C224.009 134.806 224.169 134.96 224.275 135.2L228.675 144.04C228.795 144.28 228.835 144.513 228.795 144.74C228.755 144.966 228.622 145.133 228.395 145.24ZM239.48 145.72C238.453 145.72 237.546 145.486 236.76 145.02C235.986 144.54 235.373 143.886 234.92 143.06C234.48 142.22 234.26 141.26 234.26 140.18C234.26 139.086 234.493 138.126 234.96 137.3C235.44 136.46 236.093 135.806 236.92 135.34C237.76 134.86 238.713 134.62 239.78 134.62C240.86 134.62 241.813 134.86 242.64 135.34C243.466 135.806 244.113 136.46 244.58 137.3C245.06 138.126 245.306 139.086 245.32 140.18L244.24 140.36C244.24 141.413 244.033 142.346 243.62 143.16C243.22 143.96 242.66 144.586 241.94 145.04C241.22 145.493 240.4 145.72 239.48 145.72ZM239.78 150.1C238.793 150.1 237.886 149.906 237.06 149.52C236.246 149.146 235.566 148.606 235.02 147.9C234.86 147.7 234.793 147.486 234.82 147.26C234.86 147.046 234.98 146.873 235.18 146.74C235.393 146.593 235.62 146.54 235.86 146.58C236.1 146.633 236.293 146.753 236.44 146.94C236.813 147.406 237.28 147.773 237.84 148.04C238.413 148.306 239.073 148.44 239.82 148.44C240.5 148.44 241.12 148.273 241.68 147.94C242.24 147.62 242.686 147.146 243.02 146.52C243.353 145.906 243.52 145.166 243.52 144.3V141.38L244.14 139.86L245.32 140.18V144.4C245.32 145.466 245.08 146.426 244.6 147.28C244.133 148.146 243.48 148.833 242.64 149.34C241.813 149.846 240.86 150.1 239.78 150.1ZM239.78 144.08C240.513 144.08 241.16 143.913 241.72 143.58C242.28 143.246 242.72 142.786 243.04 142.2C243.36 141.613 243.52 140.94 243.52 140.18C243.52 139.42 243.36 138.746 243.04 138.16C242.72 137.56 242.28 137.093 241.72 136.76C241.16 136.426 240.513 136.26 239.78 136.26C239.06 136.26 238.413 136.426 237.84 136.76C237.28 137.093 236.84 137.56 236.52 138.16C236.2 138.746 236.04 139.42 236.04 140.18C236.04 140.94 236.2 141.613 236.52 142.2C236.84 142.786 237.28 143.246 237.84 143.58C238.413 143.913 239.06 144.08 239.78 144.08ZM252.995 145.72C251.995 145.72 251.102 145.48 250.315 145C249.528 144.52 248.908 143.86 248.455 143.02C248.002 142.18 247.775 141.233 247.775 140.18C247.775 139.113 248.015 138.166 248.495 137.34C248.988 136.5 249.648 135.84 250.475 135.36C251.315 134.866 252.255 134.62 253.295 134.62C254.348 134.62 255.288 134.866 256.115 135.36C256.942 135.84 257.595 136.5 258.075 137.34C258.568 138.18 258.822 139.126 258.835 140.18L258.115 140.36C258.115 141.373 257.888 142.286 257.435 143.1C256.982 143.913 256.368 144.553 255.595 145.02C254.835 145.486 253.968 145.72 252.995 145.72ZM253.295 144.08C254.015 144.08 254.655 143.913 255.215 143.58C255.775 143.233 256.215 142.766 256.535 142.18C256.868 141.58 257.035 140.913 257.035 140.18C257.035 139.433 256.868 138.766 256.535 138.18C256.215 137.58 255.775 137.113 255.215 136.78C254.655 136.433 254.015 136.26 253.295 136.26C252.602 136.26 251.968 136.433 251.395 136.78C250.822 137.113 250.368 137.58 250.035 138.18C249.715 138.766 249.555 139.433 249.555 140.18C249.555 140.913 249.715 141.58 250.035 142.18C250.368 142.766 250.822 143.233 251.395 143.58C251.968 143.913 252.602 144.08 253.295 144.08ZM257.895 145.66C257.628 145.66 257.408 145.573 257.235 145.4C257.062 145.226 256.975 145.006 256.975 144.74V141.54L257.355 139.62L258.835 140.18V144.74C258.835 145.006 258.742 145.226 258.555 145.4C258.382 145.573 258.162 145.66 257.895 145.66ZM271.111 145.64C270.844 145.64 270.624 145.553 270.451 145.38C270.277 145.206 270.191 144.986 270.191 144.72V135.62C270.191 135.34 270.277 135.12 270.451 134.96C270.624 134.786 270.844 134.7 271.111 134.7C271.391 134.7 271.604 134.786 271.751 134.96C271.911 135.12 271.991 135.34 271.991 135.62V144.72C271.991 144.986 271.911 145.206 271.751 145.38C271.604 145.553 271.391 145.64 271.111 145.64ZM262.751 145.64C262.484 145.64 262.264 145.553 262.091 145.38C261.931 145.206 261.851 144.986 261.851 144.72V135.62C261.851 135.34 261.931 135.12 262.091 134.96C262.264 134.786 262.484 134.7 262.751 134.7C263.017 134.7 263.237 134.786 263.411 134.96C263.584 135.12 263.671 135.34 263.671 135.62V144.72C263.671 144.986 263.584 145.206 263.411 145.38C263.237 145.553 263.017 145.64 262.751 145.64ZM263.411 140.84V139.2H270.751V140.84H263.411ZM280.101 145.84C279.221 145.84 278.441 145.66 277.761 145.3C277.081 144.926 276.548 144.42 276.161 143.78C275.775 143.126 275.581 142.386 275.581 141.56V135.6C275.608 135.333 275.701 135.12 275.861 134.96C276.035 134.786 276.248 134.7 276.501 134.7C276.781 134.7 277.001 134.786 277.161 134.96C277.335 135.12 277.421 135.34 277.421 135.62V138.1H280.261C281.075 138.1 281.801 138.246 282.441 138.54C283.081 138.833 283.581 139.26 283.941 139.82C284.301 140.38 284.481 141.053 284.481 141.84C284.481 142.68 284.295 143.4 283.921 144C283.548 144.586 283.028 145.04 282.361 145.36C281.708 145.68 280.955 145.84 280.101 145.84ZM280.101 144.12C280.861 144.12 281.481 143.933 281.961 143.56C282.455 143.173 282.701 142.6 282.701 141.84C282.701 141.106 282.468 140.566 282.001 140.22C281.548 139.86 280.968 139.68 280.261 139.68H277.421V141.52C277.421 142.28 277.668 142.906 278.161 143.4C278.668 143.88 279.315 144.12 280.101 144.12ZM287.141 145.64C286.875 145.64 286.655 145.553 286.481 145.38C286.308 145.206 286.221 144.986 286.221 144.72V135.62C286.221 135.34 286.308 135.12 286.481 134.96C286.655 134.786 286.875 134.7 287.141 134.7C287.421 134.7 287.641 134.786 287.801 134.96C287.975 135.12 288.061 135.34 288.061 135.62V144.72C288.061 144.986 287.975 145.206 287.801 145.38C287.641 145.553 287.421 145.64 287.141 145.64Z" fill="#FFFFFF"/>
</svg>
