<svg viewBox="0 0 256 215" fill="none" xmlns="http://www.w3.org/2000/svg">
<path d="M9.15906 71.2315L1.46326 91.4478L1 91.9111L1.46326 141.194V150.239L10.5081 159.284V168.328L12.4361 172.851L21.6355 177.373V188.705L24.5673 210.482L37.6424 199.985L55.7319 213.552L73.8215 213.829L96.4335 199.985L123.568 195.463H173.314L204.971 209.03L218.538 199.985V190.94H245.672L254.717 186.418L250.195 177.373L209.493 181.896L195.926 159.284L168.792 172.851L159.747 168.328L105.478 172.851V141.194H96.4335L91.9111 150.239H87.3887L82.8663 145.716L91.9111 136.672L51.2095 118.582L37.6424 100.493L28.5976 91.4478V73.3583L46.6872 68.8359V50.7463L64.7767 41.7015L69.2991 23.6119V10.0448L28.5976 1V10.0448L19.5529 28.1343L15.0305 41.7015L9.15906 46.2239V55.2687V71.2315Z" fill="#00A1E1" stroke="white" stroke-linecap="round" stroke-linejoin="round"/>
<rect x="39.8516" y="131.671" width="30" height="30" rx="15" fill="#FFFFFF"/>
<rect x="48.8516" y="140.671" width="12" height="12" rx="6" fill="#00A1E1"/>
<path d="M39.3886 184.671C39.1353 184.671 38.9153 184.585 38.7286 184.411C38.5419 184.225 38.4486 183.998 38.4486 183.731V169.051H40.3286V183.731C40.3286 183.998 40.2419 184.225 40.0686 184.411C39.8953 184.585 39.6686 184.671 39.3886 184.671ZM33.9686 170.771C33.7153 170.771 33.5086 170.691 33.3486 170.531C33.1886 170.371 33.1086 170.165 33.1086 169.911C33.1086 169.658 33.1886 169.451 33.3486 169.291C33.5086 169.131 33.7153 169.051 33.9686 169.051H44.8086C45.0753 169.051 45.2886 169.131 45.4486 169.291C45.6086 169.451 45.6886 169.658 45.6886 169.911C45.6886 170.165 45.6086 170.371 45.4486 170.531C45.2886 170.691 45.0753 170.771 44.8086 170.771H33.9686ZM49.4444 184.751C48.4444 184.751 47.551 184.511 46.7644 184.031C45.9777 183.551 45.3577 182.891 44.9044 182.051C44.451 181.211 44.2244 180.265 44.2244 179.211C44.2244 178.145 44.4644 177.198 44.9444 176.371C45.4377 175.531 46.0977 174.871 46.9244 174.391C47.7644 173.898 48.7044 173.651 49.7444 173.651C50.7977 173.651 51.7377 173.898 52.5644 174.391C53.391 174.871 54.0444 175.531 54.5244 176.371C55.0177 177.211 55.271 178.158 55.2844 179.211L54.5644 179.391C54.5644 180.405 54.3377 181.318 53.8844 182.131C53.431 182.945 52.8177 183.585 52.0444 184.051C51.2844 184.518 50.4177 184.751 49.4444 184.751ZM49.7444 183.111C50.4644 183.111 51.1044 182.945 51.6644 182.611C52.2244 182.265 52.6644 181.798 52.9844 181.211C53.3177 180.611 53.4844 179.945 53.4844 179.211C53.4844 178.465 53.3177 177.798 52.9844 177.211C52.6644 176.611 52.2244 176.145 51.6644 175.811C51.1044 175.465 50.4644 175.291 49.7444 175.291C49.051 175.291 48.4177 175.465 47.8444 175.811C47.271 176.145 46.8177 176.611 46.4844 177.211C46.1644 177.798 46.0044 178.465 46.0044 179.211C46.0044 179.945 46.1644 180.611 46.4844 181.211C46.8177 181.798 47.271 182.265 47.8444 182.611C48.4177 182.945 49.051 183.111 49.7444 183.111ZM54.3444 184.691C54.0777 184.691 53.8577 184.605 53.6844 184.431C53.511 184.258 53.4244 184.038 53.4244 183.771V180.571L53.8044 178.651L55.2844 179.211V183.771C55.2844 184.038 55.191 184.258 55.0044 184.431C54.831 184.605 54.611 184.691 54.3444 184.691ZM62.4 173.751C62.5733 173.751 62.7333 173.798 62.88 173.891C63.04 173.985 63.1667 174.138 63.26 174.351L67.46 183.491C67.5667 183.718 67.5733 183.931 67.48 184.131C67.4 184.318 67.2533 184.465 67.04 184.571C66.7867 184.678 66.56 184.705 66.36 184.651C66.16 184.585 65.9933 184.431 65.86 184.191L61.96 175.391H62.92L58.92 184.171C58.8133 184.411 58.6467 184.565 58.42 184.631C58.2067 184.698 57.9733 184.671 57.72 184.551C57.4933 184.445 57.3333 184.298 57.24 184.111C57.16 183.925 57.1733 183.711 57.28 183.471L61.52 174.351C61.7067 173.951 62 173.751 62.4 173.751ZM69.5583 180.011C69.2916 180.011 69.0716 179.938 68.8983 179.791C68.7249 179.645 68.6383 179.445 68.6383 179.191C68.6383 178.938 68.7249 178.738 68.8983 178.591C69.0716 178.445 69.2916 178.371 69.5583 178.371H74.7583C75.0383 178.371 75.2649 178.445 75.4383 178.591C75.6116 178.738 75.6983 178.938 75.6983 179.191C75.6983 179.445 75.6116 179.645 75.4383 179.791C75.2649 179.938 75.0383 180.011 74.7583 180.011H69.5583ZM71.1983 184.671C70.9316 184.671 70.7116 184.585 70.5383 184.411C70.3649 184.238 70.2783 184.018 70.2783 183.751V174.651C70.2783 174.371 70.3649 174.151 70.5383 173.991C70.7116 173.818 70.9316 173.731 71.1983 173.731H77.0183C77.2716 173.731 77.4783 173.811 77.6383 173.971C77.7983 174.131 77.8783 174.331 77.8783 174.571C77.8783 174.825 77.7983 175.031 77.6383 175.191C77.4783 175.351 77.2716 175.431 77.0183 175.431L72.0983 175.411V183.751C72.0983 184.018 72.0183 184.238 71.8583 184.411C71.6983 184.585 71.4783 184.671 71.1983 184.671ZM84.7373 184.751C83.7373 184.751 82.844 184.511 82.0573 184.031C81.2707 183.551 80.6507 182.891 80.1973 182.051C79.744 181.211 79.5173 180.265 79.5173 179.211C79.5173 178.145 79.7573 177.198 80.2373 176.371C80.7307 175.531 81.3907 174.871 82.2173 174.391C83.0573 173.898 83.9973 173.651 85.0373 173.651C86.0907 173.651 87.0307 173.898 87.8573 174.391C88.684 174.871 89.3373 175.531 89.8173 176.371C90.3107 177.211 90.564 178.158 90.5773 179.211L89.8573 179.391C89.8573 180.405 89.6307 181.318 89.1773 182.131C88.724 182.945 88.1107 183.585 87.3373 184.051C86.5773 184.518 85.7107 184.751 84.7373 184.751ZM85.0373 183.111C85.7573 183.111 86.3973 182.945 86.9573 182.611C87.5173 182.265 87.9573 181.798 88.2773 181.211C88.6107 180.611 88.7773 179.945 88.7773 179.211C88.7773 178.465 88.6107 177.798 88.2773 177.211C87.9573 176.611 87.5173 176.145 86.9573 175.811C86.3973 175.465 85.7573 175.291 85.0373 175.291C84.344 175.291 83.7107 175.465 83.1373 175.811C82.564 176.145 82.1107 176.611 81.7773 177.211C81.4573 177.798 81.2973 178.465 81.2973 179.211C81.2973 179.945 81.4573 180.611 81.7773 181.211C82.1107 181.798 82.564 182.265 83.1373 182.611C83.7107 182.945 84.344 183.111 85.0373 183.111ZM89.6373 184.691C89.3707 184.691 89.1507 184.605 88.9773 184.431C88.804 184.258 88.7173 184.038 88.7173 183.771V180.571L89.0973 178.651L90.5773 179.211V183.771C90.5773 184.038 90.484 184.258 90.2973 184.431C90.124 184.605 89.904 184.691 89.6373 184.691ZM94.513 189.351C94.2463 189.351 94.0263 189.265 93.853 189.091C93.6796 188.918 93.593 188.698 93.593 188.431V179.171C93.6063 178.131 93.853 177.191 94.333 176.351C94.8263 175.511 95.4863 174.851 96.313 174.371C97.1396 173.891 98.073 173.651 99.113 173.651C100.166 173.651 101.106 173.898 101.933 174.391C102.773 174.871 103.433 175.531 103.913 176.371C104.406 177.198 104.653 178.145 104.653 179.211C104.653 180.265 104.42 181.211 103.953 182.051C103.5 182.891 102.88 183.551 102.093 184.031C101.306 184.511 100.42 184.751 99.433 184.751C98.593 184.751 97.833 184.578 97.153 184.231C96.473 183.885 95.8996 183.418 95.433 182.831V188.431C95.433 188.698 95.3463 188.918 95.173 189.091C95.013 189.265 94.793 189.351 94.513 189.351ZM99.113 183.111C99.8196 183.111 100.453 182.945 101.013 182.611C101.586 182.265 102.033 181.798 102.353 181.211C102.686 180.611 102.853 179.945 102.853 179.211C102.853 178.465 102.686 177.798 102.353 177.211C102.033 176.611 101.586 176.145 101.013 175.811C100.453 175.465 99.8196 175.291 99.113 175.291C98.4063 175.291 97.7663 175.465 97.193 175.811C96.633 176.158 96.193 176.625 95.873 177.211C95.553 177.798 95.393 178.465 95.393 179.211C95.393 179.945 95.553 180.611 95.873 181.211C96.193 181.798 96.633 182.265 97.193 182.611C97.7663 182.945 98.4063 183.111 99.113 183.111ZM35.6065 206.751C34.6065 206.751 33.7132 206.511 32.9265 206.031C32.1398 205.551 31.5198 204.891 31.0665 204.051C30.6132 203.211 30.3865 202.265 30.3865 201.211C30.3865 200.145 30.6265 199.198 31.1065 198.371C31.5998 197.531 32.2598 196.871 33.0865 196.391C33.9265 195.898 34.8665 195.651 35.9065 195.651C36.9598 195.651 37.8998 195.898 38.7265 196.391C39.5532 196.871 40.2065 197.531 40.6865 198.371C41.1798 199.211 41.4332 200.158 41.4465 201.211L40.7265 201.391C40.7265 202.405 40.4998 203.318 40.0465 204.131C39.5932 204.945 38.9798 205.585 38.2065 206.051C37.4465 206.518 36.5798 206.751 35.6065 206.751ZM35.9065 205.111C36.6265 205.111 37.2665 204.945 37.8265 204.611C38.3865 204.265 38.8265 203.798 39.1465 203.211C39.4798 202.611 39.6465 201.945 39.6465 201.211C39.6465 200.465 39.4798 199.798 39.1465 199.211C38.8265 198.611 38.3865 198.145 37.8265 197.811C37.2665 197.465 36.6265 197.291 35.9065 197.291C35.2132 197.291 34.5798 197.465 34.0065 197.811C33.4332 198.145 32.9798 198.611 32.6465 199.211C32.3265 199.798 32.1665 200.465 32.1665 201.211C32.1665 201.945 32.3265 202.611 32.6465 203.211C32.9798 203.798 33.4332 204.265 34.0065 204.611C34.5798 204.945 35.2132 205.111 35.9065 205.111ZM40.5065 206.691C40.2398 206.691 40.0198 206.605 39.8465 206.431C39.6732 206.258 39.5865 206.038 39.5865 205.771V202.571L39.9665 200.651L41.4465 201.211V205.771C41.4465 206.038 41.3532 206.258 41.1665 206.431C40.9932 206.605 40.7732 206.691 40.5065 206.691ZM43.6766 211.471C43.4233 211.471 43.1633 211.431 42.8966 211.351C42.63 211.285 42.37 211.178 42.1166 211.031C41.85 210.871 41.6766 210.671 41.5966 210.431C41.5166 210.205 41.5633 209.978 41.7366 209.751C41.8833 209.551 42.0633 209.431 42.2766 209.391C42.49 209.365 42.7166 209.418 42.9566 209.551C43.1033 209.631 43.2433 209.691 43.3766 209.731C43.51 209.771 43.65 209.791 43.7966 209.791C44.2366 209.791 44.6566 209.578 45.0566 209.151C45.4566 208.725 45.8366 208.098 46.1966 207.271L51.0566 196.191C51.1633 195.951 51.33 195.791 51.5566 195.711C51.7833 195.631 52.01 195.645 52.2366 195.751C52.45 195.831 52.59 195.985 52.6566 196.211C52.7233 196.438 52.6966 196.678 52.5766 196.931L47.6766 207.991C47.2233 209.031 46.6433 209.871 45.9366 210.511C45.23 211.151 44.4766 211.471 43.6766 211.471ZM48.0966 206.271C47.8566 206.378 47.6366 206.391 47.4366 206.311C47.2366 206.231 47.0766 206.078 46.9566 205.851L42.4166 196.931C42.2966 196.705 42.2766 196.485 42.3566 196.271C42.45 196.058 42.6166 195.905 42.8566 195.811C43.0833 195.705 43.2966 195.691 43.4966 195.771C43.71 195.838 43.87 195.991 43.9766 196.231L48.3766 205.071C48.4966 205.311 48.5366 205.545 48.4966 205.771C48.4566 205.998 48.3233 206.165 48.0966 206.271ZM59.1807 206.751C58.154 206.751 57.2474 206.518 56.4607 206.051C55.6874 205.571 55.074 204.918 54.6207 204.091C54.1807 203.251 53.9607 202.291 53.9607 201.211C53.9607 200.118 54.194 199.158 54.6607 198.331C55.1407 197.491 55.794 196.838 56.6207 196.371C57.4607 195.891 58.414 195.651 59.4807 195.651C60.5607 195.651 61.514 195.891 62.3407 196.371C63.1674 196.838 63.814 197.491 64.2807 198.331C64.7607 199.158 65.0074 200.118 65.0207 201.211L63.9407 201.391C63.9407 202.445 63.734 203.378 63.3207 204.191C62.9207 204.991 62.3607 205.618 61.6407 206.071C60.9207 206.525 60.1007 206.751 59.1807 206.751ZM59.4807 211.131C58.494 211.131 57.5874 210.938 56.7607 210.551C55.9474 210.178 55.2674 209.638 54.7207 208.931C54.5607 208.731 54.494 208.518 54.5207 208.291C54.5607 208.078 54.6807 207.905 54.8807 207.771C55.094 207.625 55.3207 207.571 55.5607 207.611C55.8007 207.665 55.994 207.785 56.1407 207.971C56.514 208.438 56.9807 208.805 57.5407 209.071C58.114 209.338 58.774 209.471 59.5207 209.471C60.2007 209.471 60.8207 209.305 61.3807 208.971C61.9407 208.651 62.3874 208.178 62.7207 207.551C63.054 206.938 63.2207 206.198 63.2207 205.331V202.411L63.8407 200.891L65.0207 201.211V205.431C65.0207 206.498 64.7807 207.458 64.3007 208.311C63.834 209.178 63.1807 209.865 62.3407 210.371C61.514 210.878 60.5607 211.131 59.4807 211.131ZM59.4807 205.111C60.214 205.111 60.8607 204.945 61.4207 204.611C61.9807 204.278 62.4207 203.818 62.7407 203.231C63.0607 202.645 63.2207 201.971 63.2207 201.211C63.2207 200.451 63.0607 199.778 62.7407 199.191C62.4207 198.591 61.9807 198.125 61.4207 197.791C60.8607 197.458 60.214 197.291 59.4807 197.291C58.7607 197.291 58.114 197.458 57.5407 197.791C56.9807 198.125 56.5407 198.591 56.2207 199.191C55.9007 199.778 55.7407 200.451 55.7407 201.211C55.7407 201.971 55.9007 202.645 56.2207 203.231C56.5407 203.818 56.9807 204.278 57.5407 204.611C58.114 204.945 58.7607 205.111 59.4807 205.111ZM72.6963 206.751C71.6963 206.751 70.803 206.511 70.0163 206.031C69.2297 205.551 68.6097 204.891 68.1563 204.051C67.703 203.211 67.4763 202.265 67.4763 201.211C67.4763 200.145 67.7163 199.198 68.1963 198.371C68.6897 197.531 69.3497 196.871 70.1763 196.391C71.0163 195.898 71.9563 195.651 72.9963 195.651C74.0497 195.651 74.9897 195.898 75.8163 196.391C76.643 196.871 77.2963 197.531 77.7763 198.371C78.2697 199.211 78.523 200.158 78.5363 201.211L77.8163 201.391C77.8163 202.405 77.5897 203.318 77.1363 204.131C76.683 204.945 76.0697 205.585 75.2963 206.051C74.5363 206.518 73.6697 206.751 72.6963 206.751ZM72.9963 205.111C73.7163 205.111 74.3563 204.945 74.9163 204.611C75.4763 204.265 75.9163 203.798 76.2363 203.211C76.5697 202.611 76.7363 201.945 76.7363 201.211C76.7363 200.465 76.5697 199.798 76.2363 199.211C75.9163 198.611 75.4763 198.145 74.9163 197.811C74.3563 197.465 73.7163 197.291 72.9963 197.291C72.303 197.291 71.6697 197.465 71.0963 197.811C70.523 198.145 70.0697 198.611 69.7363 199.211C69.4163 199.798 69.2563 200.465 69.2563 201.211C69.2563 201.945 69.4163 202.611 69.7363 203.211C70.0697 203.798 70.523 204.265 71.0963 204.611C71.6697 204.945 72.303 205.111 72.9963 205.111ZM77.5963 206.691C77.3297 206.691 77.1097 206.605 76.9363 206.431C76.763 206.258 76.6763 206.038 76.6763 205.771V202.571L77.0563 200.651L78.5363 201.211V205.771C78.5363 206.038 78.443 206.258 78.2563 206.431C78.083 206.605 77.863 206.691 77.5963 206.691ZM90.812 206.671C90.5453 206.671 90.3253 206.585 90.152 206.411C89.9786 206.238 89.892 206.018 89.892 205.751V196.651C89.892 196.371 89.9786 196.151 90.152 195.991C90.3253 195.818 90.5453 195.731 90.812 195.731C91.092 195.731 91.3053 195.818 91.452 195.991C91.612 196.151 91.692 196.371 91.692 196.651V205.751C91.692 206.018 91.612 206.238 91.452 206.411C91.3053 206.585 91.092 206.671 90.812 206.671ZM82.452 206.671C82.1853 206.671 81.9653 206.585 81.792 206.411C81.632 206.238 81.552 206.018 81.552 205.751V196.651C81.552 196.371 81.632 196.151 81.792 195.991C81.9653 195.818 82.1853 195.731 82.452 195.731C82.7186 195.731 82.9386 195.818 83.112 195.991C83.2853 196.151 83.372 196.371 83.372 196.651V205.751C83.372 206.018 83.2853 206.238 83.112 206.411C82.9386 206.585 82.7186 206.671 82.452 206.671ZM83.112 201.871V200.231H90.452V201.871H83.112ZM99.8024 206.871C98.9224 206.871 98.1424 206.691 97.4624 206.331C96.7824 205.958 96.2491 205.451 95.8624 204.811C95.4758 204.158 95.2824 203.418 95.2824 202.591V196.631C95.3091 196.365 95.4024 196.151 95.5624 195.991C95.7358 195.818 95.9491 195.731 96.2024 195.731C96.4824 195.731 96.7024 195.818 96.8624 195.991C97.0358 196.151 97.1224 196.371 97.1224 196.651V199.131H99.9624C100.776 199.131 101.502 199.278 102.142 199.571C102.782 199.865 103.282 200.291 103.642 200.851C104.002 201.411 104.182 202.085 104.182 202.871C104.182 203.711 103.996 204.431 103.622 205.031C103.249 205.618 102.729 206.071 102.062 206.391C101.409 206.711 100.656 206.871 99.8024 206.871ZM99.8024 205.151C100.562 205.151 101.182 204.965 101.662 204.591C102.156 204.205 102.402 203.631 102.402 202.871C102.402 202.138 102.169 201.598 101.702 201.251C101.249 200.891 100.669 200.711 99.9624 200.711H97.1224V202.551C97.1224 203.311 97.3691 203.938 97.8624 204.431C98.3691 204.911 99.0158 205.151 99.8024 205.151ZM106.842 206.671C106.576 206.671 106.356 206.585 106.182 206.411C106.009 206.238 105.922 206.018 105.922 205.751V196.651C105.922 196.371 106.009 196.151 106.182 195.991C106.356 195.818 106.576 195.731 106.842 195.731C107.122 195.731 107.342 195.818 107.502 195.991C107.676 196.151 107.762 196.371 107.762 196.651V205.751C107.762 206.018 107.676 206.238 107.502 206.411C107.342 206.585 107.122 206.671 106.842 206.671Z" fill="#FFFFFF"/>
</svg>
