<svg viewBox="0 0 481 258" fill="none" xmlns="http://www.w3.org/2000/svg">
<path d="M448.574 256.772L463.969 253.801L469.153 253.997L466.314 227.12L450.287 217.378L446.663 188.466L450.287 157.732L457.269 145.716V127.627L461.792 109.537L475.359 105.015L470.837 86.9254L479.881 68.8358V55.2687H470.837L434.657 64.3135L415.456 50.7463L406.794 28.1343L393.956 1L366.822 10.0447L339.687 14.5671L303.508 23.6119H276.374L226.627 50.7463L217.583 59.7911L194.971 46.2239L172.359 55.2687L185.926 77.8806L226.627 73.3582L231.15 82.403L222.105 86.9254H194.971V95.9702L181.404 105.015L149.747 91.4478H100.001L72.8662 95.9702L50.2543 109.814L32.1647 109.537L14.0751 95.9702L1 106.467L1.4505 109.814V137.682L20.2488 140.864L26.5078 139.051L34.6004 135.1L37.5189 134.458L40.4587 134.668L45.7698 136.491L53.3672 136.449L57.0761 138.43L60.4166 141.19L64.1044 143.308L67.2866 143.382L77.3073 138.525L81.2903 137.756L93.8932 138.251L106.759 141.359L107.96 142.897L108.75 144.625L109.994 146.058L112.249 147.67L117.138 145.447L120.309 143.34L122.027 142.592L126.347 141.97L130.762 142.476L135.019 144.109L145.873 150.547L154.355 151.979L174.839 150.083L183.564 150.557L192.384 149.293L196.072 149.967L203.901 152.812L207.926 153.054L211.203 151.811L218.126 147.344L222.109 145.858L230.518 145.226L243.226 146.543L261.971 153.128L269.822 157.732L276.407 163.264L279.684 164.96L302.75 167.299L318.061 173.61L330.684 174.337L338.06 177.266L345.299 177.519L360.178 169.954L367.712 168.5L372.506 169.891L373.929 172.504L372.843 182.482L373.023 188.466L374.129 193.734L376.099 198.592L378.797 203.344L385.625 210.245L400.735 217.378L406.794 223.805L415.456 244.55L420.661 251.599L430.345 255.624L448.574 256.772Z" fill="#00A1E1"/>
<path d="M472.357 254.117L469.153 253.997M469.153 253.997L463.969 253.801L448.574 256.772L430.345 255.624L420.661 251.599L415.456 244.55L406.794 223.805L400.735 217.378L385.625 210.245L378.797 203.344L376.099 198.592L374.129 193.734L373.023 188.466L372.843 182.482L373.929 172.504L372.506 169.891L367.712 168.5L360.178 169.954L345.299 177.519L338.06 177.266L330.684 174.337L318.061 173.61L302.75 167.299L279.684 164.96L276.407 163.264L269.822 157.732L261.971 153.128L243.226 146.543L230.518 145.226L222.109 145.858L218.126 147.344L211.203 151.811L207.926 153.054L203.901 152.812L196.072 149.967L192.384 149.293L183.564 150.557L174.839 150.083L154.355 151.979L145.873 150.547L135.019 144.109L130.762 142.476L126.347 141.97L122.027 142.592L120.309 143.34L117.138 145.447L112.249 147.67L109.994 146.058L108.75 144.625L107.96 142.897L106.759 141.359L93.8932 138.251L81.2903 137.756L77.3073 138.525L67.2866 143.382L64.1044 143.308L60.4166 141.19L57.0761 138.43L53.3672 136.449L45.7698 136.491L40.4587 134.668L37.5189 134.458L34.6004 135.1L26.5078 139.051L20.2488 140.864L1.4505 137.682V109.814L1 106.467L14.0751 95.9702L32.1647 109.537L50.2543 109.814L72.8662 95.9702L100.001 91.4478H149.747L181.404 105.015L194.971 95.9702V86.9254H222.105L231.15 82.403L226.627 73.3582L185.926 77.8806L172.359 55.2687L194.971 46.2239L217.583 59.7911L226.627 50.7463L276.374 23.6119H303.508L339.687 14.5671L366.822 10.0447L393.956 1L406.794 28.1343L415.456 50.7463L434.657 64.3135L470.837 55.2687H479.881V68.8358L470.837 86.9254L475.359 105.015L461.792 109.537L457.269 127.627V145.716L450.287 157.732L446.663 188.466L450.287 217.378L466.314 227.12L469.153 253.997Z" stroke="white" stroke-linecap="round" stroke-linejoin="round"/>
<rect x="303.285" y="67.6562" width="30" height="30" rx="15" fill="#FFFFFF"/>
<rect x="312.285" y="76.6562" width="12" height="12" rx="6" fill="#00A1E1"/>
<path d="M256.885 124.416C256.725 124.59 256.498 124.67 256.205 124.656C255.925 124.656 255.705 124.563 255.545 124.376L249.005 116.696L255.065 109.336C255.238 109.136 255.458 109.036 255.725 109.036C255.991 109.023 256.211 109.11 256.385 109.296C256.558 109.496 256.638 109.703 256.625 109.916C256.625 110.116 256.538 110.316 256.365 110.516L251.265 116.596L256.925 123.176C257.085 123.376 257.165 123.583 257.165 123.796C257.178 124.01 257.085 124.216 256.885 124.416ZM246.585 124.656C246.318 124.656 246.091 124.57 245.905 124.396C245.731 124.21 245.645 123.983 245.645 123.716V109.976C245.645 109.696 245.731 109.47 245.905 109.296C246.091 109.123 246.318 109.036 246.585 109.036C246.865 109.036 247.091 109.123 247.265 109.296C247.438 109.47 247.525 109.696 247.525 109.976V115.916H250.765V117.576H247.525V123.716C247.525 123.983 247.438 124.21 247.265 124.396C247.091 124.57 246.865 124.656 246.585 124.656ZM263.61 124.736C262.504 124.736 261.524 124.503 260.67 124.036C259.83 123.556 259.17 122.903 258.69 122.076C258.21 121.236 257.97 120.276 257.97 119.196C257.97 118.103 258.197 117.143 258.65 116.316C259.104 115.476 259.73 114.823 260.53 114.356C261.33 113.876 262.257 113.636 263.31 113.636C264.337 113.636 265.224 113.87 265.97 114.336C266.717 114.79 267.29 115.423 267.69 116.236C268.09 117.036 268.29 117.963 268.29 119.016C268.29 119.243 268.21 119.436 268.05 119.596C267.904 119.743 267.704 119.816 267.45 119.816H259.23V118.336H267.47L266.65 118.916C266.637 118.21 266.497 117.576 266.23 117.016C265.964 116.456 265.584 116.016 265.09 115.696C264.597 115.376 264.004 115.216 263.31 115.216C262.55 115.216 261.89 115.39 261.33 115.736C260.784 116.083 260.364 116.556 260.07 117.156C259.777 117.756 259.63 118.436 259.63 119.196C259.63 119.956 259.797 120.636 260.13 121.236C260.477 121.823 260.944 122.29 261.53 122.636C262.13 122.983 262.824 123.156 263.61 123.156C264.037 123.156 264.477 123.076 264.93 122.916C265.397 122.756 265.764 122.57 266.03 122.356C266.217 122.21 266.417 122.136 266.63 122.136C266.844 122.123 267.03 122.183 267.19 122.316C267.39 122.503 267.497 122.71 267.51 122.936C267.524 123.15 267.43 123.336 267.23 123.496C266.777 123.856 266.21 124.156 265.53 124.396C264.864 124.623 264.224 124.736 263.61 124.736ZM274.254 124.736C273.44 124.736 272.707 124.616 272.054 124.376C271.414 124.123 270.9 123.77 270.514 123.316C270.14 122.85 269.954 122.316 269.954 121.716C269.954 121.156 270.114 120.67 270.434 120.256C270.754 119.83 271.227 119.463 271.854 119.156C272.48 118.85 273.267 118.603 274.214 118.416C275.107 118.23 275.714 117.996 276.034 117.716C276.367 117.436 276.534 117.076 276.534 116.636C276.534 116.196 276.327 115.856 275.914 115.616C275.5 115.363 274.987 115.236 274.374 115.236C273.867 115.236 273.38 115.323 272.914 115.496C272.447 115.656 272.06 115.89 271.754 116.196C271.58 116.383 271.38 116.503 271.154 116.556C270.94 116.61 270.76 116.59 270.614 116.496C270.374 116.363 270.227 116.183 270.174 115.956C270.134 115.716 270.187 115.503 270.334 115.316C270.734 114.81 271.287 114.403 271.994 114.096C272.7 113.79 273.494 113.636 274.374 113.636C275.12 113.636 275.787 113.756 276.374 113.996C276.974 114.223 277.447 114.563 277.794 115.016C278.154 115.47 278.334 116.023 278.334 116.676C278.334 117.423 278.034 118.063 277.434 118.596C276.847 119.13 275.92 119.536 274.654 119.816C273.574 120.043 272.827 120.31 272.414 120.616C272 120.91 271.8 121.27 271.814 121.696C271.814 122.15 272.014 122.496 272.414 122.736C272.814 122.976 273.42 123.096 274.234 123.096C274.927 123.096 275.52 123.023 276.014 122.876C276.52 122.73 276.927 122.49 277.234 122.156C277.394 121.97 277.58 121.85 277.794 121.796C278.02 121.743 278.247 121.81 278.474 121.996C278.687 122.156 278.794 122.35 278.794 122.576C278.807 122.79 278.72 122.996 278.534 123.196C278.094 123.65 277.48 124.023 276.694 124.316C275.92 124.596 275.107 124.736 274.254 124.736ZM286.443 124.736C285.336 124.736 284.356 124.503 283.503 124.036C282.663 123.556 282.003 122.903 281.523 122.076C281.043 121.236 280.803 120.276 280.803 119.196C280.803 118.103 281.029 117.143 281.483 116.316C281.936 115.476 282.563 114.823 283.363 114.356C284.163 113.876 285.089 113.636 286.143 113.636C287.169 113.636 288.056 113.87 288.803 114.336C289.549 114.79 290.123 115.423 290.523 116.236C290.923 117.036 291.123 117.963 291.123 119.016C291.123 119.243 291.043 119.436 290.883 119.596C290.736 119.743 290.536 119.816 290.283 119.816H282.062V118.336H290.303L289.483 118.916C289.469 118.21 289.329 117.576 289.063 117.016C288.796 116.456 288.416 116.016 287.923 115.696C287.429 115.376 286.836 115.216 286.143 115.216C285.383 115.216 284.723 115.39 284.163 115.736C283.616 116.083 283.196 116.556 282.903 117.156C282.609 117.756 282.463 118.436 282.463 119.196C282.463 119.956 282.629 120.636 282.963 121.236C283.309 121.823 283.776 122.29 284.363 122.636C284.963 122.983 285.656 123.156 286.443 123.156C286.869 123.156 287.309 123.076 287.763 122.916C288.229 122.756 288.596 122.57 288.863 122.356C289.049 122.21 289.249 122.136 289.463 122.136C289.676 122.123 289.863 122.183 290.023 122.316C290.223 122.503 290.329 122.71 290.343 122.936C290.356 123.15 290.263 123.336 290.063 123.496C289.609 123.856 289.043 124.156 288.363 124.396C287.696 124.623 287.056 124.736 286.443 124.736ZM302.986 124.656C302.719 124.656 302.499 124.57 302.326 124.396C302.152 124.223 302.066 124.003 302.066 123.736V114.636C302.066 114.356 302.152 114.136 302.326 113.976C302.499 113.803 302.719 113.716 302.986 113.716C303.266 113.716 303.479 113.803 303.626 113.976C303.786 114.136 303.866 114.356 303.866 114.636V123.736C303.866 124.003 303.786 124.223 303.626 124.396C303.479 124.57 303.266 124.656 302.986 124.656ZM294.626 124.656C294.359 124.656 294.139 124.57 293.966 124.396C293.806 124.223 293.726 124.003 293.726 123.736V114.636C293.726 114.356 293.806 114.136 293.966 113.976C294.139 113.803 294.359 113.716 294.626 113.716C294.892 113.716 295.112 113.803 295.286 113.976C295.459 114.136 295.546 114.356 295.546 114.636V123.736C295.546 124.003 295.459 124.223 295.286 124.396C295.112 124.57 294.892 124.656 294.626 124.656ZM295.286 119.856V118.216H302.626V119.856H295.286ZM317.976 124.736C316.976 124.736 316.082 124.496 315.296 124.016C314.509 123.536 313.889 122.876 313.436 122.036C312.982 121.196 312.756 120.25 312.756 119.196C312.756 118.13 312.996 117.183 313.476 116.356C313.969 115.516 314.629 114.856 315.456 114.376C316.296 113.883 317.236 113.636 318.276 113.636C319.329 113.636 320.269 113.883 321.096 114.376C321.922 114.856 322.576 115.516 323.056 116.356C323.549 117.196 323.802 118.143 323.816 119.196L323.096 119.376C323.096 120.39 322.869 121.303 322.416 122.116C321.962 122.93 321.349 123.57 320.576 124.036C319.816 124.503 318.949 124.736 317.976 124.736ZM318.276 123.096C318.996 123.096 319.636 122.93 320.196 122.596C320.756 122.25 321.196 121.783 321.516 121.196C321.849 120.596 322.016 119.93 322.016 119.196C322.016 118.45 321.849 117.783 321.516 117.196C321.196 116.596 320.756 116.13 320.196 115.796C319.636 115.45 318.996 115.276 318.276 115.276C317.582 115.276 316.949 115.45 316.376 115.796C315.802 116.13 315.349 116.596 315.016 117.196C314.696 117.783 314.536 118.45 314.536 119.196C314.536 119.93 314.696 120.596 315.016 121.196C315.349 121.783 315.802 122.25 316.376 122.596C316.949 122.93 317.582 123.096 318.276 123.096ZM322.876 124.676C322.609 124.676 322.389 124.59 322.216 124.416C322.042 124.243 321.956 124.023 321.956 123.756V120.556L322.336 118.636L323.816 119.196V123.756C323.816 124.023 323.722 124.243 323.536 124.416C323.362 124.59 323.142 124.676 322.876 124.676ZM326.046 129.456C325.792 129.456 325.532 129.416 325.266 129.336C324.999 129.27 324.739 129.163 324.486 129.016C324.219 128.856 324.046 128.656 323.966 128.416C323.886 128.19 323.932 127.963 324.106 127.736C324.252 127.536 324.432 127.416 324.646 127.376C324.859 127.35 325.086 127.403 325.326 127.536C325.472 127.616 325.612 127.676 325.746 127.716C325.879 127.756 326.019 127.776 326.166 127.776C326.606 127.776 327.026 127.563 327.426 127.136C327.826 126.71 328.206 126.083 328.566 125.256L333.426 114.176C333.532 113.936 333.699 113.776 333.926 113.696C334.152 113.616 334.379 113.63 334.606 113.736C334.819 113.816 334.959 113.97 335.026 114.196C335.092 114.423 335.066 114.663 334.946 114.916L330.046 125.976C329.592 127.016 329.012 127.856 328.306 128.496C327.599 129.136 326.846 129.456 326.046 129.456ZM330.466 124.256C330.226 124.363 330.006 124.376 329.806 124.296C329.606 124.216 329.446 124.063 329.326 123.836L324.786 114.916C324.666 114.69 324.646 114.47 324.726 114.256C324.819 114.043 324.986 113.89 325.226 113.796C325.452 113.69 325.666 113.676 325.866 113.756C326.079 113.823 326.239 113.976 326.346 114.216L330.746 123.056C330.866 123.296 330.906 123.53 330.866 123.756C330.826 123.983 330.692 124.15 330.466 124.256ZM341.55 124.736C340.523 124.736 339.617 124.503 338.83 124.036C338.057 123.556 337.443 122.903 336.99 122.076C336.55 121.236 336.33 120.276 336.33 119.196C336.33 118.103 336.563 117.143 337.03 116.316C337.51 115.476 338.163 114.823 338.99 114.356C339.83 113.876 340.783 113.636 341.85 113.636C342.93 113.636 343.883 113.876 344.71 114.356C345.537 114.823 346.183 115.476 346.65 116.316C347.13 117.143 347.377 118.103 347.39 119.196L346.31 119.376C346.31 120.43 346.103 121.363 345.69 122.176C345.29 122.976 344.73 123.603 344.01 124.056C343.29 124.51 342.47 124.736 341.55 124.736ZM341.85 129.116C340.863 129.116 339.957 128.923 339.13 128.536C338.317 128.163 337.637 127.623 337.09 126.916C336.93 126.716 336.863 126.503 336.89 126.276C336.93 126.063 337.05 125.89 337.25 125.756C337.463 125.61 337.69 125.556 337.93 125.596C338.17 125.65 338.363 125.77 338.51 125.956C338.883 126.423 339.35 126.79 339.91 127.056C340.483 127.323 341.143 127.456 341.89 127.456C342.57 127.456 343.19 127.29 343.75 126.956C344.31 126.636 344.757 126.163 345.09 125.536C345.423 124.923 345.59 124.183 345.59 123.316V120.396L346.21 118.876L347.39 119.196V123.416C347.39 124.483 347.15 125.443 346.67 126.296C346.203 127.163 345.55 127.85 344.71 128.356C343.883 128.863 342.93 129.116 341.85 129.116ZM341.85 123.096C342.583 123.096 343.23 122.93 343.79 122.596C344.35 122.263 344.79 121.803 345.11 121.216C345.43 120.63 345.59 119.956 345.59 119.196C345.59 118.436 345.43 117.763 345.11 117.176C344.79 116.576 344.35 116.11 343.79 115.776C343.23 115.443 342.583 115.276 341.85 115.276C341.13 115.276 340.483 115.443 339.91 115.776C339.35 116.11 338.91 116.576 338.59 117.176C338.27 117.763 338.11 118.436 338.11 119.196C338.11 119.956 338.27 120.63 338.59 121.216C338.91 121.803 339.35 122.263 339.91 122.596C340.483 122.93 341.13 123.096 341.85 123.096ZM355.065 124.736C354.065 124.736 353.172 124.496 352.385 124.016C351.599 123.536 350.979 122.876 350.525 122.036C350.072 121.196 349.845 120.25 349.845 119.196C349.845 118.13 350.085 117.183 350.565 116.356C351.059 115.516 351.719 114.856 352.545 114.376C353.385 113.883 354.325 113.636 355.365 113.636C356.419 113.636 357.359 113.883 358.185 114.376C359.012 114.856 359.665 115.516 360.145 116.356C360.639 117.196 360.892 118.143 360.905 119.196L360.185 119.376C360.185 120.39 359.959 121.303 359.505 122.116C359.052 122.93 358.439 123.57 357.665 124.036C356.905 124.503 356.039 124.736 355.065 124.736ZM355.365 123.096C356.085 123.096 356.725 122.93 357.285 122.596C357.845 122.25 358.285 121.783 358.605 121.196C358.939 120.596 359.105 119.93 359.105 119.196C359.105 118.45 358.939 117.783 358.605 117.196C358.285 116.596 357.845 116.13 357.285 115.796C356.725 115.45 356.085 115.276 355.365 115.276C354.672 115.276 354.039 115.45 353.465 115.796C352.892 116.13 352.439 116.596 352.105 117.196C351.785 117.783 351.625 118.45 351.625 119.196C351.625 119.93 351.785 120.596 352.105 121.196C352.439 121.783 352.892 122.25 353.465 122.596C354.039 122.93 354.672 123.096 355.365 123.096ZM359.965 124.676C359.699 124.676 359.479 124.59 359.305 124.416C359.132 124.243 359.045 124.023 359.045 123.756V120.556L359.425 118.636L360.905 119.196V123.756C360.905 124.023 360.812 124.243 360.625 124.416C360.452 124.59 360.232 124.676 359.965 124.676ZM373.181 124.656C372.914 124.656 372.694 124.57 372.521 124.396C372.348 124.223 372.261 124.003 372.261 123.736V114.636C372.261 114.356 372.348 114.136 372.521 113.976C372.694 113.803 372.914 113.716 373.181 113.716C373.461 113.716 373.674 113.803 373.821 113.976C373.981 114.136 374.061 114.356 374.061 114.636V123.736C374.061 124.003 373.981 124.223 373.821 124.396C373.674 124.57 373.461 124.656 373.181 124.656ZM364.821 124.656C364.554 124.656 364.334 124.57 364.161 124.396C364.001 124.223 363.921 124.003 363.921 123.736V114.636C363.921 114.356 364.001 114.136 364.161 113.976C364.334 113.803 364.554 113.716 364.821 113.716C365.088 113.716 365.308 113.803 365.481 113.976C365.654 114.136 365.741 114.356 365.741 114.636V123.736C365.741 124.003 365.654 124.223 365.481 124.396C365.308 124.57 365.088 124.656 364.821 124.656ZM365.481 119.856V118.216H372.821V119.856H365.481ZM382.172 124.856C381.292 124.856 380.512 124.676 379.832 124.316C379.152 123.943 378.618 123.436 378.232 122.796C377.845 122.143 377.652 121.403 377.652 120.576V114.616C377.678 114.35 377.772 114.136 377.932 113.976C378.105 113.803 378.318 113.716 378.572 113.716C378.852 113.716 379.072 113.803 379.232 113.976C379.405 114.136 379.492 114.356 379.492 114.636V117.116H382.332C383.145 117.116 383.872 117.263 384.512 117.556C385.152 117.85 385.652 118.276 386.012 118.836C386.372 119.396 386.552 120.07 386.552 120.856C386.552 121.696 386.365 122.416 385.992 123.016C385.618 123.603 385.098 124.056 384.432 124.376C383.778 124.696 383.025 124.856 382.172 124.856ZM382.172 123.136C382.932 123.136 383.552 122.95 384.032 122.576C384.525 122.19 384.772 121.616 384.772 120.856C384.772 120.123 384.538 119.583 384.072 119.236C383.618 118.876 383.038 118.696 382.332 118.696H379.492V120.536C379.492 121.296 379.738 121.923 380.232 122.416C380.738 122.896 381.385 123.136 382.172 123.136ZM389.212 124.656C388.945 124.656 388.725 124.57 388.552 124.396C388.378 124.223 388.292 124.003 388.292 123.736V114.636C388.292 114.356 388.378 114.136 388.552 113.976C388.725 113.803 388.945 113.716 389.212 113.716C389.492 113.716 389.712 113.803 389.872 113.976C390.045 114.136 390.132 114.356 390.132 114.636V123.736C390.132 124.003 390.045 124.223 389.872 124.396C389.712 124.57 389.492 124.656 389.212 124.656Z" fill="#FFFFFF"/>
</svg>
