<svg viewBox="0 0 237 296" fill="none" xmlns="http://www.w3.org/2000/svg">
<path d="M210.714 4.59009L207.732 0.512695L145.5 4.59009L121.085 0.512695L93.3884 6.51807L70.7765 13.8621L34.5973 26.6119V40.1791L25.5526 58.2687L30.075 76.3582L16.5078 80.8806L11.9854 98.9702V117.06L5.00354 129.076L1.37891 159.809L5.00354 188.721L21.0302 198.463L23.8693 225.34L27.0726 225.461L69.3583 234.585L77.4086 239.98L80.0531 243.077L87.3346 253.877L99.726 265.13L106.038 273.464L111.085 282.324L116.828 290.069L125.174 295L132.57 291.059L134.741 288.077L136.259 282.567L132.644 264.065L129.979 260.304L128.061 256.584L126.754 252.486L122.455 231.972L122.181 228.959L124.394 223.891L125.5 220.593L125.205 217.474L123.214 212.944L118.187 205.579L116.017 201.586L114.32 191.481L112.782 187.456L111.76 183.368L112.466 177.731L114.12 173.696L121.085 163.034L124.225 155.395L128.45 139.886L132.413 133.343L135.595 131.404L138.809 131.646L145.5 133.49L148.777 133.111L157.891 129.392L161.485 126.378L175.931 120.963L185.583 119.793L189.767 117.18L190.894 111.87L188.681 107.265L184.677 104.979L175.942 103.725L162.876 97.3826L156.406 92.0512L152.834 85.4451L155.32 78.196L163.35 72.9385L180.083 65.774L194.982 54.5108L203.106 50.644L211.041 51.0234L220.725 58.3249L224.686 59.2837L228.87 58.5146L232.674 56.1966L235.434 52.2558L236.499 46.6716L235.487 41.7723L231.104 33.5013L230.092 28.5812L229.934 23.5028L229.302 18.4453L227.9 13.8621L225.414 10.2798L217.88 6.51807L210.714 4.59009Z" fill="#00A1E1" stroke="white" stroke-linecap="round" stroke-linejoin="round"/>
<rect x="51" y="87" width="30" height="30" rx="15" fill="#FFFFFF"/>
<rect x="60" y="96" width="12" height="12" rx="6" fill="#00A1E1"/>
<path d="M14.2994 148C14.0327 148 13.806 147.913 13.6194 147.74C13.446 147.553 13.3594 147.327 13.3594 147.06V133.32C13.3594 133.053 13.446 132.833 13.6194 132.66C13.806 132.473 14.0327 132.38 14.2994 132.38H18.2994C19.2994 132.38 20.1794 132.6 20.9394 133.04C21.7127 133.48 22.3127 134.087 22.7394 134.86C23.166 135.62 23.3794 136.507 23.3794 137.52C23.3794 138.493 23.166 139.36 22.7394 140.12C22.3127 140.88 21.7127 141.473 20.9394 141.9C20.1794 142.327 19.2994 142.54 18.2994 142.54H15.2394V147.06C15.2394 147.327 15.1527 147.553 14.9794 147.74C14.806 147.913 14.5794 148 14.2994 148ZM15.2394 140.78H18.2994C18.9394 140.78 19.506 140.64 19.9994 140.36C20.4927 140.08 20.8794 139.693 21.1594 139.2C21.4394 138.707 21.5794 138.147 21.5794 137.52C21.5794 136.853 21.4394 136.267 21.1594 135.76C20.8794 135.253 20.4927 134.86 19.9994 134.58C19.506 134.287 18.9394 134.14 18.2994 134.14H15.2394V140.78ZM29.8116 148.08C28.8116 148.08 27.9182 147.84 27.1316 147.36C26.3449 146.88 25.7249 146.22 25.2716 145.38C24.8182 144.54 24.5916 143.593 24.5916 142.54C24.5916 141.473 24.8316 140.527 25.3116 139.7C25.8049 138.86 26.4649 138.2 27.2916 137.72C28.1316 137.227 29.0716 136.98 30.1116 136.98C31.1649 136.98 32.1049 137.227 32.9316 137.72C33.7582 138.2 34.4116 138.86 34.8916 139.7C35.3849 140.54 35.6382 141.487 35.6516 142.54L34.9316 142.72C34.9316 143.733 34.7049 144.647 34.2516 145.46C33.7982 146.273 33.1849 146.913 32.4116 147.38C31.6516 147.847 30.7849 148.08 29.8116 148.08ZM30.1116 146.44C30.8316 146.44 31.4716 146.273 32.0316 145.94C32.5916 145.593 33.0316 145.127 33.3516 144.54C33.6849 143.94 33.8516 143.273 33.8516 142.54C33.8516 141.793 33.6849 141.127 33.3516 140.54C33.0316 139.94 32.5916 139.473 32.0316 139.14C31.4716 138.793 30.8316 138.62 30.1116 138.62C29.4182 138.62 28.7849 138.793 28.2116 139.14C27.6382 139.473 27.1849 139.94 26.8516 140.54C26.5316 141.127 26.3716 141.793 26.3716 142.54C26.3716 143.273 26.5316 143.94 26.8516 144.54C27.1849 145.127 27.6382 145.593 28.2116 145.94C28.7849 146.273 29.4182 146.44 30.1116 146.44ZM34.7116 148.02C34.4449 148.02 34.2249 147.933 34.0516 147.76C33.8782 147.587 33.7916 147.367 33.7916 147.1V143.9L34.1716 141.98L35.6516 142.54V147.1C35.6516 147.367 35.5582 147.587 35.3716 147.76C35.1982 147.933 34.9782 148.02 34.7116 148.02ZM43.3272 148.1C42.3939 148.1 41.5605 147.907 40.8272 147.52C40.0939 147.12 39.5139 146.54 39.0872 145.78C38.6605 145.02 38.4472 144.093 38.4472 143V137.96C38.4472 137.707 38.5339 137.493 38.7072 137.32C38.8939 137.133 39.1139 137.04 39.3672 137.04C39.6339 137.04 39.8539 137.133 40.0272 137.32C40.2139 137.493 40.3072 137.707 40.3072 137.96V143C40.3072 143.773 40.4539 144.413 40.7472 144.92C41.0405 145.427 41.4339 145.807 41.9272 146.06C42.4339 146.3 43.0005 146.42 43.6272 146.42C44.2405 146.42 44.7805 146.3 45.2472 146.06C45.7272 145.82 46.1072 145.5 46.3872 145.1C46.6805 144.687 46.8272 144.227 46.8272 143.72H48.0272C48.0005 144.547 47.7805 145.293 47.3672 145.96C46.9672 146.627 46.4139 147.153 45.7072 147.54C45.0005 147.913 44.2072 148.1 43.3272 148.1ZM47.7472 148C47.4805 148 47.2605 147.913 47.0872 147.74C46.9139 147.567 46.8272 147.347 46.8272 147.08V137.96C46.8272 137.693 46.9139 137.473 47.0872 137.3C47.2605 137.127 47.4805 137.04 47.7472 137.04C48.0139 137.04 48.2339 137.127 48.4072 137.3C48.5805 137.473 48.6672 137.693 48.6672 137.96V147.08C48.6672 147.347 48.5805 147.567 48.4072 147.74C48.2339 147.913 48.0139 148 47.7472 148ZM43.6872 135.62C43.0072 135.62 42.4005 135.507 41.8672 135.28C41.3339 135.053 40.9072 134.74 40.5872 134.34C40.2805 133.94 40.1272 133.493 40.1272 133C40.1272 132.747 40.2072 132.533 40.3672 132.36C40.5272 132.187 40.7272 132.1 40.9672 132.1C41.2072 132.1 41.4005 132.187 41.5472 132.36C41.7072 132.533 41.7872 132.753 41.7872 133.02C41.7872 133.367 41.9672 133.66 42.3272 133.9C42.6872 134.127 43.1339 134.24 43.6672 134.24C44.2139 134.24 44.6672 134.127 45.0272 133.9C45.3872 133.66 45.5672 133.367 45.5672 133.02C45.5672 132.753 45.6472 132.533 45.8072 132.36C45.9672 132.187 46.1672 132.1 46.4072 132.1C46.6472 132.1 46.8405 132.187 46.9872 132.36C47.1472 132.533 47.2272 132.747 47.2272 133C47.2272 133.493 47.0672 133.94 46.7472 134.34C46.4405 134.74 46.0205 135.053 45.4872 135.28C44.9539 135.507 44.3539 135.62 43.6872 135.62ZM56.7809 148.2C55.9009 148.2 55.1209 148.02 54.4409 147.66C53.7609 147.287 53.2276 146.78 52.8409 146.14C52.4543 145.487 52.2609 144.747 52.2609 143.92V137.96C52.2876 137.693 52.3809 137.48 52.5409 137.32C52.7143 137.147 52.9276 137.06 53.1809 137.06C53.4609 137.06 53.6809 137.147 53.8409 137.32C54.0143 137.48 54.1009 137.7 54.1009 137.98V140.46H56.9409C57.7543 140.46 58.4809 140.607 59.1209 140.9C59.7609 141.193 60.2609 141.62 60.6209 142.18C60.9809 142.74 61.1609 143.413 61.1609 144.2C61.1609 145.04 60.9743 145.76 60.6009 146.36C60.2276 146.947 59.7076 147.4 59.0409 147.72C58.3876 148.04 57.6343 148.2 56.7809 148.2ZM56.7809 146.48C57.5409 146.48 58.1609 146.293 58.6409 145.92C59.1343 145.533 59.3809 144.96 59.3809 144.2C59.3809 143.467 59.1476 142.927 58.6809 142.58C58.2276 142.22 57.6476 142.04 56.9409 142.04H54.1009V143.88C54.1009 144.64 54.3476 145.267 54.8409 145.76C55.3476 146.24 55.9943 146.48 56.7809 146.48ZM63.8209 148C63.5543 148 63.3343 147.913 63.1609 147.74C62.9876 147.567 62.9009 147.347 62.9009 147.08V137.98C62.9009 137.7 62.9876 137.48 63.1609 137.32C63.3343 137.147 63.5543 137.06 63.8209 137.06C64.1009 137.06 64.3209 137.147 64.4809 137.32C64.6543 137.48 64.7409 137.7 64.7409 137.98V147.08C64.7409 147.347 64.6543 147.567 64.4809 147.74C64.3209 147.913 64.1009 148 63.8209 148ZM69.2552 148C68.9885 148 68.7685 147.913 68.5952 147.74C68.4218 147.567 68.3352 147.347 68.3352 147.08V137.98C68.3352 137.7 68.4218 137.48 68.5952 137.32C68.7685 137.147 68.9885 137.06 69.2552 137.06C69.6552 137.06 69.9885 137.247 70.2552 137.62L74.4952 143.76L78.7552 137.62C79.0085 137.247 79.3352 137.06 79.7352 137.06C80.0152 137.06 80.2352 137.147 80.3952 137.32C80.5685 137.48 80.6552 137.7 80.6552 137.98V147.08C80.6552 147.347 80.5685 147.567 80.3952 147.74C80.2352 147.913 80.0152 148 79.7352 148C79.4552 148 79.2285 147.913 79.0552 147.74C78.8952 147.567 78.8152 147.347 78.8152 147.08V139.36L79.3352 139.52L75.4152 145.1C75.1218 145.513 74.8018 145.72 74.4552 145.72C74.1218 145.707 73.8152 145.5 73.5352 145.1L69.6552 139.56L70.1752 139.4V147.08C70.1752 147.347 70.0885 147.567 69.9152 147.74C69.7552 147.913 69.5352 148 69.2552 148ZM89.2131 148.08C88.1465 148.08 87.1998 147.853 86.3731 147.4C85.5598 146.947 84.9198 146.32 84.4531 145.52C83.9998 144.707 83.7665 143.787 83.7531 142.76H84.6731C84.6731 141.76 84.8798 140.887 85.2931 140.14C85.7065 139.393 86.2798 138.807 87.0131 138.38C87.7465 137.94 88.5798 137.72 89.5131 137.72C90.4998 137.72 91.3665 137.94 92.1131 138.38C92.8731 138.82 93.4665 139.427 93.8931 140.2C94.3198 140.973 94.5331 141.867 94.5331 142.88C94.5331 143.893 94.3065 144.793 93.8531 145.58C93.3998 146.367 92.7731 146.98 91.9731 147.42C91.1731 147.86 90.2531 148.08 89.2131 148.08ZM89.2131 146.44C89.9065 146.44 90.5198 146.293 91.0531 146C91.5865 145.693 91.9998 145.273 92.2931 144.74C92.5998 144.207 92.7531 143.587 92.7531 142.88C92.7531 142.2 92.5998 141.6 92.2931 141.08C91.9998 140.547 91.5865 140.133 91.0531 139.84C90.5198 139.533 89.9065 139.38 89.2131 139.38C88.4931 139.38 87.8531 139.533 87.2931 139.84C86.7465 140.133 86.3198 140.547 86.0131 141.08C85.7065 141.6 85.5531 142.2 85.5531 142.88C85.5531 143.587 85.7065 144.207 86.0131 144.74C86.3198 145.273 86.7465 145.693 87.2931 146C87.8531 146.293 88.4931 146.44 89.2131 146.44ZM83.7531 142.78L83.7731 140.76C83.7865 139.107 84.2331 137.607 85.1131 136.26C86.0065 134.913 87.3865 133.847 89.2531 133.06L92.6931 131.58C92.9465 131.487 93.1665 131.48 93.3531 131.56C93.5398 131.627 93.6798 131.767 93.7731 131.98C93.8531 132.22 93.8665 132.44 93.8131 132.64C93.7731 132.827 93.5931 132.987 93.2731 133.12L89.5731 134.76C88.5465 135.187 87.7131 135.713 87.0731 136.34C86.4331 136.967 85.9598 137.673 85.6531 138.46C85.3598 139.233 85.2065 140.067 85.1931 140.96L85.1731 142.78H83.7531ZM102.634 148.08C101.527 148.08 100.547 147.847 99.6939 147.38C98.8539 146.9 98.1939 146.247 97.7139 145.42C97.2339 144.58 96.9939 143.62 96.9939 142.54C96.9939 141.447 97.2206 140.487 97.6739 139.66C98.1272 138.82 98.7539 138.167 99.5539 137.7C100.354 137.22 101.281 136.98 102.334 136.98C103.361 136.98 104.247 137.213 104.994 137.68C105.741 138.133 106.314 138.767 106.714 139.58C107.114 140.38 107.314 141.307 107.314 142.36C107.314 142.587 107.234 142.78 107.074 142.94C106.927 143.087 106.727 143.16 106.474 143.16H98.2539V141.68H106.494L105.674 142.26C105.661 141.553 105.521 140.92 105.254 140.36C104.987 139.8 104.607 139.36 104.114 139.04C103.621 138.72 103.027 138.56 102.334 138.56C101.574 138.56 100.914 138.733 100.354 139.08C99.8072 139.427 99.3872 139.9 99.0939 140.5C98.8006 141.1 98.6539 141.78 98.6539 142.54C98.6539 143.3 98.8206 143.98 99.1539 144.58C99.5006 145.167 99.9672 145.633 100.554 145.98C101.154 146.327 101.847 146.5 102.634 146.5C103.061 146.5 103.501 146.42 103.954 146.26C104.421 146.1 104.787 145.913 105.054 145.7C105.241 145.553 105.441 145.48 105.654 145.48C105.867 145.467 106.054 145.527 106.214 145.66C106.414 145.847 106.521 146.053 106.534 146.28C106.547 146.493 106.454 146.68 106.254 146.84C105.801 147.2 105.234 147.5 104.554 147.74C103.887 147.967 103.247 148.08 102.634 148.08ZM118.657 147.78C118.497 147.927 118.277 148 117.997 148C117.717 147.987 117.497 147.9 117.337 147.74L112.517 142.52L117.097 137.34C117.257 137.18 117.471 137.087 117.737 137.06C118.004 137.033 118.217 137.093 118.377 137.24C118.564 137.413 118.671 137.607 118.697 137.82C118.724 138.033 118.657 138.227 118.497 138.4L114.817 142.42L118.697 146.64C118.857 146.8 118.937 146.987 118.937 147.2C118.937 147.413 118.844 147.607 118.657 147.78ZM110.797 148.02C110.531 148.02 110.317 147.933 110.157 147.76C109.997 147.587 109.917 147.367 109.917 147.1V137.98C109.917 137.7 109.997 137.48 110.157 137.32C110.317 137.147 110.531 137.06 110.797 137.06C111.077 137.06 111.304 137.147 111.477 137.32C111.651 137.48 111.737 137.7 111.737 137.98V141.56H114.237V143.26H111.737V147.1C111.737 147.367 111.651 147.587 111.477 147.76C111.304 147.933 111.077 148.02 110.797 148.02ZM31.7549 170.08C30.7549 170.08 29.8616 169.84 29.0749 169.36C28.2883 168.88 27.6683 168.22 27.2149 167.38C26.7616 166.54 26.5349 165.593 26.5349 164.54C26.5349 163.473 26.7749 162.527 27.2549 161.7C27.7483 160.86 28.4083 160.2 29.2349 159.72C30.0749 159.227 31.0149 158.98 32.0549 158.98C33.1083 158.98 34.0483 159.227 34.8749 159.72C35.7016 160.2 36.3549 160.86 36.8349 161.7C37.3283 162.54 37.5816 163.487 37.5949 164.54L36.8749 164.72C36.8749 165.733 36.6483 166.647 36.1949 167.46C35.7416 168.273 35.1283 168.913 34.3549 169.38C33.5949 169.847 32.7283 170.08 31.7549 170.08ZM32.0549 168.44C32.7749 168.44 33.4149 168.273 33.9749 167.94C34.5349 167.593 34.9749 167.127 35.2949 166.54C35.6283 165.94 35.7949 165.273 35.7949 164.54C35.7949 163.793 35.6283 163.127 35.2949 162.54C34.9749 161.94 34.5349 161.473 33.9749 161.14C33.4149 160.793 32.7749 160.62 32.0549 160.62C31.3616 160.62 30.7283 160.793 30.1549 161.14C29.5816 161.473 29.1283 161.94 28.7949 162.54C28.4749 163.127 28.3149 163.793 28.3149 164.54C28.3149 165.273 28.4749 165.94 28.7949 166.54C29.1283 167.127 29.5816 167.593 30.1549 167.94C30.7283 168.273 31.3616 168.44 32.0549 168.44ZM36.6549 170.02C36.3883 170.02 36.1683 169.933 35.9949 169.76C35.8216 169.587 35.7349 169.367 35.7349 169.1V165.9L36.1149 163.98L37.5949 164.54V169.1C37.5949 169.367 37.5016 169.587 37.3149 169.76C37.1416 169.933 36.9216 170.02 36.6549 170.02ZM39.8251 174.8C39.5717 174.8 39.3117 174.76 39.0451 174.68C38.7784 174.613 38.5184 174.507 38.2651 174.36C37.9984 174.2 37.8251 174 37.7451 173.76C37.6651 173.533 37.7117 173.307 37.8851 173.08C38.0317 172.88 38.2117 172.76 38.4251 172.72C38.6384 172.693 38.8651 172.747 39.1051 172.88C39.2517 172.96 39.3917 173.02 39.5251 173.06C39.6584 173.1 39.7984 173.12 39.9451 173.12C40.3851 173.12 40.8051 172.907 41.2051 172.48C41.6051 172.053 41.9851 171.427 42.3451 170.6L47.2051 159.52C47.3117 159.28 47.4784 159.12 47.7051 159.04C47.9317 158.96 48.1584 158.973 48.3851 159.08C48.5984 159.16 48.7384 159.313 48.8051 159.54C48.8717 159.767 48.8451 160.007 48.7251 160.26L43.8251 171.32C43.3717 172.36 42.7917 173.2 42.0851 173.84C41.3784 174.48 40.6251 174.8 39.8251 174.8ZM44.2451 169.6C44.0051 169.707 43.7851 169.72 43.5851 169.64C43.3851 169.56 43.2251 169.407 43.1051 169.18L38.5651 160.26C38.4451 160.033 38.4251 159.813 38.5051 159.6C38.5984 159.387 38.7651 159.233 39.0051 159.14C39.2317 159.033 39.4451 159.02 39.6451 159.1C39.8584 159.167 40.0184 159.32 40.1251 159.56L44.5251 168.4C44.6451 168.64 44.6851 168.873 44.6451 169.1C44.6051 169.327 44.4717 169.493 44.2451 169.6ZM55.3291 170.08C54.3025 170.08 53.3958 169.847 52.6091 169.38C51.8358 168.9 51.2225 168.247 50.7691 167.42C50.3291 166.58 50.1091 165.62 50.1091 164.54C50.1091 163.447 50.3425 162.487 50.8091 161.66C51.2891 160.82 51.9425 160.167 52.7691 159.7C53.6091 159.22 54.5625 158.98 55.6291 158.98C56.7091 158.98 57.6625 159.22 58.4891 159.7C59.3158 160.167 59.9625 160.82 60.4291 161.66C60.9091 162.487 61.1558 163.447 61.1691 164.54L60.0891 164.72C60.0891 165.773 59.8825 166.707 59.4691 167.52C59.0691 168.32 58.5091 168.947 57.7891 169.4C57.0691 169.853 56.2491 170.08 55.3291 170.08ZM55.6291 174.46C54.6425 174.46 53.7358 174.267 52.9091 173.88C52.0958 173.507 51.4158 172.967 50.8691 172.26C50.7091 172.06 50.6425 171.847 50.6691 171.62C50.7091 171.407 50.8291 171.233 51.0291 171.1C51.2425 170.953 51.4691 170.9 51.7091 170.94C51.9491 170.993 52.1425 171.113 52.2891 171.3C52.6625 171.767 53.1291 172.133 53.6891 172.4C54.2625 172.667 54.9225 172.8 55.6691 172.8C56.3491 172.8 56.9691 172.633 57.5291 172.3C58.0891 171.98 58.5358 171.507 58.8691 170.88C59.2025 170.267 59.3691 169.527 59.3691 168.66V165.74L59.9891 164.22L61.1691 164.54V168.76C61.1691 169.827 60.9291 170.787 60.4491 171.64C59.9825 172.507 59.3291 173.193 58.4891 173.7C57.6625 174.207 56.7091 174.46 55.6291 174.46ZM55.6291 168.44C56.3625 168.44 57.0091 168.273 57.5691 167.94C58.1291 167.607 58.5691 167.147 58.8891 166.56C59.2091 165.973 59.3691 165.3 59.3691 164.54C59.3691 163.78 59.2091 163.107 58.8891 162.52C58.5691 161.92 58.1291 161.453 57.5691 161.12C57.0091 160.787 56.3625 160.62 55.6291 160.62C54.9091 160.62 54.2625 160.787 53.6891 161.12C53.1291 161.453 52.6891 161.92 52.3691 162.52C52.0491 163.107 51.8891 163.78 51.8891 164.54C51.8891 165.3 52.0491 165.973 52.3691 166.56C52.6891 167.147 53.1291 167.607 53.6891 167.94C54.2625 168.273 54.9091 168.44 55.6291 168.44ZM68.8448 170.08C67.8448 170.08 66.9514 169.84 66.1648 169.36C65.3781 168.88 64.7581 168.22 64.3048 167.38C63.8514 166.54 63.6248 165.593 63.6248 164.54C63.6248 163.473 63.8648 162.527 64.3448 161.7C64.8381 160.86 65.4981 160.2 66.3248 159.72C67.1648 159.227 68.1048 158.98 69.1448 158.98C70.1981 158.98 71.1381 159.227 71.9648 159.72C72.7914 160.2 73.4448 160.86 73.9248 161.7C74.4181 162.54 74.6714 163.487 74.6848 164.54L73.9648 164.72C73.9648 165.733 73.7381 166.647 73.2848 167.46C72.8314 168.273 72.2181 168.913 71.4448 169.38C70.6848 169.847 69.8181 170.08 68.8448 170.08ZM69.1448 168.44C69.8648 168.44 70.5048 168.273 71.0648 167.94C71.6248 167.593 72.0648 167.127 72.3848 166.54C72.7181 165.94 72.8848 165.273 72.8848 164.54C72.8848 163.793 72.7181 163.127 72.3848 162.54C72.0648 161.94 71.6248 161.473 71.0648 161.14C70.5048 160.793 69.8648 160.62 69.1448 160.62C68.4514 160.62 67.8181 160.793 67.2448 161.14C66.6714 161.473 66.2181 161.94 65.8848 162.54C65.5648 163.127 65.4048 163.793 65.4048 164.54C65.4048 165.273 65.5648 165.94 65.8848 166.54C66.2181 167.127 66.6714 167.593 67.2448 167.94C67.8181 168.273 68.4514 168.44 69.1448 168.44ZM73.7448 170.02C73.4781 170.02 73.2581 169.933 73.0848 169.76C72.9114 169.587 72.8248 169.367 72.8248 169.1V165.9L73.2048 163.98L74.6848 164.54V169.1C74.6848 169.367 74.5914 169.587 74.4048 169.76C74.2314 169.933 74.0114 170.02 73.7448 170.02ZM86.9604 170C86.6937 170 86.4737 169.913 86.3004 169.74C86.1271 169.567 86.0404 169.347 86.0404 169.08V159.98C86.0404 159.7 86.1271 159.48 86.3004 159.32C86.4737 159.147 86.6937 159.06 86.9604 159.06C87.2404 159.06 87.4537 159.147 87.6004 159.32C87.7604 159.48 87.8404 159.7 87.8404 159.98V169.08C87.8404 169.347 87.7604 169.567 87.6004 169.74C87.4537 169.913 87.2404 170 86.9604 170ZM78.6004 170C78.3337 170 78.1137 169.913 77.9404 169.74C77.7804 169.567 77.7004 169.347 77.7004 169.08V159.98C77.7004 159.7 77.7804 159.48 77.9404 159.32C78.1137 159.147 78.3337 159.06 78.6004 159.06C78.8671 159.06 79.0871 159.147 79.2604 159.32C79.4337 159.48 79.5204 159.7 79.5204 159.98V169.08C79.5204 169.347 79.4337 169.567 79.2604 169.74C79.0871 169.913 78.8671 170 78.6004 170ZM79.2604 165.2V163.56H86.6004V165.2H79.2604ZM95.9509 170.2C95.0709 170.2 94.2909 170.02 93.6109 169.66C92.9309 169.287 92.3975 168.78 92.0109 168.14C91.6242 167.487 91.4309 166.747 91.4309 165.92V159.96C91.4575 159.693 91.5509 159.48 91.7109 159.32C91.8842 159.147 92.0975 159.06 92.3509 159.06C92.6309 159.06 92.8509 159.147 93.0109 159.32C93.1842 159.48 93.2709 159.7 93.2709 159.98V162.46H96.1109C96.9242 162.46 97.6509 162.607 98.2909 162.9C98.9309 163.193 99.4309 163.62 99.7909 164.18C100.151 164.74 100.331 165.413 100.331 166.2C100.331 167.04 100.144 167.76 99.7709 168.36C99.3975 168.947 98.8775 169.4 98.2109 169.72C97.5575 170.04 96.8042 170.2 95.9509 170.2ZM95.9509 168.48C96.7109 168.48 97.3309 168.293 97.8109 167.92C98.3042 167.533 98.5509 166.96 98.5509 166.2C98.5509 165.467 98.3175 164.927 97.8509 164.58C97.3975 164.22 96.8175 164.04 96.1109 164.04H93.2709V165.88C93.2709 166.64 93.5175 167.267 94.0109 167.76C94.5175 168.24 95.1642 168.48 95.9509 168.48ZM102.991 170C102.724 170 102.504 169.913 102.331 169.74C102.158 169.567 102.071 169.347 102.071 169.08V159.98C102.071 159.7 102.158 159.48 102.331 159.32C102.504 159.147 102.724 159.06 102.991 159.06C103.271 159.06 103.491 159.147 103.651 159.32C103.824 159.48 103.911 159.7 103.911 159.98V169.08C103.911 169.347 103.824 169.567 103.651 169.74C103.491 169.913 103.271 170 102.991 170Z" fill="#FFFFFF"/>
</svg>
