<svg viewBox="0 0 307 223" fill="none" xmlns="http://www.w3.org/2000/svg">
<path d="M253.938 23.3463L250.746 17.2248H211.611L169.295 14.5671L124.071 10.0447L74.3251 1H60.7579H42.6683H24.5789L1 6.89471L6.48926 45.8183L15.5341 109.132L6.48926 113.654L20.0564 140.788L33.6237 158.878L46.4615 186.012L55.1234 208.624L74.3251 222.192L110.504 213.147H119.549L155.728 200.397L178.34 193.053L206.037 187.047L230.452 191.125L292.684 187.047L302.494 169.125L305.529 160.97L306.024 152.32L283.443 93.0644L260.862 33.5876L253.938 23.3463Z" fill="#00A1E1" stroke="white" stroke-linecap="round" stroke-linejoin="round"/>
<rect x="120.953" y="77.5342" width="30" height="30" rx="15" fill="#FFFFFF"/>
<rect x="129.953" y="86.5342" width="12" height="12" rx="6" fill="#00A1E1"/>
<path d="M109.329 138.534C109.075 138.534 108.855 138.448 108.669 138.274C108.495 138.088 108.409 137.861 108.409 137.594V132.794L103.029 124.374C102.869 124.134 102.809 123.901 102.849 123.674C102.889 123.448 102.989 123.268 103.149 123.134C103.322 122.988 103.529 122.914 103.769 122.914C103.969 122.914 104.129 122.961 104.249 123.054C104.369 123.134 104.482 123.254 104.589 123.414L109.789 131.714H108.969L114.209 123.374C114.315 123.228 114.435 123.114 114.569 123.034C114.702 122.954 114.862 122.914 115.049 122.914C115.275 122.914 115.462 122.994 115.609 123.154C115.755 123.301 115.842 123.488 115.869 123.714C115.895 123.928 115.835 124.148 115.689 124.374L110.269 132.794V137.594C110.269 137.861 110.175 138.088 109.989 138.274C109.815 138.448 109.595 138.534 109.329 138.534ZM106.149 133.694C105.882 133.694 105.662 133.628 105.489 133.494C105.315 133.348 105.229 133.148 105.229 132.894C105.229 132.641 105.315 132.441 105.489 132.294C105.662 132.148 105.882 132.074 106.149 132.074H112.569C112.835 132.074 113.055 132.148 113.229 132.294C113.402 132.428 113.489 132.628 113.489 132.894C113.489 133.148 113.402 133.348 113.229 133.494C113.055 133.628 112.835 133.694 112.569 133.694H106.149ZM120.829 138.634C119.896 138.634 119.062 138.441 118.329 138.054C117.596 137.654 117.016 137.074 116.589 136.314C116.162 135.554 115.949 134.628 115.949 133.534V128.494C115.949 128.241 116.036 128.028 116.209 127.854C116.396 127.668 116.616 127.574 116.869 127.574C117.136 127.574 117.356 127.668 117.529 127.854C117.716 128.028 117.809 128.241 117.809 128.494V133.534C117.809 134.308 117.956 134.948 118.249 135.454C118.542 135.961 118.936 136.341 119.429 136.594C119.936 136.834 120.502 136.954 121.129 136.954C121.742 136.954 122.282 136.834 122.749 136.594C123.229 136.354 123.609 136.034 123.889 135.634C124.182 135.221 124.329 134.761 124.329 134.254H125.529C125.502 135.081 125.282 135.828 124.869 136.494C124.469 137.161 123.916 137.688 123.209 138.074C122.502 138.448 121.709 138.634 120.829 138.634ZM125.249 138.534C124.982 138.534 124.762 138.448 124.589 138.274C124.416 138.101 124.329 137.881 124.329 137.614V128.494C124.329 128.228 124.416 128.008 124.589 127.834C124.762 127.661 124.982 127.574 125.249 127.574C125.516 127.574 125.736 127.661 125.909 127.834C126.082 128.008 126.169 128.228 126.169 128.494V137.614C126.169 137.881 126.082 138.101 125.909 138.274C125.736 138.448 125.516 138.534 125.249 138.534ZM121.189 126.154C120.509 126.154 119.902 126.041 119.369 125.814C118.836 125.588 118.409 125.274 118.089 124.874C117.782 124.474 117.629 124.028 117.629 123.534C117.629 123.281 117.709 123.068 117.869 122.894C118.029 122.721 118.229 122.634 118.469 122.634C118.709 122.634 118.902 122.721 119.049 122.894C119.209 123.068 119.289 123.288 119.289 123.554C119.289 123.901 119.469 124.194 119.829 124.434C120.189 124.661 120.636 124.774 121.169 124.774C121.716 124.774 122.169 124.661 122.529 124.434C122.889 124.194 123.069 123.901 123.069 123.554C123.069 123.288 123.149 123.068 123.309 122.894C123.469 122.721 123.669 122.634 123.909 122.634C124.149 122.634 124.342 122.721 124.489 122.894C124.649 123.068 124.729 123.281 124.729 123.534C124.729 124.028 124.569 124.474 124.249 124.874C123.942 125.274 123.522 125.588 122.989 125.814C122.456 126.041 121.856 126.154 121.189 126.154ZM129.283 133.874C129.016 133.874 128.796 133.801 128.623 133.654C128.45 133.508 128.363 133.308 128.363 133.054C128.363 132.801 128.45 132.601 128.623 132.454C128.796 132.308 129.016 132.234 129.283 132.234H134.483C134.763 132.234 134.99 132.308 135.163 132.454C135.336 132.601 135.423 132.801 135.423 133.054C135.423 133.308 135.336 133.508 135.163 133.654C134.99 133.801 134.763 133.874 134.483 133.874H129.283ZM130.923 138.534C130.656 138.534 130.436 138.448 130.263 138.274C130.09 138.101 130.003 137.881 130.003 137.614V128.514C130.003 128.234 130.09 128.014 130.263 127.854C130.436 127.681 130.656 127.594 130.923 127.594H136.743C136.996 127.594 137.203 127.674 137.363 127.834C137.523 127.994 137.603 128.194 137.603 128.434C137.603 128.688 137.523 128.894 137.363 129.054C137.203 129.214 136.996 129.294 136.743 129.294L131.823 129.274V137.614C131.823 137.881 131.743 138.101 131.583 138.274C131.423 138.448 131.203 138.534 130.923 138.534ZM144.322 138.734C143.442 138.734 142.662 138.554 141.982 138.194C141.302 137.821 140.769 137.314 140.382 136.674C139.995 136.021 139.802 135.281 139.802 134.454V128.494C139.829 128.228 139.922 128.014 140.082 127.854C140.255 127.681 140.469 127.594 140.722 127.594C141.002 127.594 141.222 127.681 141.382 127.854C141.555 128.014 141.642 128.234 141.642 128.514V130.994H144.482C145.295 130.994 146.022 131.141 146.662 131.434C147.302 131.728 147.802 132.154 148.162 132.714C148.522 133.274 148.702 133.948 148.702 134.734C148.702 135.574 148.515 136.294 148.142 136.894C147.769 137.481 147.249 137.934 146.582 138.254C145.929 138.574 145.175 138.734 144.322 138.734ZM144.322 137.014C145.082 137.014 145.702 136.828 146.182 136.454C146.675 136.068 146.922 135.494 146.922 134.734C146.922 134.001 146.689 133.461 146.222 133.114C145.769 132.754 145.189 132.574 144.482 132.574H141.642V134.414C141.642 135.174 141.889 135.801 142.382 136.294C142.889 136.774 143.535 137.014 144.322 137.014ZM151.362 138.534C151.095 138.534 150.875 138.448 150.702 138.274C150.529 138.101 150.442 137.881 150.442 137.614V128.514C150.442 128.234 150.529 128.014 150.702 127.854C150.875 127.681 151.095 127.594 151.362 127.594C151.642 127.594 151.862 127.681 152.022 127.854C152.195 128.014 152.282 128.234 152.282 128.514V137.614C152.282 137.881 152.195 138.101 152.022 138.274C151.862 138.448 151.642 138.534 151.362 138.534ZM156.796 143.214C156.53 143.214 156.31 143.128 156.136 142.954C155.963 142.781 155.876 142.561 155.876 142.294V133.034C155.89 131.994 156.136 131.054 156.616 130.214C157.11 129.374 157.77 128.714 158.596 128.234C159.423 127.754 160.356 127.514 161.396 127.514C162.45 127.514 163.39 127.761 164.216 128.254C165.056 128.734 165.716 129.394 166.196 130.234C166.69 131.061 166.936 132.008 166.936 133.074C166.936 134.128 166.703 135.074 166.236 135.914C165.783 136.754 165.163 137.414 164.376 137.894C163.59 138.374 162.703 138.614 161.716 138.614C160.876 138.614 160.116 138.441 159.436 138.094C158.756 137.748 158.183 137.281 157.716 136.694V142.294C157.716 142.561 157.63 142.781 157.456 142.954C157.296 143.128 157.076 143.214 156.796 143.214ZM161.396 136.974C162.103 136.974 162.736 136.808 163.296 136.474C163.87 136.128 164.316 135.661 164.636 135.074C164.97 134.474 165.136 133.808 165.136 133.074C165.136 132.328 164.97 131.661 164.636 131.074C164.316 130.474 163.87 130.008 163.296 129.674C162.736 129.328 162.103 129.154 161.396 129.154C160.69 129.154 160.05 129.328 159.476 129.674C158.916 130.021 158.476 130.488 158.156 131.074C157.836 131.661 157.676 132.328 157.676 133.074C157.676 133.808 157.836 134.474 158.156 135.074C158.476 135.661 158.916 136.128 159.476 136.474C160.05 136.808 160.69 136.974 161.396 136.974ZM101.708 160.614C100.708 160.614 99.8147 160.374 99.028 159.894C98.2414 159.414 97.6214 158.754 97.168 157.914C96.7147 157.074 96.488 156.128 96.488 155.074C96.488 154.008 96.728 153.061 97.208 152.234C97.7014 151.394 98.3614 150.734 99.188 150.254C100.028 149.761 100.968 149.514 102.008 149.514C103.061 149.514 104.001 149.761 104.828 150.254C105.655 150.734 106.308 151.394 106.788 152.234C107.281 153.074 107.535 154.021 107.548 155.074L106.828 155.254C106.828 156.268 106.601 157.181 106.148 157.994C105.695 158.808 105.081 159.448 104.308 159.914C103.548 160.381 102.681 160.614 101.708 160.614ZM102.008 158.974C102.728 158.974 103.368 158.808 103.928 158.474C104.488 158.128 104.928 157.661 105.248 157.074C105.581 156.474 105.748 155.808 105.748 155.074C105.748 154.328 105.581 153.661 105.248 153.074C104.928 152.474 104.488 152.008 103.928 151.674C103.368 151.328 102.728 151.154 102.008 151.154C101.315 151.154 100.681 151.328 100.108 151.674C99.5347 152.008 99.0814 152.474 98.748 153.074C98.428 153.661 98.268 154.328 98.268 155.074C98.268 155.808 98.428 156.474 98.748 157.074C99.0814 157.661 99.5347 158.128 100.108 158.474C100.681 158.808 101.315 158.974 102.008 158.974ZM106.608 160.554C106.341 160.554 106.121 160.468 105.948 160.294C105.775 160.121 105.688 159.901 105.688 159.634V156.434L106.068 154.514L107.548 155.074V159.634C107.548 159.901 107.455 160.121 107.268 160.294C107.095 160.468 106.875 160.554 106.608 160.554ZM109.778 165.334C109.525 165.334 109.265 165.294 108.998 165.214C108.732 165.148 108.472 165.041 108.218 164.894C107.952 164.734 107.778 164.534 107.698 164.294C107.618 164.068 107.665 163.841 107.838 163.614C107.985 163.414 108.165 163.294 108.378 163.254C108.592 163.228 108.818 163.281 109.058 163.414C109.205 163.494 109.345 163.554 109.478 163.594C109.612 163.634 109.752 163.654 109.898 163.654C110.338 163.654 110.758 163.441 111.158 163.014C111.558 162.588 111.938 161.961 112.298 161.134L117.158 150.054C117.265 149.814 117.432 149.654 117.658 149.574C117.885 149.494 118.112 149.508 118.338 149.614C118.552 149.694 118.692 149.848 118.758 150.074C118.825 150.301 118.798 150.541 118.678 150.794L113.778 161.854C113.325 162.894 112.745 163.734 112.038 164.374C111.332 165.014 110.578 165.334 109.778 165.334ZM114.198 160.134C113.958 160.241 113.738 160.254 113.538 160.174C113.338 160.094 113.178 159.941 113.058 159.714L108.518 150.794C108.398 150.568 108.378 150.348 108.458 150.134C108.552 149.921 108.718 149.768 108.958 149.674C109.185 149.568 109.398 149.554 109.598 149.634C109.812 149.701 109.972 149.854 110.078 150.094L114.478 158.934C114.598 159.174 114.638 159.408 114.598 159.634C114.558 159.861 114.425 160.028 114.198 160.134ZM125.282 160.614C124.256 160.614 123.349 160.381 122.562 159.914C121.789 159.434 121.176 158.781 120.722 157.954C120.282 157.114 120.062 156.154 120.062 155.074C120.062 153.981 120.296 153.021 120.762 152.194C121.242 151.354 121.896 150.701 122.722 150.234C123.562 149.754 124.516 149.514 125.582 149.514C126.662 149.514 127.616 149.754 128.442 150.234C129.269 150.701 129.916 151.354 130.382 152.194C130.862 153.021 131.109 153.981 131.122 155.074L130.042 155.254C130.042 156.308 129.836 157.241 129.422 158.054C129.022 158.854 128.462 159.481 127.742 159.934C127.022 160.388 126.202 160.614 125.282 160.614ZM125.582 164.994C124.596 164.994 123.689 164.801 122.862 164.414C122.049 164.041 121.369 163.501 120.822 162.794C120.662 162.594 120.596 162.381 120.622 162.154C120.662 161.941 120.782 161.768 120.982 161.634C121.196 161.488 121.422 161.434 121.662 161.474C121.902 161.528 122.096 161.648 122.242 161.834C122.616 162.301 123.082 162.668 123.642 162.934C124.216 163.201 124.876 163.334 125.622 163.334C126.302 163.334 126.922 163.168 127.482 162.834C128.042 162.514 128.489 162.041 128.822 161.414C129.156 160.801 129.322 160.061 129.322 159.194V156.274L129.942 154.754L131.122 155.074V159.294C131.122 160.361 130.882 161.321 130.402 162.174C129.936 163.041 129.282 163.728 128.442 164.234C127.616 164.741 126.662 164.994 125.582 164.994ZM125.582 158.974C126.316 158.974 126.962 158.808 127.522 158.474C128.082 158.141 128.522 157.681 128.842 157.094C129.162 156.508 129.322 155.834 129.322 155.074C129.322 154.314 129.162 153.641 128.842 153.054C128.522 152.454 128.082 151.988 127.522 151.654C126.962 151.321 126.316 151.154 125.582 151.154C124.862 151.154 124.216 151.321 123.642 151.654C123.082 151.988 122.642 152.454 122.322 153.054C122.002 153.641 121.842 154.314 121.842 155.074C121.842 155.834 122.002 156.508 122.322 157.094C122.642 157.681 123.082 158.141 123.642 158.474C124.216 158.808 124.862 158.974 125.582 158.974ZM138.798 160.614C137.798 160.614 136.905 160.374 136.118 159.894C135.331 159.414 134.711 158.754 134.258 157.914C133.805 157.074 133.578 156.128 133.578 155.074C133.578 154.008 133.818 153.061 134.298 152.234C134.791 151.394 135.451 150.734 136.278 150.254C137.118 149.761 138.058 149.514 139.098 149.514C140.151 149.514 141.091 149.761 141.918 150.254C142.745 150.734 143.398 151.394 143.878 152.234C144.371 153.074 144.625 154.021 144.638 155.074L143.918 155.254C143.918 156.268 143.691 157.181 143.238 157.994C142.785 158.808 142.171 159.448 141.398 159.914C140.638 160.381 139.771 160.614 138.798 160.614ZM139.098 158.974C139.818 158.974 140.458 158.808 141.018 158.474C141.578 158.128 142.018 157.661 142.338 157.074C142.671 156.474 142.838 155.808 142.838 155.074C142.838 154.328 142.671 153.661 142.338 153.074C142.018 152.474 141.578 152.008 141.018 151.674C140.458 151.328 139.818 151.154 139.098 151.154C138.405 151.154 137.771 151.328 137.198 151.674C136.625 152.008 136.171 152.474 135.838 153.074C135.518 153.661 135.358 154.328 135.358 155.074C135.358 155.808 135.518 156.474 135.838 157.074C136.171 157.661 136.625 158.128 137.198 158.474C137.771 158.808 138.405 158.974 139.098 158.974ZM143.698 160.554C143.431 160.554 143.211 160.468 143.038 160.294C142.865 160.121 142.778 159.901 142.778 159.634V156.434L143.158 154.514L144.638 155.074V159.634C144.638 159.901 144.545 160.121 144.358 160.294C144.185 160.468 143.965 160.554 143.698 160.554ZM156.914 160.534C156.647 160.534 156.427 160.448 156.254 160.274C156.08 160.101 155.994 159.881 155.994 159.614V150.514C155.994 150.234 156.08 150.014 156.254 149.854C156.427 149.681 156.647 149.594 156.914 149.594C157.194 149.594 157.407 149.681 157.554 149.854C157.714 150.014 157.794 150.234 157.794 150.514V159.614C157.794 159.881 157.714 160.101 157.554 160.274C157.407 160.448 157.194 160.534 156.914 160.534ZM148.554 160.534C148.287 160.534 148.067 160.448 147.894 160.274C147.734 160.101 147.654 159.881 147.654 159.614V150.514C147.654 150.234 147.734 150.014 147.894 149.854C148.067 149.681 148.287 149.594 148.554 149.594C148.82 149.594 149.04 149.681 149.214 149.854C149.387 150.014 149.474 150.234 149.474 150.514V159.614C149.474 159.881 149.387 160.101 149.214 160.274C149.04 160.448 148.82 160.534 148.554 160.534ZM149.214 155.734V154.094H156.554V155.734H149.214ZM165.904 160.734C165.024 160.734 164.244 160.554 163.564 160.194C162.884 159.821 162.351 159.314 161.964 158.674C161.577 158.021 161.384 157.281 161.384 156.454V150.494C161.411 150.228 161.504 150.014 161.664 149.854C161.837 149.681 162.051 149.594 162.304 149.594C162.584 149.594 162.804 149.681 162.964 149.854C163.137 150.014 163.224 150.234 163.224 150.514V152.994H166.064C166.877 152.994 167.604 153.141 168.244 153.434C168.884 153.728 169.384 154.154 169.744 154.714C170.104 155.274 170.284 155.948 170.284 156.734C170.284 157.574 170.097 158.294 169.724 158.894C169.351 159.481 168.831 159.934 168.164 160.254C167.511 160.574 166.757 160.734 165.904 160.734ZM165.904 159.014C166.664 159.014 167.284 158.828 167.764 158.454C168.257 158.068 168.504 157.494 168.504 156.734C168.504 156.001 168.271 155.461 167.804 155.114C167.351 154.754 166.771 154.574 166.064 154.574H163.224V156.414C163.224 157.174 163.471 157.801 163.964 158.294C164.471 158.774 165.117 159.014 165.904 159.014ZM172.944 160.534C172.677 160.534 172.457 160.448 172.284 160.274C172.111 160.101 172.024 159.881 172.024 159.614V150.514C172.024 150.234 172.111 150.014 172.284 149.854C172.457 149.681 172.677 149.594 172.944 149.594C173.224 149.594 173.444 149.681 173.604 149.854C173.777 150.014 173.864 150.234 173.864 150.514V159.614C173.864 159.881 173.777 160.101 173.604 160.274C173.444 160.448 173.224 160.534 172.944 160.534Z" fill="#FFFFFF"/>
</svg>
